{"glyphs":{"0":{"ha":1111,"x_min":0,"x_max":0,"o":"m 1035 438 l 1035 604 b 1008 792 1035 674 1026 736 b 925 936 990 848 962 896 b 783 1028 888 976 841 1006 b 576 1060 725 1049 656 1060 l 535 1060 b 328 1028 455 1060 386 1049 b 185 936 269 1006 222 976 b 103 792 148 896 120 848 b 76 604 85 736 76 674 l 76 438 b 103 251 76 369 85 307 b 185 108 120 195 148 147 b 328 16 222 68 269 38 b 535 -17 386 -6 455 -17 l 576 -17 b 783 16 656 -17 725 -6 b 925 108 841 38 888 68 b 1008 251 962 147 990 195 b 1035 438 1026 307 1035 369 z m 250 400 l 250 643 b 311 852 250 737 270 806 b 514 921 352 898 419 921 l 597 921 b 801 852 693 921 760 898 b 861 643 841 806 861 737 l 861 400 b 801 192 861 307 841 238 b 597 122 760 145 693 122 l 514 122 b 311 192 419 122 352 145 b 250 400 270 238 250 307 z "},"1":{"ha":871,"x_min":0,"x_max":0,"o":"m 63 0 l 815 0 l 815 139 l 538 139 l 538 858 b 496 996 538 919 524 965 b 361 1042 468 1026 423 1042 l 94 1042 l 94 903 l 336 903 b 367 891 350 903 360 899 b 378 857 374 883 378 872 l 378 139 l 63 139 z "},"2":{"ha":1011,"x_min":0,"x_max":0,"o":"m 935 139 l 238 139 l 238 200 b 263 271 238 226 246 250 b 333 326 280 292 304 311 l 758 560 b 893 658 813 589 858 622 b 946 813 928 693 946 745 b 880 977 946 879 924 934 b 671 1042 836 1020 766 1042 l 90 1042 l 90 903 l 665 903 b 754 875 708 903 738 894 b 779 810 771 856 779 835 b 752 739 779 781 770 757 b 669 681 734 720 706 701 l 258 447 b 120 325 194 410 148 369 b 78 171 92 281 78 229 l 78 0 l 935 0 z "},"3":{"ha":985,"x_min":0,"x_max":0,"o":"m 238 604 b 199 558 218 589 205 574 b 196 508 192 541 191 525 b 225 473 200 494 209 483 b 283 458 241 463 260 458 l 572 458 b 709 422 639 458 684 446 b 746 328 734 397 746 366 l 746 254 b 709 168 746 216 734 188 b 575 139 684 149 640 139 l 69 139 l 69 0 l 529 0 b 806 51 650 0 743 17 b 901 246 870 84 901 150 l 901 361 b 822 531 901 434 875 491 b 581 592 768 572 688 592 l 458 592 l 897 931 l 897 1042 l 56 1042 l 56 903 l 626 903 z "},"4":{"ha":1107,"x_min":0,"x_max":0,"o":"m 222 206 l 735 206 l 735 0 l 894 0 l 894 206 l 1058 206 l 1058 347 l 894 347 l 894 853 b 850 1010 894 924 880 976 b 724 1060 820 1043 778 1060 l 714 1060 b 599 1026 672 1060 634 1048 b 475 910 563 1003 522 964 l 115 497 b 65 424 92 471 75 447 b 49 351 54 400 49 376 b 89 248 49 311 62 276 b 222 206 116 220 160 206 z m 257 347 b 225 356 242 347 231 350 b 215 379 219 361 215 369 b 220 400 215 388 217 394 b 236 421 223 406 229 413 l 642 879 b 669 906 651 890 660 899 b 699 917 678 913 688 917 b 727 906 713 917 722 913 b 735 872 732 898 735 887 l 735 347 z "},"5":{"ha":992,"x_min":0,"x_max":0,"o":"m 597 624 l 263 624 l 263 903 l 915 903 l 915 1042 l 103 1042 l 103 485 l 578 485 b 714 451 641 485 686 474 b 756 360 742 429 756 399 l 756 264 b 714 171 756 223 742 192 b 578 139 686 150 641 139 l 103 139 l 103 0 l 539 0 b 816 60 657 0 750 20 b 915 272 882 100 915 170 l 915 342 b 834 563 915 449 888 523 b 597 624 780 603 701 624 z "},"6":{"ha":1032,"x_min":0,"x_max":0,"o":"m 658 610 l 236 610 l 236 625 b 299 834 236 719 257 788 b 514 903 340 880 412 903 l 944 903 l 944 1042 l 535 1042 b 325 1010 453 1042 383 1031 b 183 918 267 988 219 958 b 102 774 146 878 119 830 b 76 586 85 718 76 656 l 76 385 b 177 77 76 243 110 141 b 513 -18 244 14 356 -18 l 600 -18 b 877 42 719 -18 811 2 b 976 254 943 81 976 152 l 976 328 b 895 549 976 435 949 509 b 658 610 841 590 762 610 z m 492 121 b 294 167 399 121 333 136 b 236 347 256 197 236 257 l 236 471 l 667 471 b 792 438 730 471 772 460 b 824 346 813 415 824 385 l 824 246 b 781 153 824 205 809 174 b 626 121 753 131 701 121 z "},"7":{"ha":961,"x_min":0,"x_max":0,"o":"m 393 0 l 857 746 b 897 826 874 773 887 799 b 911 899 906 852 911 876 b 870 1004 911 944 897 979 b 740 1042 843 1029 800 1042 l 50 1042 l 50 903 l 714 903 b 742 896 726 903 735 900 b 751 875 748 891 751 884 b 747 853 751 868 750 860 b 735 831 744 847 740 839 l 210 0 z "},"8":{"ha":1046,"x_min":0,"x_max":0,"o":"m 106 786 l 106 749 b 142 610 106 693 118 647 b 271 526 167 573 210 545 b 123 447 203 510 154 483 b 76 311 92 411 76 366 l 76 261 b 165 68 76 178 106 113 b 471 0 223 23 325 0 l 575 0 b 881 68 720 0 822 23 b 969 261 940 113 969 178 l 969 315 b 923 447 969 367 954 411 b 774 526 892 482 842 509 b 903 609 835 544 878 572 b 940 749 928 647 940 693 l 940 786 b 922 900 940 830 934 868 b 859 980 910 932 889 959 b 738 1026 829 1001 788 1016 b 547 1042 687 1037 623 1042 l 499 1042 b 308 1026 423 1042 359 1037 b 187 980 257 1016 217 1001 b 124 900 157 959 136 932 b 106 786 112 868 106 830 z m 781 772 l 781 721 b 737 624 781 675 766 643 b 596 594 708 604 661 594 l 450 594 b 309 624 385 594 338 604 b 265 721 280 643 265 675 l 265 772 b 313 872 265 818 281 851 b 451 903 344 892 390 903 l 594 903 b 733 872 656 903 702 892 b 781 772 765 851 781 818 z m 810 325 l 810 274 b 762 176 810 234 794 201 b 589 139 730 151 672 139 l 457 139 b 346 149 412 139 375 142 b 278 176 317 155 295 164 b 245 218 262 187 251 201 b 236 274 239 235 236 253 l 236 325 b 281 424 236 366 251 399 b 450 461 310 449 367 461 l 596 461 b 760 424 672 461 726 449 b 810 325 793 399 810 366 z "},"9":{"ha":1032,"x_min":0,"x_max":0,"o":"m 374 432 l 796 432 l 796 417 b 733 208 796 323 775 253 b 518 139 692 162 620 139 l 88 139 l 88 0 l 497 0 b 707 32 579 0 649 11 b 849 124 765 53 813 84 b 930 267 886 163 913 211 b 956 456 947 323 956 386 l 956 657 b 855 965 956 799 922 901 b 519 1060 788 1028 676 1060 l 432 1060 b 155 1000 313 1060 221 1040 b 56 788 89 960 56 889 l 56 714 b 137 492 56 606 83 533 b 374 432 191 452 270 432 z m 365 571 b 240 604 302 571 260 582 b 208 696 219 626 208 657 l 208 796 b 251 889 208 837 222 868 b 406 921 279 910 331 921 l 540 921 b 738 875 633 921 699 906 b 796 694 776 844 796 784 l 796 571 z "}," ":{"ha":361,"x_min":0,"x_max":0,"o":""},"!":{"ha":369,"x_min":0,"x_max":0,"o":"m 97 1042 l 115 278 l 254 278 l 272 1042 z m 99 0 l 272 0 l 272 174 l 99 174 z "},"\"":{"ha":625,"x_min":0,"x_max":0,"o":"m 208 653 l 264 1042 l 97 1042 l 97 653 z m 472 653 l 528 1042 l 361 1042 l 361 653 z "},"#":{"ha":1157,"x_min":0,"x_max":0,"o":"m 1000 421 l 794 421 l 857 661 l 1088 661 l 1088 792 l 890 792 l 963 1069 l 817 1069 l 744 792 l 550 792 l 622 1069 l 476 1069 l 404 792 l 157 792 l 157 661 l 371 661 l 308 421 l 69 421 l 69 292 l 275 292 l 199 0 l 344 0 l 421 292 l 615 292 l 539 0 l 685 0 l 761 292 l 1000 292 z m 454 421 l 517 661 l 711 661 l 649 421 z "},"$":{"ha":1003,"x_min":0,"x_max":0,"o":"m 450 -139 l 589 -139 l 589 0 b 853 78 707 0 796 26 b 940 286 911 131 940 200 b 866 466 940 363 916 423 b 654 569 816 509 746 544 l 589 588 l 589 903 l 906 903 l 906 1042 l 589 1042 l 589 1181 l 450 1181 l 450 1042 l 419 1042 b 151 969 299 1042 209 1017 b 63 779 92 920 63 857 b 137 600 63 701 87 642 b 347 500 186 558 256 525 l 450 472 l 450 139 l 90 139 l 90 0 l 450 0 z m 390 644 b 260 701 327 662 284 681 b 225 786 237 722 225 750 b 263 868 225 818 238 845 b 401 903 289 891 335 903 l 450 903 l 450 628 z m 611 428 b 745 369 677 410 722 391 b 781 272 769 347 781 315 b 738 175 781 231 766 199 b 604 139 710 151 665 139 l 589 139 l 589 433 z "},"%":{"ha":1192,"x_min":0,"x_max":0,"o":"m 56 769 b 117 616 56 706 76 654 b 272 558 159 578 210 558 l 369 558 b 522 616 428 558 478 578 b 586 769 565 654 586 706 l 586 849 b 522 1002 586 913 565 964 b 369 1060 478 1041 428 1060 l 272 1060 b 117 1002 210 1060 159 1041 b 56 849 76 964 56 913 z m 781 582 l 1053 1042 l 894 1042 l 624 582 z m 200 838 b 221 914 200 869 207 894 b 286 943 235 933 256 943 l 354 943 b 422 914 387 943 409 933 b 442 838 435 894 442 869 l 442 775 b 422 703 442 745 435 721 b 354 675 409 684 387 675 l 286 675 b 221 703 256 675 235 684 b 200 775 207 721 200 745 z m 606 194 b 667 41 606 131 626 79 b 822 -17 709 3 760 -17 l 919 -17 b 1072 41 978 -17 1028 3 b 1136 194 1115 79 1136 131 l 1136 274 b 1072 427 1136 338 1115 389 b 919 485 1028 466 978 485 l 822 485 b 667 427 760 485 709 466 b 606 274 626 389 606 338 z m 415 460 l 143 0 l 301 0 l 572 460 z m 750 263 b 771 339 750 294 757 319 b 836 368 785 358 806 368 l 904 368 b 972 339 937 368 959 358 b 992 263 985 319 992 294 l 992 200 b 972 128 992 170 985 146 b 904 100 959 109 937 100 l 836 100 b 771 128 806 100 785 109 b 750 200 757 146 750 170 z "},"&":{"ha":1192,"x_min":0,"x_max":0,"o":"m 971 0 l 1167 0 l 922 278 l 1178 599 l 993 599 l 825 389 l 497 761 b 477 791 488 771 481 781 b 471 824 473 801 471 812 b 492 876 471 845 478 862 b 553 896 506 889 526 896 l 971 896 l 971 1042 l 553 1042 b 375 980 475 1042 416 1021 b 314 836 334 939 314 891 b 329 753 314 807 319 780 b 382 669 339 726 357 698 l 436 608 l 368 608 b 150 540 276 608 204 585 b 69 347 96 494 69 430 l 69 260 b 142 66 69 175 94 110 b 358 0 190 22 262 0 l 515 0 b 683 27 586 0 641 9 b 807 133 724 45 765 81 l 829 161 z m 522 142 l 333 142 b 258 168 303 142 278 150 b 229 256 239 186 229 215 l 229 364 b 256 448 229 404 238 432 b 342 472 273 464 302 472 l 556 472 l 731 272 l 685 215 b 620 158 663 188 641 168 b 522 142 599 147 567 142 z "},"'":{"ha":361,"x_min":0,"x_max":0,"o":"m 208 653 l 264 1042 l 97 1042 l 97 653 z "},"(":{"ha":510,"x_min":0,"x_max":0,"o":"m 125 8 b 190 -177 125 -76 147 -138 b 365 -236 234 -216 292 -236 l 426 -236 l 426 -104 l 372 -104 b 299 -79 338 -104 314 -96 b 278 8 285 -62 278 -33 l 278 797 b 299 885 278 840 285 869 b 372 910 314 902 338 910 l 426 910 l 426 1042 l 365 1042 b 190 983 292 1042 234 1022 b 125 799 147 944 125 883 z "},")":{"ha":510,"x_min":0,"x_max":0,"o":"m 385 8 l 385 799 b 319 983 385 883 363 944 b 144 1042 276 1022 218 1042 l 83 1042 l 83 910 l 138 910 b 210 885 172 910 196 902 b 232 797 225 869 232 840 l 232 8 b 210 -79 232 -33 225 -62 b 138 -104 196 -96 172 -104 l 83 -104 l 83 -236 l 144 -236 b 319 -177 218 -236 276 -216 b 385 8 363 -138 385 -76 z "},"*":{"ha":726,"x_min":0,"x_max":0,"o":"m 488 525 l 579 586 l 463 740 l 643 740 l 643 846 l 463 846 l 579 1000 l 488 1061 l 364 878 l 240 1061 l 147 1000 l 264 846 l 83 846 l 83 740 l 265 740 l 147 586 l 240 525 l 364 708 z "},"+":{"ha":758,"x_min":0,"x_max":0,"o":"m 69 451 l 310 451 l 310 211 l 449 211 l 449 451 l 689 451 l 689 590 l 449 590 l 449 831 l 310 831 l 310 590 l 69 590 z "},",":{"ha":383,"x_min":0,"x_max":0,"o":"m 60 -181 l 210 -181 b 241 -90 223 -144 233 -113 b 258 -32 249 -67 255 -48 b 265 11 262 -16 264 -2 b 267 56 266 24 267 39 l 267 215 l 111 215 l 111 56 b 110 12 111 39 111 24 b 103 -31 109 -1 107 -15 b 88 -89 100 -46 95 -66 b 60 -181 81 -112 72 -143 z "},"-":{"ha":467,"x_min":0,"x_max":0,"o":"m 69 350 l 397 350 l 397 489 l 69 489 z "},".":{"ha":368,"x_min":0,"x_max":0,"o":"m 97 0 l 271 0 l 271 174 l 97 174 z "},"/":{"ha":458,"x_min":0,"x_max":0,"o":"m 292 1042 l 14 -153 l 167 -153 l 444 1042 z "},":":{"ha":368,"x_min":0,"x_max":0,"o":"m 97 0 l 271 0 l 271 174 l 97 174 z m 97 660 l 271 660 l 271 833 l 97 833 z "},";":{"ha":393,"x_min":0,"x_max":0,"o":"m 104 660 l 278 660 l 278 833 l 104 833 z m 63 -181 l 213 -181 b 244 -90 225 -144 236 -113 b 261 -32 252 -67 257 -48 b 268 11 265 -16 267 -2 b 269 56 269 24 269 39 l 269 215 l 114 215 l 114 56 b 113 12 114 39 113 24 b 106 -31 112 -1 109 -15 b 91 -89 103 -46 98 -66 b 63 -181 84 -112 75 -143 z "},"<":{"ha":640,"x_min":0,"x_max":0,"o":"m 515 358 l 250 522 l 515 685 l 515 856 l 163 622 b 113 575 139 607 123 592 b 97 528 102 558 97 543 l 97 515 b 113 468 97 500 102 485 b 163 421 123 451 139 436 l 515 188 z "},"=":{"ha":703,"x_min":0,"x_max":0,"o":"m 69 590 l 633 590 l 633 729 l 69 729 z m 69 313 l 633 313 l 633 451 l 69 451 z "},">":{"ha":640,"x_min":0,"x_max":0,"o":"m 478 421 b 528 468 501 436 518 451 b 543 515 538 485 543 500 l 543 528 b 528 575 543 543 538 558 b 478 622 518 592 501 607 l 125 856 l 125 685 l 390 522 l 125 358 l 125 188 z "},"?":{"ha":869,"x_min":0,"x_max":0,"o":"m 800 711 b 697 959 800 821 766 904 b 390 1042 628 1014 525 1042 l 69 1042 l 69 903 l 431 903 b 601 849 512 903 569 885 b 650 707 634 813 650 765 b 605 567 650 651 635 605 b 444 511 575 530 521 511 l 236 511 l 236 372 l 390 372 b 697 456 525 372 628 400 b 800 711 766 512 800 597 z m 236 0 l 410 0 l 410 174 l 236 174 z "},"@":{"ha":1240,"x_min":0,"x_max":0,"o":"m 114 851 l 692 851 b 906 782 788 851 859 828 b 976 583 953 736 976 669 l 976 128 l 803 128 l 803 660 l 410 660 b 179 582 301 660 225 634 b 111 383 134 530 111 464 l 111 272 b 201 62 111 173 141 103 b 465 0 262 21 350 0 l 1129 0 l 1129 572 b 1019 874 1129 698 1093 799 b 692 986 946 949 837 986 l 114 986 z m 406 128 b 295 161 353 128 316 139 b 264 268 274 183 264 219 l 264 397 b 295 503 264 446 274 481 b 406 535 316 524 353 535 l 650 535 l 650 128 z "},"A":{"ha":1194,"x_min":0,"x_max":0,"o":"m 1007 0 l 1181 0 l 783 904 b 716 1014 765 947 742 983 b 597 1060 690 1044 650 1060 b 478 1012 544 1060 504 1044 b 407 889 453 980 429 939 l 14 0 l 185 0 l 304 281 l 888 281 z m 554 869 b 574 903 562 887 568 898 b 596 911 580 909 588 911 b 618 902 604 911 612 908 b 638 868 625 896 631 885 l 825 428 l 367 428 z "},"B":{"ha":1083,"x_min":0,"x_max":0,"o":"m 596 1042 l 125 1042 l 125 0 l 607 0 b 905 53 738 0 837 18 b 1007 260 973 89 1007 158 l 1007 311 b 965 439 1007 356 993 399 b 824 531 938 479 890 509 b 947 613 884 550 925 578 b 981 733 969 649 981 689 l 981 782 b 881 988 981 884 947 953 b 596 1042 814 1024 719 1042 z m 650 903 b 776 874 708 903 750 893 b 814 785 801 854 814 825 l 814 719 b 776 622 814 676 801 643 b 647 589 751 600 708 589 l 285 589 l 285 903 z m 674 450 b 805 415 738 450 781 438 b 840 324 828 391 840 361 l 840 258 b 805 169 840 219 828 189 b 675 139 781 149 738 139 l 285 139 l 285 450 z "},"C":{"ha":1050,"x_min":0,"x_max":0,"o":"m 994 139 l 514 139 b 310 208 418 139 350 162 b 250 417 270 253 250 323 l 250 625 b 310 834 250 719 270 788 b 514 903 350 880 418 903 l 988 903 l 988 1042 l 535 1042 b 325 1010 453 1042 383 1031 b 183 918 267 988 219 958 b 102 774 146 878 119 830 b 76 586 85 718 76 656 l 76 456 b 102 267 76 386 85 323 b 183 124 119 211 146 163 b 325 32 219 84 267 53 b 535 0 383 11 453 0 l 994 0 z "},"D":{"ha":1132,"x_min":0,"x_max":0,"o":"m 597 1042 l 125 1042 l 125 0 l 590 0 b 959 115 753 0 876 38 b 1083 438 1042 192 1083 300 l 1083 604 b 957 926 1083 742 1041 850 b 597 1042 873 1003 753 1042 z m 618 903 b 834 843 712 903 784 883 b 910 643 884 803 910 737 l 910 400 b 833 199 910 306 884 240 b 611 139 781 159 707 139 l 285 139 l 285 903 z "},"E":{"ha":1053,"x_min":0,"x_max":0,"o":"m 125 0 l 960 0 l 960 139 l 285 139 l 285 460 l 960 460 l 960 599 l 285 599 l 285 903 l 960 903 l 960 1042 l 125 1042 z "},"F":{"ha":1025,"x_min":0,"x_max":0,"o":"m 125 0 l 285 0 l 285 460 l 960 460 l 960 599 l 285 599 l 285 903 l 960 903 l 960 1042 l 125 1042 z "},"G":{"ha":1153,"x_min":0,"x_max":0,"o":"m 1033 1042 l 535 1042 b 325 1010 453 1042 383 1031 b 183 918 267 988 219 958 b 102 774 146 878 119 830 b 76 586 85 718 76 656 l 76 438 b 103 249 76 368 85 305 b 185 106 120 193 148 145 b 326 14 222 66 269 35 b 528 -18 383 -7 450 -18 l 639 -18 b 839 -5 717 -18 783 -14 b 974 43 894 4 940 20 b 1051 140 1009 66 1035 99 b 1076 301 1068 182 1076 236 l 1076 585 l 594 585 l 594 446 l 917 446 l 917 276 b 863 153 917 216 899 175 b 660 121 826 132 759 121 l 507 121 b 308 190 413 121 347 144 b 250 400 269 237 250 306 l 250 625 b 310 834 250 719 270 788 b 514 903 350 880 418 903 l 1033 903 z "},"H":{"ha":1229,"x_min":0,"x_max":0,"o":"m 125 0 l 285 0 l 285 458 l 944 458 l 944 0 l 1104 0 l 1104 1042 l 944 1042 l 944 604 l 285 604 l 285 1042 l 125 1042 z "},"I":{"ha":438,"x_min":0,"x_max":0,"o":"m 139 0 l 299 0 l 299 1042 l 139 1042 z "},"J":{"ha":875,"x_min":0,"x_max":0,"o":"m 76 0 l 361 0 b 657 101 496 0 595 34 b 750 368 719 169 750 258 l 750 1042 l 590 1042 l 590 357 b 545 203 590 291 575 240 b 396 149 515 167 465 149 l 76 149 z "},"K":{"ha":1090,"x_min":0,"x_max":0,"o":"m 125 0 l 285 0 l 285 446 l 360 446 b 460 431 405 446 438 441 b 532 374 481 422 505 402 l 871 0 l 1076 0 l 601 532 l 1058 1042 l 863 1042 l 532 671 b 460 613 506 641 482 622 b 360 599 439 603 405 599 l 285 599 l 285 1042 l 125 1042 z "},"L":{"ha":932,"x_min":0,"x_max":0,"o":"m 125 0 l 904 0 l 904 139 l 285 139 l 285 1042 l 125 1042 z "},"M":{"ha":1585,"x_min":0,"x_max":0,"o":"m 63 0 l 225 0 l 372 882 b 383 911 374 896 378 906 b 403 919 389 917 395 919 b 422 911 411 919 418 917 b 435 879 427 906 431 895 l 603 161 b 660 34 615 111 634 69 b 788 -18 686 -1 728 -18 b 915 30 845 -18 887 -2 b 976 167 942 62 963 107 l 1146 881 b 1160 911 1150 895 1154 906 b 1181 919 1165 917 1172 919 b 1199 911 1188 919 1194 917 b 1208 882 1203 906 1206 896 l 1353 0 l 1522 0 l 1365 875 b 1306 1013 1354 936 1334 982 b 1178 1060 1278 1044 1235 1060 b 1050 1003 1123 1060 1081 1041 b 985 864 1019 966 998 919 l 813 147 b 804 119 810 135 807 126 b 788 110 801 113 796 110 b 772 120 780 110 775 113 b 763 149 768 127 765 137 l 593 864 b 531 1003 580 919 559 966 b 401 1060 503 1041 460 1060 b 281 1013 349 1060 308 1044 b 222 875 253 982 233 936 z "},"N":{"ha":1347,"x_min":0,"x_max":0,"o":"m 125 0 l 285 0 l 285 856 b 294 893 285 871 288 884 b 324 907 300 902 310 907 b 350 894 335 907 344 903 b 374 858 356 885 364 873 l 828 129 b 916 22 856 85 885 49 b 1039 -18 947 -5 988 -18 b 1176 38 1099 -18 1145 0 b 1222 185 1207 75 1222 124 l 1222 1042 l 1063 1042 l 1063 181 b 1053 147 1063 166 1059 154 b 1026 135 1046 139 1038 135 b 1001 147 1018 135 1010 139 b 976 179 993 156 985 166 l 532 897 b 436 1018 500 950 468 990 b 317 1060 405 1046 365 1060 b 169 998 248 1060 199 1039 b 125 847 140 957 125 906 z "},"O":{"ha":1208,"x_min":0,"x_max":0,"o":"m 1132 438 l 1132 604 b 1105 792 1132 674 1123 736 b 1022 936 1087 848 1059 896 b 880 1028 985 976 938 1006 b 674 1060 822 1049 753 1060 l 535 1060 b 328 1028 455 1060 386 1049 b 185 936 269 1006 222 976 b 103 792 148 896 120 848 b 76 604 85 736 76 674 l 76 438 b 103 251 76 369 85 307 b 185 108 120 195 148 147 b 328 16 222 68 269 38 b 535 -17 386 -6 455 -17 l 674 -17 b 880 16 753 -17 822 -6 b 1022 108 938 38 985 68 b 1105 251 1059 147 1087 195 b 1132 438 1123 307 1132 369 z m 250 400 l 250 643 b 311 852 250 737 270 806 b 514 921 352 898 419 921 l 694 921 b 898 852 790 921 858 898 b 958 643 938 806 958 737 l 958 400 b 898 192 958 307 938 238 b 694 122 858 145 790 122 l 514 122 b 311 192 419 122 352 145 b 250 400 270 238 250 307 z "},"P":{"ha":1092,"x_min":0,"x_max":0,"o":"m 1036 753 b 1005 894 1036 809 1026 856 b 921 983 984 931 956 961 b 799 1028 886 1004 845 1020 b 656 1042 753 1037 706 1042 l 125 1042 l 125 0 l 285 0 l 285 403 l 656 403 b 799 416 706 403 753 407 b 921 462 845 425 886 440 b 1005 551 956 484 984 513 b 1036 692 1026 588 1036 635 z m 869 689 b 828 578 869 639 856 602 b 681 542 801 554 752 542 l 285 542 l 285 903 l 681 903 b 828 867 752 903 801 891 b 869 756 856 843 869 806 z "},"Q":{"ha":1181,"x_min":0,"x_max":0,"o":"m 736 -208 l 924 -208 l 760 -12 b 1042 131 888 2 983 50 b 1132 438 1102 211 1132 313 l 1132 604 b 1105 792 1132 674 1123 736 b 1022 936 1087 848 1059 896 b 880 1028 985 976 938 1006 b 674 1060 822 1049 753 1060 l 535 1060 b 328 1028 455 1060 386 1049 b 185 936 269 1006 222 976 b 103 792 148 896 120 848 b 76 604 85 736 76 674 l 76 438 b 103 251 76 369 85 307 b 185 108 120 195 148 147 b 328 16 222 68 269 38 b 535 -17 386 -6 455 -17 l 576 -17 z m 250 400 l 250 643 b 311 852 250 737 270 806 b 514 921 352 898 419 921 l 694 921 b 898 852 790 921 858 898 b 958 643 938 806 958 737 l 958 400 b 898 192 958 307 938 238 b 694 122 858 145 790 122 l 514 122 b 311 192 419 122 352 145 b 250 400 270 238 250 307 z "},"R":{"ha":1115,"x_min":0,"x_max":0,"o":"m 1028 0 l 611 465 l 679 465 b 949 521 795 465 885 484 b 1046 735 1014 558 1046 629 l 1046 772 b 1019 903 1046 825 1037 869 b 943 986 1001 938 975 966 b 828 1029 911 1006 872 1021 b 686 1042 784 1038 737 1042 l 125 1042 l 125 0 l 285 0 l 285 903 l 721 903 b 847 876 781 903 823 894 b 882 775 870 859 882 825 l 882 732 b 847 629 882 682 870 648 b 721 601 823 611 781 601 l 481 601 b 423 585 457 601 438 596 b 393 547 408 575 398 562 b 394 496 388 531 389 514 b 422 446 399 477 408 461 l 833 0 z "},"S":{"ha":1003,"x_min":0,"x_max":0,"o":"m 611 428 b 745 369 677 410 722 391 b 781 272 769 347 781 315 b 738 175 781 231 766 199 b 604 139 710 151 665 139 l 90 139 l 90 0 l 589 0 b 853 78 707 0 796 26 b 940 286 911 131 940 200 b 866 466 940 363 916 423 b 654 569 816 509 746 544 l 390 644 b 260 701 327 662 284 681 b 225 786 237 722 225 750 b 263 868 225 818 238 845 b 401 903 289 891 335 903 l 906 903 l 906 1042 l 419 1042 b 151 969 299 1042 209 1017 b 63 779 92 920 63 857 b 137 600 63 701 87 642 b 347 500 186 558 256 525 z "},"T":{"ha":1035,"x_min":0,"x_max":0,"o":"m 438 0 l 597 0 l 597 903 l 1014 903 l 1014 1042 l 21 1042 l 21 903 l 438 903 z "},"U":{"ha":1222,"x_min":0,"x_max":0,"o":"m 514 -18 l 694 -18 b 1003 64 837 -18 940 9 b 1097 324 1066 119 1097 205 l 1097 1042 l 938 1042 l 938 313 b 887 168 938 248 921 200 b 738 121 853 137 803 121 l 488 121 b 334 168 418 121 367 137 b 285 313 301 200 285 248 l 285 1042 l 125 1042 l 125 324 b 218 64 125 205 156 119 b 514 -18 280 9 379 -18 z "},"V":{"ha":1125,"x_min":0,"x_max":0,"o":"m 228 1042 l 42 1042 l 376 135 b 442 26 392 92 414 56 b 567 -18 471 -3 512 -18 b 685 28 619 -18 659 -3 b 753 150 712 59 734 100 l 1083 1042 l 908 1042 l 601 190 b 583 156 595 173 589 161 b 561 149 577 151 569 149 b 540 158 553 149 546 152 b 522 192 534 164 528 175 z "},"W":{"ha":1711,"x_min":0,"x_max":0,"o":"m 215 1042 l 49 1042 l 294 167 b 360 30 311 107 333 62 b 486 -18 388 -2 430 -18 b 616 33 546 -18 590 -1 b 674 168 642 68 662 113 l 832 861 b 840 889 835 873 838 882 b 857 899 843 895 849 899 b 873 888 864 899 870 895 b 882 860 876 881 879 872 l 1038 168 b 1096 33 1050 113 1069 68 b 1228 -18 1123 -1 1167 -18 b 1351 31 1283 -18 1325 -2 b 1417 167 1378 63 1400 108 l 1663 1042 l 1497 1042 l 1258 178 b 1247 149 1255 165 1251 155 b 1229 140 1242 143 1237 140 b 1209 148 1220 140 1213 143 b 1197 179 1205 153 1201 163 l 1040 858 b 983 1002 1027 916 1008 964 b 857 1060 958 1041 916 1060 b 733 1005 800 1060 758 1041 b 675 861 708 968 689 920 l 515 176 b 504 147 512 162 508 152 b 486 140 500 143 494 140 b 467 149 478 140 471 143 b 454 178 462 155 458 165 z "},"X":{"ha":1124,"x_min":0,"x_max":0,"o":"m 642 383 l 906 0 l 1103 0 l 726 526 l 1089 1042 l 903 1042 l 642 660 b 603 610 625 637 612 620 b 561 594 595 600 581 594 b 519 610 542 594 528 600 b 481 660 510 620 497 637 l 218 1042 l 21 1042 l 397 514 l 35 0 l 222 0 l 481 383 b 518 433 496 406 509 423 b 561 449 527 444 542 449 b 603 433 581 449 595 444 b 642 383 612 423 625 406 z "},"Y":{"ha":1083,"x_min":0,"x_max":0,"o":"m 463 0 l 622 0 l 622 374 l 1069 1042 l 889 1042 l 568 550 b 542 536 563 541 554 536 b 517 550 531 536 522 541 l 204 1042 l 14 1042 l 463 372 z "},"Z":{"ha":979,"x_min":0,"x_max":0,"o":"m 913 0 l 913 139 l 283 139 b 240 151 266 139 251 143 b 222 190 228 160 222 173 b 236 231 222 206 227 219 b 282 271 245 242 261 255 l 792 651 b 892 746 837 685 870 716 b 924 854 913 775 924 812 b 867 992 924 913 905 958 b 683 1042 830 1025 769 1042 l 81 1042 l 81 903 l 683 903 b 738 890 707 903 726 899 b 757 851 751 882 757 869 b 744 810 757 835 753 821 b 703 772 736 800 722 787 l 226 408 b 100 293 172 367 130 328 b 56 176 70 258 56 219 b 108 50 56 125 73 83 b 278 0 142 17 199 0 z "},"[":{"ha":510,"x_min":0,"x_max":0,"o":"m 125 -236 l 426 -236 l 426 -104 l 278 -104 l 278 910 l 426 910 l 426 1042 l 125 1042 z "},"\\":{"ha":458,"x_min":0,"x_max":0,"o":"m 167 1042 l 14 1042 l 292 -153 l 444 -153 z "},"]":{"ha":510,"x_min":0,"x_max":0,"o":"m 385 -236 l 385 1042 l 83 1042 l 83 910 l 232 910 l 232 -104 l 83 -104 l 83 -236 z "},"^":{"ha":982,"x_min":0,"x_max":0,"o":"m 590 461 l 733 461 l 582 678 b 546 715 571 693 559 705 b 492 731 533 725 515 731 b 436 715 469 731 450 725 b 400 678 422 705 410 693 l 249 461 l 392 461 l 492 613 z "},"_":{"ha":536,"x_min":0,"x_max":0,"o":"m 0 -139 l 536 -139 l 536 0 l 0 0 z "},"`":{"ha":982,"x_min":0,"x_max":0,"o":"m 571 933 l 474 1194 l 326 1194 l 435 933 z "},"a":{"ha":949,"x_min":0,"x_max":0,"o":"m 838 532 b 759 751 838 624 811 697 b 522 833 707 806 628 833 l 79 833 l 79 701 l 607 701 l 256 436 b 119 319 197 393 152 353 b 69 199 86 284 69 244 b 137 49 69 131 92 81 b 324 0 182 16 244 0 l 838 0 z m 317 139 b 254 154 293 139 272 144 b 228 204 237 164 228 181 b 250 260 228 228 235 247 b 311 310 265 274 285 290 l 685 593 l 685 139 z "},"b":{"ha":1010,"x_min":0,"x_max":0,"o":"m 111 0 l 576 0 b 831 93 688 0 772 31 b 919 360 890 155 919 244 l 919 474 b 831 740 919 589 890 678 b 576 833 772 802 688 833 l 264 833 l 264 1042 l 111 1042 z m 563 701 b 715 653 635 701 686 685 b 760 493 745 622 760 568 l 760 339 b 715 180 760 265 745 212 b 563 132 686 148 635 132 l 264 132 l 264 701 z "},"c":{"ha":892,"x_min":0,"x_max":0,"o":"m 456 701 l 815 701 l 815 833 l 449 833 b 190 746 342 833 256 804 b 90 485 123 688 90 600 l 90 349 b 190 88 90 233 123 146 b 449 0 256 29 342 0 l 815 0 l 815 132 l 456 132 b 298 174 382 132 330 146 b 250 329 266 203 250 254 l 250 506 b 298 659 250 580 266 631 b 456 701 330 687 382 701 z "},"d":{"ha":1010,"x_min":0,"x_max":0,"o":"m 899 1042 l 746 1042 l 746 833 l 433 833 b 178 740 322 833 237 802 b 90 474 120 678 90 589 l 90 360 b 178 93 90 244 120 155 b 433 0 237 31 322 0 l 899 0 z m 447 132 b 294 180 375 132 324 148 b 250 340 265 212 250 265 l 250 494 b 294 653 250 569 265 622 b 447 701 324 685 375 701 l 746 701 l 746 132 z "},"e":{"ha":982,"x_min":0,"x_max":0,"o":"m 906 364 l 906 518 b 815 764 906 627 875 709 b 543 846 755 819 664 846 l 467 846 b 187 753 344 846 251 815 b 90 476 122 691 90 599 l 90 331 b 119 181 90 272 100 222 b 200 78 139 139 166 105 b 324 19 234 51 275 31 b 482 0 372 6 425 0 l 879 0 l 879 132 l 461 132 b 302 172 390 132 337 145 b 250 296 267 199 250 240 l 250 364 z m 563 714 b 708 673 635 714 683 700 b 746 539 733 646 746 601 l 746 490 l 250 490 l 250 497 b 295 667 250 579 265 635 b 446 714 325 698 375 714 z "},"f":{"ha":646,"x_min":0,"x_max":0,"o":"m 156 0 l 308 0 l 308 701 l 618 701 l 618 833 l 303 833 l 303 856 b 325 928 303 891 310 915 b 397 949 340 942 364 949 l 618 949 l 618 1069 l 410 1069 b 222 1013 328 1069 266 1051 b 156 833 178 976 156 916 l 21 833 l 21 701 l 156 701 z "},"g":{"ha":982,"x_min":0,"x_max":0,"o":"m 515 -208 b 783 -140 635 -208 724 -186 b 871 82 841 -95 871 -21 l 871 833 l 419 833 b 165 744 308 833 223 804 b 76 488 106 685 76 600 l 76 415 b 165 158 76 303 106 218 b 419 69 223 99 308 69 l 718 69 l 718 44 b 682 -49 718 1 706 -30 b 540 -76 658 -67 611 -76 l 135 -76 l 135 -208 z m 433 208 b 281 249 361 208 310 222 b 236 394 251 277 236 325 l 236 507 b 281 653 236 576 251 625 b 433 694 310 681 361 694 l 718 694 l 718 208 z "},"h":{"ha":993,"x_min":0,"x_max":0,"o":"m 111 0 l 264 0 l 264 694 l 592 694 b 697 664 641 694 676 684 b 729 551 719 644 729 606 l 729 0 l 882 0 l 882 535 b 810 757 882 632 858 706 b 581 833 763 808 686 833 l 264 833 l 264 1042 l 111 1042 z "},"i":{"ha":403,"x_min":0,"x_max":0,"o":"m 278 906 l 278 1042 l 125 1042 l 125 906 z m 125 0 l 278 0 l 278 833 l 125 833 z "},"j":{"ha":403,"x_min":0,"x_max":0,"o":"m 292 906 l 292 1042 l 139 1042 l 139 906 z m 139 833 l 139 3 b 122 -58 139 -26 133 -46 b 65 -76 110 -70 91 -76 l -32 -76 l -32 -208 l 47 -208 b 231 -156 129 -208 190 -191 b 292 14 271 -120 292 -64 l 292 833 z "},"k":{"ha":974,"x_min":0,"x_max":0,"o":"m 111 0 l 264 0 l 264 353 l 353 353 b 424 342 384 353 408 349 b 481 297 441 335 459 320 l 751 0 l 946 0 l 549 424 l 935 833 l 751 833 l 481 544 b 424 499 459 521 441 506 b 353 489 408 492 384 489 l 264 489 l 264 1042 l 111 1042 z "},"l":{"ha":403,"x_min":0,"x_max":0,"o":"m 125 1042 l 125 0 l 278 0 l 278 1042 z "},"m":{"ha":1486,"x_min":0,"x_max":0,"o":"m 111 0 l 264 0 l 264 694 l 667 694 l 667 0 l 819 0 l 819 694 l 1085 694 b 1190 665 1134 694 1169 685 b 1222 558 1212 646 1222 610 l 1222 0 l 1375 0 l 1375 551 b 1303 754 1375 634 1351 701 b 1075 833 1255 807 1179 833 l 111 833 z "},"n":{"ha":993,"x_min":0,"x_max":0,"o":"m 111 0 l 264 0 l 264 694 l 592 694 b 697 664 641 694 676 684 b 729 551 719 644 729 606 l 729 0 l 882 0 l 882 535 b 810 757 882 632 858 706 b 581 833 762 808 685 833 l 111 833 z "},"o":{"ha":1038,"x_min":0,"x_max":0,"o":"m 947 485 b 851 755 947 600 915 691 b 571 851 788 819 694 851 l 467 851 b 181 755 337 851 242 819 b 90 485 121 691 90 600 l 90 349 b 181 78 90 233 121 143 b 467 -18 242 14 337 -18 l 571 -18 b 851 78 694 -18 788 14 b 947 349 915 143 947 233 z m 788 506 l 788 328 b 745 165 788 254 773 200 b 590 114 717 131 665 114 l 446 114 b 295 165 375 114 325 131 b 250 328 265 200 250 254 l 250 506 b 295 668 250 580 265 634 b 446 719 325 702 375 719 l 590 719 b 745 668 665 719 717 702 b 788 506 773 634 788 580 z "},"p":{"ha":1024,"x_min":0,"x_max":0,"o":"m 125 -208 l 278 -208 l 278 0 l 590 0 b 844 93 700 0 785 31 b 933 360 904 155 933 244 l 933 474 b 844 740 933 589 904 678 b 590 833 785 802 700 833 l 125 833 z m 576 694 b 729 650 649 694 700 680 b 774 494 759 620 774 569 l 774 340 b 729 183 774 265 759 213 b 576 139 700 154 649 139 l 278 139 l 278 694 z "},"q":{"ha":1010,"x_min":0,"x_max":0,"o":"m 899 833 l 433 833 b 179 740 323 833 238 802 b 90 474 120 678 90 589 l 90 360 b 179 93 90 244 120 155 b 433 0 238 31 323 0 l 746 0 l 746 -208 l 899 -208 z m 447 139 b 294 183 375 139 324 154 b 250 340 265 213 250 265 l 250 494 b 294 650 250 569 265 620 b 447 694 324 680 375 694 l 746 694 l 746 139 z "},"r":{"ha":663,"x_min":0,"x_max":0,"o":"m 111 576 l 111 0 l 264 0 l 264 589 b 292 677 264 631 273 661 b 386 701 311 693 343 701 l 635 701 l 635 833 l 393 833 b 191 768 312 833 244 812 b 111 576 138 725 111 661 z "},"s":{"ha":871,"x_min":0,"x_max":0,"o":"m 515 332 b 631 292 571 320 609 307 b 663 229 652 278 663 257 b 632 159 663 200 652 177 b 514 132 612 141 572 132 l 76 132 l 76 0 l 478 0 b 736 66 597 0 683 22 b 815 240 789 110 815 168 b 744 395 815 310 791 361 b 543 472 696 429 629 455 l 342 514 b 246 551 295 523 263 535 b 219 613 228 566 219 587 b 244 675 219 637 228 657 b 340 701 261 693 293 701 l 788 701 l 788 833 l 368 833 b 139 770 266 833 190 812 b 63 604 88 728 63 673 b 128 453 63 539 84 489 b 311 375 172 418 233 392 z "},"t":{"ha":681,"x_min":0,"x_max":0,"o":"m 21 701 l 156 701 l 156 233 b 222 58 156 156 178 97 b 404 0 266 19 326 0 l 618 0 l 618 132 l 403 132 b 331 152 369 132 345 139 b 308 225 316 166 308 190 l 308 701 l 618 701 l 618 833 l 308 833 l 308 996 l 160 996 l 160 833 l 21 833 z "},"u":{"ha":993,"x_min":0,"x_max":0,"o":"m 882 833 l 729 833 l 729 139 l 401 139 b 296 169 352 139 317 149 b 264 282 275 190 264 227 l 264 833 l 111 833 l 111 299 b 183 76 111 201 135 127 b 413 0 231 25 308 0 l 882 0 z "},"v":{"ha":1004,"x_min":0,"x_max":0,"o":"m 204 833 l 28 833 l 350 106 b 408 19 365 70 384 41 b 503 -15 431 -4 463 -15 b 600 18 544 -15 577 -4 b 658 106 623 40 643 69 l 976 833 l 808 833 l 532 161 b 522 144 529 154 526 148 b 507 138 519 140 513 138 b 492 144 500 138 495 140 b 482 161 488 148 485 154 z "},"w":{"ha":1403,"x_min":0,"x_max":0,"o":"m 703 851 b 588 808 653 851 615 837 b 529 682 562 780 542 738 l 406 153 b 397 132 404 144 401 138 b 382 124 394 126 388 124 b 365 132 375 124 369 126 b 357 153 362 138 359 144 l 201 833 l 35 833 l 221 125 b 276 19 233 80 251 44 b 379 -18 301 -6 336 -18 b 490 22 429 -18 466 -5 b 543 132 514 48 532 85 l 674 685 b 683 708 675 694 678 702 b 703 717 687 714 694 717 b 719 708 709 717 715 714 b 729 685 723 703 726 695 l 860 132 b 912 22 871 85 888 48 b 1026 -18 935 -5 974 -18 b 1127 22 1068 -18 1102 -5 b 1182 125 1153 48 1171 82 l 1368 833 l 1206 833 l 1046 151 b 1038 131 1044 142 1041 135 b 1022 124 1035 126 1030 124 b 1006 132 1015 124 1009 126 b 997 151 1002 138 999 144 l 875 682 b 813 808 862 738 841 780 b 703 851 785 837 748 851 z "},"x":{"ha":960,"x_min":0,"x_max":0,"o":"m 506 313 l 747 0 l 939 0 l 599 419 l 935 833 l 747 833 l 506 526 b 480 513 498 517 490 513 b 454 526 470 513 462 517 l 213 833 l 25 833 l 361 419 l 21 0 l 213 0 l 454 313 b 480 326 462 322 470 326 b 506 313 490 326 498 322 z "},"y":{"ha":933,"x_min":0,"x_max":0,"o":"m 457 211 l 182 833 l 7 833 l 308 169 b 369 91 326 131 346 105 b 443 69 393 77 417 69 l 450 69 l 422 1 b 374 -59 411 -25 395 -45 b 275 -81 352 -73 319 -81 l 85 -81 l 85 -208 l 276 -208 b 456 -167 351 -208 411 -195 b 569 -18 501 -140 539 -90 l 926 833 l 758 833 l 508 211 b 497 196 506 205 502 200 b 483 190 493 192 488 190 b 469 196 479 190 474 192 b 457 211 465 200 461 205 z "},"z":{"ha":900,"x_min":0,"x_max":0,"o":"m 825 0 l 825 132 l 260 132 b 235 138 250 132 241 134 b 225 157 228 141 225 148 b 231 174 225 163 227 169 b 246 189 234 178 239 183 l 681 517 b 778 609 726 551 759 582 b 808 693 798 636 808 664 b 753 802 808 745 790 781 b 604 833 716 823 666 833 l 86 833 l 86 701 l 606 701 b 633 694 618 701 627 699 b 642 674 639 690 642 683 b 637 655 642 666 640 660 b 622 640 634 650 629 645 l 165 300 b 82 219 125 270 98 244 b 58 136 66 195 58 168 b 103 39 58 97 73 65 b 242 0 134 13 180 0 z "},"{":{"ha":507,"x_min":0,"x_max":0,"o":"m 222 406 b 306 453 261 412 289 428 b 331 561 322 478 331 514 l 331 797 b 352 885 331 840 338 869 b 425 910 366 902 391 910 l 479 910 l 479 1042 l 418 1042 b 243 983 345 1042 287 1022 b 178 799 200 944 178 883 l 178 567 b 159 497 178 535 172 512 b 97 475 147 482 126 475 l 56 475 l 56 331 l 97 331 b 159 308 126 331 147 323 b 178 239 172 294 178 270 l 178 7 b 243 -178 178 -77 200 -139 b 418 -236 287 -217 345 -236 l 479 -236 l 479 -104 l 425 -104 b 352 -80 391 -104 366 -96 b 331 8 338 -64 331 -34 l 331 244 b 306 353 331 292 322 328 b 222 400 289 378 261 394 z "},"|":{"ha":431,"x_min":0,"x_max":0,"o":"m 139 1042 l 139 -153 l 292 -153 l 292 1042 z "},"}":{"ha":507,"x_min":0,"x_max":0,"o":"m 285 406 l 285 400 b 201 353 246 394 218 378 b 176 244 185 328 176 292 l 176 8 b 155 -80 176 -34 169 -64 b 82 -104 141 -96 116 -104 l 28 -104 l 28 -236 l 89 -236 b 264 -178 162 -236 220 -217 b 329 7 307 -139 329 -77 l 329 239 b 348 308 329 270 335 294 b 410 331 360 323 381 331 l 451 331 l 451 475 l 410 475 b 348 497 381 475 360 482 b 329 567 335 512 329 535 l 329 799 b 264 983 329 883 307 944 b 89 1042 220 1022 162 1042 l 28 1042 l 28 910 l 82 910 b 155 885 116 910 141 902 b 176 797 169 869 176 840 l 176 561 b 201 453 176 514 185 478 b 285 406 218 428 246 412 z "},"~":{"ha":1194,"x_min":0,"x_max":0,"o":"m 674 569 l 626 618 b 554 678 600 645 576 665 b 474 697 532 691 505 697 b 372 657 431 697 397 684 b 335 542 347 630 335 592 l 335 433 l 456 433 l 456 546 b 463 572 456 558 458 567 b 482 581 468 578 475 581 b 501 574 489 581 496 578 b 524 553 507 569 514 562 l 571 504 b 643 444 597 477 621 457 b 724 425 665 431 692 425 b 826 467 768 425 802 439 b 863 583 850 496 863 534 l 863 689 l 742 689 l 742 576 b 735 550 742 564 739 556 b 717 542 730 544 724 542 b 696 549 708 542 701 544 b 674 569 690 553 683 560 z "},"¡":{"ha":369,"x_min":0,"x_max":0,"o":"m 271 833 l 97 833 l 97 660 l 271 660 z m 272 -208 l 254 556 l 115 556 l 97 -208 z "},"¢":{"ha":961,"x_min":0,"x_max":0,"o":"m 492 -208 l 631 -208 l 631 0 l 885 0 l 885 132 l 631 132 l 631 701 l 885 701 l 885 833 l 631 833 l 631 1042 l 492 1042 l 492 833 l 435 833 b 176 746 328 833 242 804 b 76 485 109 688 76 600 l 76 349 b 176 88 76 233 109 146 b 435 0 242 29 328 0 l 492 0 z m 442 701 l 492 701 l 492 132 l 442 132 b 284 174 369 132 316 146 b 236 329 252 203 236 254 l 236 506 b 284 659 236 580 252 631 b 442 701 316 687 369 701 z "},"£":{"ha":1050,"x_min":0,"x_max":0,"o":"m 42 0 l 994 0 l 994 139 l 417 139 l 417 451 l 994 451 l 994 590 l 417 590 l 417 625 b 476 834 417 719 437 788 b 681 903 516 880 584 903 l 994 903 l 994 1042 l 701 1042 b 492 1010 620 1042 550 1031 b 351 919 434 988 387 958 b 269 777 314 881 287 833 b 243 590 252 721 243 659 l 42 590 l 42 451 l 243 451 l 243 139 l 42 139 z "},"¤":{"ha":956,"x_min":0,"x_max":0,"o":"m 478 122 b 585 138 515 122 550 128 b 679 183 619 149 650 164 l 811 49 l 881 119 l 749 250 b 797 338 769 276 785 305 b 814 443 808 371 814 406 b 796 549 814 480 808 516 b 747 640 784 583 768 613 l 881 771 l 811 842 l 678 706 b 584 751 649 725 618 740 b 478 767 550 761 515 767 b 372 751 441 767 405 761 b 279 704 338 740 307 725 l 144 842 l 75 772 l 210 639 b 161 549 189 613 173 583 b 143 443 149 516 143 480 b 160 338 143 406 149 371 b 208 250 172 305 188 276 l 75 118 l 144 49 l 278 185 b 371 138 306 164 337 149 b 478 122 405 128 441 122 z m 478 257 b 406 272 454 257 430 262 b 344 313 383 282 362 296 b 301 373 327 330 313 350 b 285 443 290 396 285 419 b 301 515 285 468 290 492 b 344 576 313 538 327 559 b 406 617 362 593 383 606 b 478 632 430 627 454 632 b 550 617 503 632 527 627 b 612 576 573 606 594 593 b 655 515 630 559 644 538 b 671 443 666 492 671 468 b 655 373 671 419 666 396 b 612 313 644 350 630 330 b 550 272 594 296 573 282 b 478 257 527 262 503 257 z "},"¥":{"ha":1083,"x_min":0,"x_max":0,"o":"m 86 132 l 463 132 l 463 0 l 622 0 l 622 132 l 999 132 l 999 271 l 622 271 l 622 368 l 999 368 l 999 507 l 711 507 l 1069 1042 l 889 1042 l 568 550 b 542 536 563 541 554 536 b 517 550 531 536 522 541 l 204 1042 l 14 1042 l 372 507 l 86 507 l 86 368 l 463 368 l 463 271 l 86 271 z "},"¦":{"ha":431,"x_min":0,"x_max":0,"o":"m 139 610 l 292 610 l 292 1042 l 139 1042 z m 292 -153 l 292 279 l 139 279 l 139 -153 z "},"§":{"ha":946,"x_min":0,"x_max":0,"o":"m 863 38 b 844 134 863 75 856 107 b 790 206 831 161 813 185 b 876 285 828 226 857 252 b 904 396 895 317 904 354 b 838 558 904 465 882 519 b 656 639 793 597 732 624 l 356 696 b 262 739 310 705 279 719 b 236 807 245 758 236 781 b 267 881 236 838 246 862 b 385 910 287 900 326 910 l 878 910 l 878 1042 l 421 1042 b 163 976 301 1042 215 1020 b 83 801 110 932 83 874 b 102 702 83 764 90 731 b 156 628 115 673 132 648 b 70 550 118 608 89 582 b 42 438 51 518 42 480 b 108 275 42 368 64 314 b 290 194 153 236 213 209 l 590 138 b 684 94 636 128 667 114 b 710 26 701 75 710 52 b 682 -48 710 -4 700 -29 b 575 -76 663 -67 628 -76 l 68 -76 l 68 -208 l 525 -208 b 783 -140 644 -208 731 -186 b 863 38 836 -95 863 -36 z m 619 278 l 321 333 b 225 374 275 342 243 355 b 199 446 207 393 199 417 b 224 522 199 475 207 500 b 300 561 240 544 266 557 b 313 558 304 560 308 559 l 326 556 l 625 500 b 721 459 671 492 703 478 b 747 388 738 440 747 416 b 723 311 747 359 739 333 b 647 272 707 289 681 276 l 633 275 z "},"¨":{"ha":708,"x_min":0,"x_max":0,"o":"m 299 961 l 299 1108 l 146 1108 l 146 961 z m 563 961 l 563 1108 l 410 1108 l 410 961 z "},"©":{"ha":1292,"x_min":0,"x_max":0,"o":"m 1215 438 l 1215 604 b 1188 792 1215 674 1206 736 b 1106 936 1170 848 1143 896 b 963 1028 1069 976 1021 1006 b 757 1060 905 1049 837 1060 l 535 1060 b 328 1028 455 1060 386 1049 b 185 936 269 1006 222 976 b 103 792 148 896 120 848 b 76 604 85 736 76 674 l 76 438 b 103 251 76 369 85 307 b 185 108 120 195 148 147 b 328 16 222 68 269 38 b 535 -17 386 -6 455 -17 l 757 -17 b 963 16 837 -17 905 -6 b 1106 108 1021 38 1069 68 b 1188 251 1143 147 1170 195 b 1215 438 1206 307 1215 369 z m 224 396 l 224 647 b 294 863 224 744 247 815 b 510 933 341 910 413 933 l 782 933 b 999 863 880 933 952 910 b 1068 647 1045 815 1068 744 l 1068 396 b 999 181 1068 300 1045 229 b 782 110 952 134 880 110 l 510 110 b 294 181 413 110 341 134 b 224 396 247 229 224 300 z m 649 696 l 878 696 l 878 819 l 615 819 b 431 756 539 819 478 798 b 360 571 383 714 360 652 l 360 472 b 431 285 360 390 383 328 b 615 222 478 243 539 222 l 878 222 l 878 346 l 649 346 b 535 376 596 346 558 356 b 501 488 513 397 501 434 l 501 557 b 535 666 501 610 513 646 b 649 696 558 686 596 696 z "},"ª":{"ha":517,"x_min":0,"x_max":0,"o":"m 474 839 b 419 987 474 902 456 951 b 243 1040 383 1022 325 1040 l 35 1040 l 35 938 l 278 938 l 143 836 b 62 771 112 813 84 791 b 28 690 39 750 28 724 b 65 611 28 657 40 631 b 169 582 89 592 124 582 l 474 582 z m 154 696 l 347 851 l 347 696 z "},"«":{"ha":1057,"x_min":0,"x_max":0,"o":"m 515 358 l 250 522 l 515 685 l 515 856 l 163 622 b 113 575 139 607 123 592 b 97 528 102 558 97 543 l 97 515 b 113 468 97 500 102 485 b 163 421 123 451 139 436 l 515 188 z m 932 358 l 667 522 l 932 685 l 932 856 l 579 622 b 529 575 556 607 539 592 b 514 528 519 558 514 543 l 514 515 b 529 468 514 500 519 485 b 579 421 539 451 556 436 l 932 188 z "},"®":{"ha":989,"x_min":0,"x_max":0,"o":"m 913 600 l 913 725 b 832 969 913 827 886 908 b 576 1060 778 1029 693 1060 l 413 1060 b 157 969 296 1060 211 1029 b 76 725 103 908 76 827 l 76 600 b 157 360 76 501 103 421 b 413 269 211 300 296 269 l 576 269 b 832 360 693 269 778 300 b 913 600 886 421 913 501 z m 183 572 l 183 757 b 235 915 183 827 200 880 b 394 968 269 950 322 968 l 594 968 b 754 915 667 968 720 950 b 806 757 788 880 806 827 l 806 572 b 754 414 806 502 788 449 b 594 361 720 379 667 361 l 394 361 b 235 414 322 361 269 379 b 183 572 200 449 183 502 z m 689 443 l 551 625 l 553 625 b 667 651 601 625 639 634 b 708 756 694 669 708 704 l 708 771 b 664 862 708 816 694 847 b 556 885 634 877 598 885 l 296 885 l 296 443 l 394 443 l 394 800 l 539 800 b 593 791 565 800 583 797 b 608 756 603 785 608 773 l 608 747 b 593 713 608 730 603 718 b 539 704 583 707 565 704 l 482 704 b 430 674 453 704 436 694 b 439 621 424 653 427 636 l 567 443 z "},"¯":{"ha":708,"x_min":0,"x_max":0,"o":"m 521 947 l 521 1056 l 188 1056 l 188 947 z "},"°":{"ha":600,"x_min":0,"x_max":0,"o":"m 69 811 b 124 678 69 756 88 712 b 260 626 160 644 205 626 l 340 626 b 475 678 393 626 438 644 b 531 811 512 712 531 756 l 531 881 b 475 1013 531 936 512 980 b 340 1063 438 1046 393 1063 l 260 1063 b 124 1013 205 1063 160 1046 b 69 881 88 980 69 936 z m 201 868 b 219 931 201 894 207 915 b 271 954 231 946 249 954 l 329 954 b 385 931 357 954 375 946 b 399 868 394 915 399 894 l 399 817 b 385 758 399 793 394 773 b 329 735 375 742 357 735 l 271 735 b 219 758 249 735 231 742 b 201 817 207 773 201 793 z "},"±":{"ha":758,"x_min":0,"x_max":0,"o":"m 69 569 l 310 569 l 310 371 l 449 371 l 449 569 l 689 569 l 689 708 l 449 708 l 449 907 l 310 907 l 310 708 l 69 708 z m 111 139 l 647 139 l 647 278 l 111 278 z "},"²":{"ha":421,"x_min":0,"x_max":0,"o":"m 396 682 l 156 682 l 156 693 b 161 713 156 700 157 707 b 188 732 165 718 174 725 l 264 774 b 366 840 308 798 342 820 b 401 929 390 859 401 889 b 362 1011 401 963 388 991 b 239 1042 335 1031 294 1042 l 26 1042 l 26 940 l 228 940 b 258 935 240 940 250 938 b 269 913 266 931 269 924 b 263 895 269 906 267 900 b 243 881 259 890 252 885 l 156 836 b 46 756 102 807 65 781 b 17 657 26 731 17 698 l 17 582 l 396 582 z "},"³":{"ha":433,"x_min":0,"x_max":0,"o":"m 132 861 b 103 838 120 853 110 845 b 92 808 95 830 92 820 b 104 776 92 795 96 784 b 142 763 113 767 125 763 l 250 763 b 273 757 259 763 267 761 b 282 732 279 753 282 745 l 282 718 b 274 691 282 704 279 695 b 249 685 268 687 260 685 l 36 685 l 36 582 l 233 582 b 366 613 292 582 336 592 b 411 703 396 633 411 663 l 411 747 b 378 817 411 773 400 796 b 258 847 357 837 317 847 l 411 958 l 411 1042 l 26 1042 l 26 939 l 235 939 z "},"´":{"ha":982,"x_min":0,"x_max":0,"o":"m 414 933 l 550 933 l 658 1194 l 511 1194 z "},"¶":{"ha":1160,"x_min":0,"x_max":0,"o":"m 56 753 l 56 692 b 87 551 56 635 66 588 b 171 462 108 513 136 484 b 292 416 206 440 247 425 b 436 403 338 407 386 403 l 613 403 l 613 -208 l 772 -208 l 772 1042 l 436 1042 b 292 1028 386 1042 338 1037 b 171 983 247 1020 206 1004 b 87 894 136 961 108 931 b 56 753 66 856 56 809 z m 875 -208 l 1035 -208 l 1035 1042 l 875 1042 z "},"·":{"ha":424,"x_min":0,"x_max":0,"o":"m 181 329 l 354 329 l 354 503 l 181 503 z "},"¸":{"ha":885,"x_min":0,"x_max":0,"o":"m 511 0 l 375 0 l 267 -261 l 414 -261 z "},"¹":{"ha":388,"x_min":0,"x_max":0,"o":"m 17 582 l 371 582 l 371 679 l 258 679 l 258 926 b 225 1008 258 959 247 986 b 140 1042 203 1031 175 1042 l 17 1042 l 17 938 l 113 938 b 126 932 118 938 122 936 b 131 917 129 928 131 923 l 131 679 l 17 679 z "},"º":{"ha":556,"x_min":0,"x_max":0,"o":"m 525 840 b 468 992 525 904 506 955 b 306 1049 430 1030 376 1049 l 251 1049 b 88 992 180 1049 125 1030 b 31 840 50 955 31 904 l 31 782 b 88 630 31 718 50 667 b 251 574 125 592 180 574 l 306 574 b 468 630 376 574 430 592 b 525 782 506 667 525 718 z m 388 853 l 388 771 b 370 699 388 738 382 715 b 306 676 359 684 337 676 l 250 676 b 186 699 219 676 198 684 b 168 771 174 715 168 738 l 168 853 b 186 923 168 884 174 908 b 250 946 198 938 219 946 l 306 946 b 370 923 337 946 359 938 b 388 853 382 908 388 884 z "},"»":{"ha":1057,"x_min":0,"x_max":0,"o":"m 894 421 b 944 468 918 436 934 451 b 960 515 955 485 960 500 l 960 528 b 944 575 960 543 955 558 b 894 622 934 592 918 607 l 542 856 l 542 685 l 807 522 l 542 358 l 542 188 z m 478 421 b 528 468 501 436 518 451 b 543 515 538 485 543 500 l 543 528 b 528 575 543 543 538 558 b 478 622 518 592 501 607 l 125 856 l 125 685 l 390 522 l 125 358 l 125 188 z "},"¼":{"ha":1167,"x_min":0,"x_max":0,"o":"m 797 582 l 1014 1042 l 863 1042 l 647 582 z m 139 582 l 493 582 l 493 679 l 381 679 l 381 926 b 347 1008 381 959 369 986 b 263 1042 325 1031 297 1042 l 139 1042 l 139 938 l 235 938 b 248 932 240 938 245 936 b 253 917 251 928 253 923 l 253 679 l 139 679 z m 665 68 l 832 68 l 832 0 l 957 0 l 957 68 l 1028 68 l 1028 165 l 957 165 l 957 353 b 927 438 957 392 947 420 b 854 465 907 456 883 465 l 836 465 b 767 445 811 465 788 459 b 708 392 745 432 726 414 l 603 258 b 563 199 584 235 571 216 b 551 151 555 183 551 167 b 579 92 551 127 561 107 b 665 68 598 76 626 68 z m 390 460 l 174 0 l 325 0 l 540 460 z m 704 165 b 691 169 698 165 693 166 b 688 176 689 171 688 174 b 689 183 688 178 688 180 b 693 189 690 185 691 187 l 811 346 b 817 350 813 348 815 349 b 822 351 819 351 820 351 b 829 349 825 351 827 351 b 832 342 831 348 832 345 l 832 165 z "},"½":{"ha":1167,"x_min":0,"x_max":0,"o":"m 797 582 l 1014 1042 l 863 1042 l 647 582 z m 139 582 l 493 582 l 493 679 l 381 679 l 381 926 b 347 1008 381 959 369 986 b 263 1042 325 1031 297 1042 l 139 1042 l 139 938 l 235 938 b 248 932 240 938 245 936 b 253 917 251 928 253 923 l 253 679 l 139 679 z m 390 460 l 174 0 l 325 0 l 540 460 z m 1022 100 l 782 100 l 782 111 b 788 131 782 119 784 125 b 814 150 791 136 800 143 l 890 192 b 992 258 935 216 969 238 b 1028 347 1016 278 1028 307 b 988 429 1028 381 1015 409 b 865 460 962 450 921 460 l 653 460 l 653 358 l 854 358 b 884 353 866 358 876 356 b 896 331 892 349 896 342 b 890 313 896 324 894 318 b 869 299 885 308 879 303 l 782 254 b 672 174 728 225 692 199 b 643 75 653 149 643 116 l 643 0 l 1022 0 z "},"¿":{"ha":869,"x_min":0,"x_max":0,"o":"m 633 833 l 460 833 l 460 660 l 633 660 z m 69 122 b 173 -126 69 12 104 -71 b 479 -208 242 -181 344 -208 l 800 -208 l 800 -69 l 439 -69 b 268 -15 357 -69 300 -51 b 219 126 236 21 219 68 b 265 266 219 182 234 228 b 425 322 295 303 348 322 l 633 322 l 633 461 l 479 461 b 173 377 344 461 242 433 b 69 122 104 321 69 236 z "},"À":{"ha":1194,"x_min":0,"x_max":0,"o":"m 1007 0 l 1181 0 l 783 904 b 716 1014 765 947 742 983 b 597 1060 690 1044 650 1060 b 478 1012 544 1060 504 1044 b 407 889 453 980 429 939 l 14 0 l 185 0 l 304 281 l 888 281 z m 554 869 b 574 903 562 887 568 898 b 596 911 580 909 588 911 b 618 902 604 911 612 908 b 638 868 625 896 631 885 l 825 428 l 367 428 z m 678 1142 l 581 1403 l 433 1403 l 542 1142 z "},"Á":{"ha":1194,"x_min":0,"x_max":0,"o":"m 1007 0 l 1181 0 l 783 904 b 716 1014 765 947 742 983 b 597 1060 690 1044 650 1060 b 478 1012 544 1060 504 1044 b 407 889 453 980 429 939 l 14 0 l 185 0 l 304 281 l 888 281 z m 554 869 b 574 903 562 887 568 898 b 596 911 580 909 588 911 b 618 902 604 911 612 908 b 638 868 625 896 631 885 l 825 428 l 367 428 z m 536 1142 l 672 1142 l 781 1403 l 633 1403 z "},"Â":{"ha":1194,"x_min":0,"x_max":0,"o":"m 1007 0 l 1181 0 l 783 904 b 716 1014 765 947 742 983 b 597 1060 690 1044 650 1060 b 478 1012 544 1060 504 1044 b 407 889 453 980 429 939 l 14 0 l 185 0 l 304 281 l 888 281 z m 554 869 b 574 903 562 887 568 898 b 596 911 580 909 588 911 b 618 902 604 911 612 908 b 638 868 625 896 631 885 l 825 428 l 367 428 z m 696 1142 l 839 1142 l 688 1358 b 651 1396 676 1373 664 1386 b 597 1411 638 1406 620 1411 b 542 1396 574 1411 556 1406 b 506 1358 528 1386 516 1373 l 354 1142 l 497 1142 l 597 1293 z "},"Ã":{"ha":1194,"x_min":0,"x_max":0,"o":"m 1007 0 l 1181 0 l 783 904 b 716 1014 765 947 742 983 b 597 1060 690 1044 650 1060 b 478 1012 544 1060 504 1044 b 407 889 453 980 429 939 l 14 0 l 185 0 l 304 281 l 888 281 z m 554 869 b 574 903 562 887 568 898 b 596 911 580 909 588 911 b 618 902 604 911 612 908 b 638 868 625 896 631 885 l 825 428 l 367 428 z m 674 1278 l 626 1326 b 554 1386 600 1353 576 1373 b 474 1406 532 1399 505 1406 b 372 1365 431 1406 397 1392 b 335 1250 347 1338 335 1300 l 335 1142 l 456 1142 l 456 1254 b 463 1281 456 1266 458 1275 b 482 1289 468 1286 475 1289 b 501 1282 489 1289 496 1287 b 524 1261 507 1277 514 1270 l 571 1213 b 643 1153 597 1186 621 1166 b 724 1133 665 1140 692 1133 b 826 1176 768 1133 802 1147 b 863 1292 850 1204 863 1243 l 863 1397 l 742 1397 l 742 1285 b 735 1258 742 1273 739 1264 b 717 1250 730 1253 724 1250 b 696 1257 708 1250 701 1252 b 674 1278 690 1262 683 1269 z "},"Ä":{"ha":1194,"x_min":0,"x_max":0,"o":"m 1007 0 l 1181 0 l 783 904 b 716 1014 765 947 742 983 b 597 1060 690 1044 650 1060 b 478 1012 544 1060 504 1044 b 407 889 453 980 429 939 l 14 0 l 185 0 l 304 281 l 888 281 z m 554 869 b 574 903 562 887 568 898 b 596 911 580 909 588 911 b 618 902 604 911 612 908 b 638 868 625 896 631 885 l 825 428 l 367 428 z m 542 1169 l 542 1317 l 389 1317 l 389 1169 z m 806 1169 l 806 1317 l 653 1317 l 653 1169 z "},"Å":{"ha":1194,"x_min":0,"x_max":0,"o":"m 1007 0 l 1181 0 l 783 904 b 716 1014 765 947 742 983 b 597 1060 690 1044 650 1060 b 478 1012 544 1060 504 1044 b 407 889 453 980 429 939 l 14 0 l 185 0 l 304 281 l 888 281 z m 554 869 b 574 903 562 887 568 898 b 596 911 580 909 588 911 b 618 902 604 911 612 908 b 638 868 625 896 631 885 l 825 428 l 367 428 z m 449 1256 b 484 1168 449 1219 460 1190 b 571 1135 508 1146 537 1135 l 625 1135 b 712 1168 659 1135 688 1146 b 747 1256 735 1190 747 1219 l 747 1289 b 712 1376 747 1325 735 1354 b 625 1410 688 1399 659 1410 l 571 1410 b 484 1376 537 1410 508 1399 b 449 1289 460 1354 449 1325 z m 532 1286 b 546 1324 532 1302 537 1315 b 581 1339 555 1334 567 1339 l 615 1339 b 651 1324 629 1339 641 1334 b 665 1286 660 1315 665 1302 l 665 1258 b 651 1220 665 1243 660 1230 b 615 1206 641 1210 629 1206 l 581 1206 b 546 1220 567 1206 555 1210 b 532 1258 537 1230 532 1243 z "},"Æ":{"ha":1782,"x_min":0,"x_max":0,"o":"m 854 0 l 1689 0 l 1689 139 l 1014 139 l 1014 460 l 1689 460 l 1689 599 l 1014 599 l 1014 903 l 1689 903 l 1689 1042 l 854 1042 z m 14 0 l 193 0 l 338 279 l 854 279 l 854 0 l 1014 0 l 1014 1042 l 785 1042 b 580 982 697 1042 628 1022 b 447 810 531 942 487 885 z m 586 757 b 669 870 615 811 643 848 b 789 903 696 892 736 903 l 854 903 l 854 421 l 411 421 z "},"Ç":{"ha":1050,"x_min":0,"x_max":0,"o":"m 994 139 l 514 139 b 310 208 418 139 350 162 b 250 417 270 253 250 323 l 250 625 b 310 834 250 719 270 788 b 514 903 350 880 418 903 l 988 903 l 988 1042 l 535 1042 b 325 1010 453 1042 383 1031 b 183 918 267 988 219 958 b 102 774 146 878 119 830 b 76 586 85 718 76 656 l 76 456 b 102 267 76 386 85 323 b 183 124 119 211 146 163 b 325 32 219 84 267 53 b 535 0 383 11 453 0 l 994 0 z m 708 0 l 572 0 l 464 -261 l 611 -261 z "},"È":{"ha":1053,"x_min":0,"x_max":0,"o":"m 125 0 l 960 0 l 960 139 l 285 139 l 285 460 l 960 460 l 960 599 l 285 599 l 285 903 l 960 903 l 960 1042 l 125 1042 z m 642 1142 l 544 1403 l 397 1403 l 506 1142 z "},"É":{"ha":1053,"x_min":0,"x_max":0,"o":"m 125 0 l 960 0 l 960 139 l 285 139 l 285 460 l 960 460 l 960 599 l 285 599 l 285 903 l 960 903 l 960 1042 l 125 1042 z m 500 1142 l 636 1142 l 744 1403 l 597 1403 z "},"Ê":{"ha":1053,"x_min":0,"x_max":0,"o":"m 125 0 l 960 0 l 960 139 l 285 139 l 285 460 l 960 460 l 960 599 l 285 599 l 285 903 l 960 903 l 960 1042 l 125 1042 z m 660 1142 l 803 1142 l 651 1358 b 615 1396 640 1373 628 1386 b 561 1411 602 1406 584 1411 b 506 1396 538 1411 519 1406 b 469 1358 492 1386 480 1373 l 318 1142 l 461 1142 l 561 1293 z "},"Ë":{"ha":1053,"x_min":0,"x_max":0,"o":"m 125 0 l 960 0 l 960 139 l 285 139 l 285 460 l 960 460 l 960 599 l 285 599 l 285 903 l 960 903 l 960 1042 l 125 1042 z m 506 1169 l 506 1317 l 353 1317 l 353 1169 z m 769 1169 l 769 1317 l 617 1317 l 617 1169 z "},"Ì":{"ha":438,"x_min":0,"x_max":0,"o":"m 139 0 l 299 0 l 299 1042 l 139 1042 z m 299 1142 l 201 1403 l 54 1403 l 163 1142 z "},"Í":{"ha":438,"x_min":0,"x_max":0,"o":"m 139 0 l 299 0 l 299 1042 l 139 1042 z m 157 1142 l 293 1142 l 401 1403 l 254 1403 z "},"Î":{"ha":438,"x_min":0,"x_max":0,"o":"m 139 0 l 299 0 l 299 1042 l 139 1042 z m 317 1142 l 460 1142 l 308 1358 b 272 1396 297 1373 285 1386 b 218 1411 259 1406 241 1411 b 163 1396 195 1411 176 1406 b 126 1358 149 1386 137 1373 l -25 1142 l 118 1142 l 218 1293 z "},"Ï":{"ha":438,"x_min":0,"x_max":0,"o":"m 139 0 l 299 0 l 299 1042 l 139 1042 z m 163 1169 l 163 1317 l 10 1317 l 10 1169 z m 426 1169 l 426 1317 l 274 1317 l 274 1169 z "},"Ð":{"ha":1132,"x_min":0,"x_max":0,"o":"m 21 464 l 125 464 l 125 0 l 590 0 b 959 115 753 0 876 38 b 1083 438 1042 192 1083 300 l 1083 604 b 957 926 1083 742 1041 850 b 597 1042 873 1003 753 1042 l 125 1042 l 125 596 l 21 596 z m 618 903 b 834 843 712 903 784 883 b 910 643 884 803 910 737 l 910 400 b 833 199 910 306 884 240 b 611 139 781 159 707 139 l 285 139 l 285 464 l 625 464 l 625 596 l 285 596 l 285 903 z "},"Ñ":{"ha":1347,"x_min":0,"x_max":0,"o":"m 125 0 l 285 0 l 285 856 b 294 893 285 871 288 884 b 324 907 300 902 310 907 b 350 894 335 907 344 903 b 374 858 356 885 364 873 l 828 129 b 916 22 856 85 885 49 b 1039 -18 947 -5 988 -18 b 1176 38 1099 -18 1145 0 b 1222 185 1207 75 1222 124 l 1222 1042 l 1063 1042 l 1063 181 b 1053 147 1063 166 1059 154 b 1026 135 1046 139 1038 135 b 1001 147 1018 135 1010 139 b 976 179 993 156 985 166 l 532 897 b 436 1018 500 950 468 990 b 317 1060 405 1046 365 1060 b 169 998 248 1060 199 1039 b 125 847 140 957 125 906 z m 750 1278 l 703 1326 b 631 1386 677 1353 653 1373 b 550 1406 608 1399 581 1406 b 449 1365 507 1406 474 1392 b 411 1250 424 1338 411 1300 l 411 1142 l 532 1142 l 532 1254 b 540 1281 532 1266 534 1275 b 558 1289 545 1286 551 1289 b 578 1282 566 1289 572 1287 b 600 1261 583 1277 591 1270 l 647 1213 b 719 1153 673 1186 697 1166 b 800 1133 742 1140 769 1133 b 903 1176 844 1133 879 1147 b 939 1292 927 1204 939 1243 l 939 1397 l 818 1397 l 818 1285 b 811 1258 818 1273 816 1264 b 793 1250 806 1253 800 1250 b 772 1257 785 1250 778 1252 b 750 1278 767 1262 759 1269 z "},"Ò":{"ha":1208,"x_min":0,"x_max":0,"o":"m 1132 438 l 1132 604 b 1105 792 1132 674 1123 736 b 1022 936 1087 848 1059 896 b 880 1028 985 976 938 1006 b 674 1060 822 1049 753 1060 l 535 1060 b 328 1028 455 1060 386 1049 b 185 936 269 1006 222 976 b 103 792 148 896 120 848 b 76 604 85 736 76 674 l 76 438 b 103 251 76 369 85 307 b 185 108 120 195 148 147 b 328 16 222 68 269 38 b 535 -17 386 -6 455 -17 l 674 -17 b 880 16 753 -17 822 -6 b 1022 108 938 38 985 68 b 1105 251 1059 147 1087 195 b 1132 438 1123 307 1132 369 z m 250 400 l 250 643 b 311 852 250 737 270 806 b 514 921 352 898 419 921 l 694 921 b 898 852 790 921 858 898 b 958 643 938 806 958 737 l 958 400 b 898 192 958 307 938 238 b 694 122 858 145 790 122 l 514 122 b 311 192 419 122 352 145 b 250 400 270 238 250 307 z m 685 1142 l 588 1403 l 440 1403 l 549 1142 z "},"Ó":{"ha":1208,"x_min":0,"x_max":0,"o":"m 1132 438 l 1132 604 b 1105 792 1132 674 1123 736 b 1022 936 1087 848 1059 896 b 880 1028 985 976 938 1006 b 674 1060 822 1049 753 1060 l 535 1060 b 328 1028 455 1060 386 1049 b 185 936 269 1006 222 976 b 103 792 148 896 120 848 b 76 604 85 736 76 674 l 76 438 b 103 251 76 369 85 307 b 185 108 120 195 148 147 b 328 16 222 68 269 38 b 535 -17 386 -6 455 -17 l 674 -17 b 880 16 753 -17 822 -6 b 1022 108 938 38 985 68 b 1105 251 1059 147 1087 195 b 1132 438 1123 307 1132 369 z m 250 400 l 250 643 b 311 852 250 737 270 806 b 514 921 352 898 419 921 l 694 921 b 898 852 790 921 858 898 b 958 643 938 806 958 737 l 958 400 b 898 192 958 307 938 238 b 694 122 858 145 790 122 l 514 122 b 311 192 419 122 352 145 b 250 400 270 238 250 307 z m 543 1142 l 679 1142 l 788 1403 l 640 1403 z "},"Ô":{"ha":1208,"x_min":0,"x_max":0,"o":"m 1132 438 l 1132 604 b 1105 792 1132 674 1123 736 b 1022 936 1087 848 1059 896 b 880 1028 985 976 938 1006 b 674 1060 822 1049 753 1060 l 535 1060 b 328 1028 455 1060 386 1049 b 185 936 269 1006 222 976 b 103 792 148 896 120 848 b 76 604 85 736 76 674 l 76 438 b 103 251 76 369 85 307 b 185 108 120 195 148 147 b 328 16 222 68 269 38 b 535 -17 386 -6 455 -17 l 674 -17 b 880 16 753 -17 822 -6 b 1022 108 938 38 985 68 b 1105 251 1059 147 1087 195 b 1132 438 1123 307 1132 369 z m 250 400 l 250 643 b 311 852 250 737 270 806 b 514 921 352 898 419 921 l 694 921 b 898 852 790 921 858 898 b 958 643 938 806 958 737 l 958 400 b 898 192 958 307 938 238 b 694 122 858 145 790 122 l 514 122 b 311 192 419 122 352 145 b 250 400 270 238 250 307 z m 703 1142 l 846 1142 l 694 1358 b 658 1396 683 1373 671 1386 b 604 1411 645 1406 627 1411 b 549 1396 581 1411 563 1406 b 513 1358 535 1386 523 1373 l 361 1142 l 504 1142 l 604 1293 z "},"Õ":{"ha":1208,"x_min":0,"x_max":0,"o":"m 1132 438 l 1132 604 b 1105 792 1132 674 1123 736 b 1022 936 1087 848 1059 896 b 880 1028 985 976 938 1006 b 674 1060 822 1049 753 1060 l 535 1060 b 328 1028 455 1060 386 1049 b 185 936 269 1006 222 976 b 103 792 148 896 120 848 b 76 604 85 736 76 674 l 76 438 b 103 251 76 369 85 307 b 185 108 120 195 148 147 b 328 16 222 68 269 38 b 535 -17 386 -6 455 -17 l 674 -17 b 880 16 753 -17 822 -6 b 1022 108 938 38 985 68 b 1105 251 1059 147 1087 195 b 1132 438 1123 307 1132 369 z m 250 400 l 250 643 b 311 852 250 737 270 806 b 514 921 352 898 419 921 l 694 921 b 898 852 790 921 858 898 b 958 643 938 806 958 737 l 958 400 b 898 192 958 307 938 238 b 694 122 858 145 790 122 l 514 122 b 311 192 419 122 352 145 b 250 400 270 238 250 307 z m 681 1278 l 633 1326 b 561 1386 607 1353 583 1373 b 481 1406 539 1399 512 1406 b 379 1365 438 1406 404 1392 b 342 1250 354 1338 342 1300 l 342 1142 l 463 1142 l 463 1254 b 470 1281 463 1266 465 1275 b 489 1289 475 1286 481 1289 b 508 1282 496 1289 503 1287 b 531 1261 514 1277 521 1270 l 578 1213 b 650 1153 604 1186 628 1166 b 731 1133 672 1140 699 1133 b 833 1176 775 1133 809 1147 b 869 1292 857 1204 869 1243 l 869 1397 l 749 1397 l 749 1285 b 742 1258 749 1273 746 1264 b 724 1250 737 1253 731 1250 b 703 1257 715 1250 708 1252 b 681 1278 697 1262 690 1269 z "},"Ö":{"ha":1208,"x_min":0,"x_max":0,"o":"m 1132 438 l 1132 604 b 1105 792 1132 674 1123 736 b 1022 936 1087 848 1059 896 b 880 1028 985 976 938 1006 b 674 1060 822 1049 753 1060 l 535 1060 b 328 1028 455 1060 386 1049 b 185 936 269 1006 222 976 b 103 792 148 896 120 848 b 76 604 85 736 76 674 l 76 438 b 103 251 76 369 85 307 b 185 108 120 195 148 147 b 328 16 222 68 269 38 b 535 -17 386 -6 455 -17 l 674 -17 b 880 16 753 -17 822 -6 b 1022 108 938 38 985 68 b 1105 251 1059 147 1087 195 b 1132 438 1123 307 1132 369 z m 250 400 l 250 643 b 311 852 250 737 270 806 b 514 921 352 898 419 921 l 694 921 b 898 852 790 921 858 898 b 958 643 938 806 958 737 l 958 400 b 898 192 958 307 938 238 b 694 122 858 145 790 122 l 514 122 b 311 192 419 122 352 145 b 250 400 270 238 250 307 z m 549 1169 l 549 1317 l 396 1317 l 396 1169 z m 813 1169 l 813 1317 l 660 1317 l 660 1169 z "},"×":{"ha":733,"x_min":0,"x_max":0,"o":"m 69 721 l 269 521 l 69 321 l 167 224 l 367 424 l 567 224 l 664 321 l 464 521 l 664 721 l 567 818 l 367 618 l 167 818 z "},"Ø":{"ha":1208,"x_min":0,"x_max":0,"o":"m 1132 438 l 1132 604 b 1108 784 1132 670 1124 730 b 1033 924 1091 838 1067 885 l 1139 1042 l 1000 1042 l 956 992 b 832 1042 920 1014 879 1031 b 674 1060 785 1054 732 1060 l 535 1060 b 328 1028 455 1060 386 1049 b 185 936 269 1006 222 976 b 103 792 148 896 120 848 b 76 604 85 736 76 674 l 76 438 b 101 259 76 373 84 313 b 175 118 117 205 142 158 l 69 0 l 201 0 l 250 54 b 374 1 285 31 327 13 b 535 -17 422 -11 475 -17 l 674 -17 b 880 16 753 -17 822 -6 b 1022 108 938 38 985 68 b 1105 251 1059 147 1087 195 b 1132 438 1123 307 1132 369 z m 250 400 l 250 643 b 311 852 250 737 270 806 b 514 921 352 898 419 921 l 694 921 b 788 912 730 921 761 918 b 860 885 816 906 839 897 l 281 236 b 258 309 270 257 263 282 b 250 400 253 336 250 367 z m 514 122 b 419 132 479 122 447 125 b 346 161 391 138 366 148 l 928 807 b 951 735 938 787 946 763 b 958 643 956 707 958 676 l 958 400 b 898 192 958 307 938 238 b 694 122 858 145 790 122 z "},"Ù":{"ha":1222,"x_min":0,"x_max":0,"o":"m 514 -18 l 694 -18 b 1003 64 837 -18 940 9 b 1097 324 1066 119 1097 205 l 1097 1042 l 938 1042 l 938 313 b 887 168 938 248 921 200 b 738 121 853 137 803 121 l 488 121 b 334 168 418 121 367 137 b 285 313 301 200 285 248 l 285 1042 l 125 1042 l 125 324 b 218 64 125 205 156 119 b 514 -18 280 9 379 -18 z m 692 1142 l 594 1403 l 447 1403 l 556 1142 z "},"Ú":{"ha":1222,"x_min":0,"x_max":0,"o":"m 514 -18 l 694 -18 b 1003 64 837 -18 940 9 b 1097 324 1066 119 1097 205 l 1097 1042 l 938 1042 l 938 313 b 887 168 938 248 921 200 b 738 121 853 137 803 121 l 488 121 b 334 168 418 121 367 137 b 285 313 301 200 285 248 l 285 1042 l 125 1042 l 125 324 b 218 64 125 205 156 119 b 514 -18 280 9 379 -18 z m 550 1142 l 686 1142 l 794 1403 l 647 1403 z "},"Û":{"ha":1222,"x_min":0,"x_max":0,"o":"m 514 -18 l 694 -18 b 1003 64 837 -18 940 9 b 1097 324 1066 119 1097 205 l 1097 1042 l 938 1042 l 938 313 b 887 168 938 248 921 200 b 738 121 853 137 803 121 l 488 121 b 334 168 418 121 367 137 b 285 313 301 200 285 248 l 285 1042 l 125 1042 l 125 324 b 218 64 125 205 156 119 b 514 -18 280 9 379 -18 z m 710 1142 l 853 1142 l 701 1358 b 665 1396 690 1373 678 1386 b 611 1411 652 1406 634 1411 b 556 1396 588 1411 569 1406 b 519 1358 542 1386 530 1373 l 368 1142 l 511 1142 l 611 1293 z "},"Ü":{"ha":1222,"x_min":0,"x_max":0,"o":"m 514 -18 l 694 -18 b 1003 64 837 -18 940 9 b 1097 324 1066 119 1097 205 l 1097 1042 l 938 1042 l 938 313 b 887 168 938 248 921 200 b 738 121 853 137 803 121 l 488 121 b 334 168 418 121 367 137 b 285 313 301 200 285 248 l 285 1042 l 125 1042 l 125 324 b 218 64 125 205 156 119 b 514 -18 280 9 379 -18 z m 556 1169 l 556 1317 l 403 1317 l 403 1169 z m 819 1169 l 819 1317 l 667 1317 l 667 1169 z "},"Ý":{"ha":1083,"x_min":0,"x_max":0,"o":"m 463 0 l 622 0 l 622 374 l 1069 1042 l 889 1042 l 568 550 b 542 536 563 541 554 536 b 517 550 531 536 522 541 l 204 1042 l 14 1042 l 463 372 z m 481 1142 l 617 1142 l 725 1403 l 578 1403 z "},"Þ":{"ha":1092,"x_min":0,"x_max":0,"o":"m 285 1042 l 125 1042 l 125 0 l 285 0 l 285 201 l 656 201 b 799 215 706 201 753 206 b 921 260 845 223 886 239 b 1005 349 956 282 984 312 b 1036 490 1026 387 1036 434 l 1036 551 b 1005 692 1036 608 1026 655 b 921 781 984 730 956 759 b 799 827 886 803 845 818 b 656 840 753 836 706 840 l 285 840 z m 681 701 b 828 665 752 701 801 689 b 869 554 856 641 869 604 l 869 488 b 828 376 869 438 856 400 b 681 340 801 352 752 340 l 285 340 l 285 701 z "},"ß":{"ha":1100,"x_min":0,"x_max":0,"o":"m 449 1042 b 215 967 352 1042 274 1017 b 125 731 155 918 125 839 l 125 0 l 278 0 l 278 760 b 313 872 278 814 289 852 b 408 903 336 893 368 903 l 701 903 b 797 874 746 903 778 893 b 826 789 817 854 826 826 l 826 724 b 801 636 826 686 818 656 b 708 606 785 616 754 606 l 414 606 l 414 467 l 733 467 b 822 436 773 467 803 456 b 850 351 841 416 850 388 l 850 247 b 824 167 850 212 841 185 b 733 139 806 148 776 139 l 414 139 l 414 0 l 693 0 b 934 55 799 0 879 18 b 1017 267 989 91 1017 162 l 1017 324 b 976 469 1017 383 1003 431 b 835 544 948 507 901 532 b 954 619 895 561 935 586 b 983 725 974 652 983 687 l 983 792 b 906 978 983 873 957 935 b 675 1042 854 1020 777 1042 z "},"à":{"ha":949,"x_min":0,"x_max":0,"o":"m 838 532 b 759 751 838 624 811 697 b 522 833 707 806 628 833 l 79 833 l 79 701 l 607 701 l 256 436 b 119 319 197 393 152 353 b 69 199 86 284 69 244 b 137 49 69 131 92 81 b 324 0 182 16 244 0 l 838 0 z m 317 139 b 254 154 293 139 272 144 b 228 204 237 164 228 181 b 250 260 228 228 235 247 b 311 310 265 274 285 290 l 685 593 l 685 139 z m 551 933 l 454 1194 l 307 1194 l 415 933 z "},"á":{"ha":949,"x_min":0,"x_max":0,"o":"m 838 532 b 759 751 838 624 811 697 b 522 833 707 806 628 833 l 79 833 l 79 701 l 607 701 l 256 436 b 119 319 197 393 152 353 b 69 199 86 284 69 244 b 137 49 69 131 92 81 b 324 0 182 16 244 0 l 838 0 z m 317 139 b 254 154 293 139 272 144 b 228 204 237 164 228 181 b 250 260 228 228 235 247 b 311 310 265 274 285 290 l 685 593 l 685 139 z m 411 933 l 547 933 l 656 1194 l 508 1194 z "},"â":{"ha":949,"x_min":0,"x_max":0,"o":"m 838 532 b 759 751 838 624 811 697 b 522 833 707 806 628 833 l 79 833 l 79 701 l 607 701 l 256 436 b 119 319 197 393 152 353 b 69 199 86 284 69 244 b 137 49 69 131 92 81 b 324 0 182 16 244 0 l 838 0 z m 317 139 b 254 154 293 139 272 144 b 228 204 237 164 228 181 b 250 260 228 228 235 247 b 311 310 265 274 285 290 l 685 593 l 685 139 z m 571 933 l 714 933 l 563 1150 b 526 1188 551 1165 539 1177 b 472 1203 513 1198 495 1203 b 417 1188 449 1203 431 1198 b 381 1150 403 1177 391 1165 l 229 933 l 372 933 l 472 1085 z "},"ã":{"ha":949,"x_min":0,"x_max":0,"o":"m 838 532 b 759 751 838 624 811 697 b 522 833 707 806 628 833 l 79 833 l 79 701 l 607 701 l 256 436 b 119 319 197 393 152 353 b 69 199 86 284 69 244 b 137 49 69 131 92 81 b 324 0 182 16 244 0 l 838 0 z m 317 139 b 254 154 293 139 272 144 b 228 204 237 164 228 181 b 250 260 228 228 235 247 b 311 310 265 274 285 290 l 685 593 l 685 139 z m 549 1069 l 501 1118 b 429 1178 475 1145 451 1165 b 349 1197 407 1191 380 1197 b 247 1157 306 1197 272 1184 b 210 1042 222 1130 210 1092 l 210 933 l 331 933 l 331 1046 b 338 1072 331 1058 333 1067 b 357 1081 343 1078 350 1081 b 376 1074 364 1081 371 1078 b 399 1053 382 1069 389 1062 l 446 1004 b 518 944 472 977 496 957 b 599 925 540 931 567 925 b 701 967 643 925 677 939 b 738 1083 725 996 738 1034 l 738 1189 l 617 1189 l 617 1076 b 610 1050 617 1064 614 1056 b 592 1042 605 1044 599 1042 b 571 1049 583 1042 576 1044 b 549 1069 565 1053 558 1060 z "},"ä":{"ha":949,"x_min":0,"x_max":0,"o":"m 838 532 b 759 751 838 624 811 697 b 522 833 707 806 628 833 l 79 833 l 79 701 l 607 701 l 256 436 b 119 319 197 393 152 353 b 69 199 86 284 69 244 b 137 49 69 131 92 81 b 324 0 182 16 244 0 l 838 0 z m 317 139 b 254 154 293 139 272 144 b 228 204 237 164 228 181 b 250 260 228 228 235 247 b 311 310 265 274 285 290 l 685 593 l 685 139 z m 417 961 l 417 1108 l 264 1108 l 264 961 z m 681 961 l 681 1108 l 528 1108 l 528 961 z "},"å":{"ha":949,"x_min":0,"x_max":0,"o":"m 838 532 b 759 751 838 624 811 697 b 522 833 707 806 628 833 l 79 833 l 79 701 l 607 701 l 256 436 b 119 319 197 393 152 353 b 69 199 86 284 69 244 b 137 49 69 131 92 81 b 324 0 182 16 244 0 l 838 0 z m 317 139 b 254 154 293 139 272 144 b 228 204 237 164 228 181 b 250 260 228 228 235 247 b 311 310 265 274 285 290 l 685 593 l 685 139 z m 322 1047 b 358 960 322 1011 334 982 b 444 926 381 938 410 926 l 499 926 b 585 960 533 926 562 938 b 621 1047 609 982 621 1011 l 621 1081 b 585 1168 621 1117 609 1146 b 499 1201 562 1190 533 1201 l 444 1201 b 358 1168 410 1201 381 1190 b 322 1081 334 1146 322 1117 z m 406 1078 b 419 1116 406 1094 410 1106 b 454 1131 429 1126 440 1131 l 489 1131 b 524 1116 503 1131 515 1126 b 539 1078 534 1106 539 1094 l 539 1050 b 524 1012 539 1034 534 1022 b 489 997 515 1002 503 997 l 454 997 b 419 1012 440 997 429 1002 b 406 1050 410 1022 406 1034 z "},"æ":{"ha":1571,"x_min":0,"x_max":0,"o":"m 1060 0 l 1468 0 l 1468 132 l 1026 132 b 895 176 969 132 925 147 b 850 324 865 206 850 255 l 850 364 l 1494 364 l 1494 500 b 1415 749 1494 609 1468 692 b 1153 833 1361 805 1274 833 l 1067 833 b 894 810 1001 833 943 826 b 775 740 844 795 805 772 b 691 810 755 772 727 795 b 542 833 655 826 606 833 l 113 833 l 113 701 l 622 701 l 258 451 b 117 331 197 409 150 369 b 68 196 84 293 68 248 b 140 47 68 128 92 79 b 336 0 187 16 253 0 l 472 0 b 661 27 552 0 615 9 b 767 113 707 45 743 74 b 885 29 796 76 836 49 b 1060 0 934 10 992 0 z m 1193 701 b 1311 665 1251 701 1291 689 b 1342 549 1331 640 1342 601 l 1342 490 l 850 490 l 850 514 b 888 658 850 581 863 630 b 1013 701 913 687 954 701 z m 315 139 b 251 156 290 139 269 144 b 224 208 233 167 224 184 b 247 265 224 232 231 251 b 310 314 263 279 284 295 l 704 590 l 704 349 b 653 179 704 263 687 206 b 486 139 620 152 564 139 z "},"ç":{"ha":892,"x_min":0,"x_max":0,"o":"m 456 701 l 815 701 l 815 833 l 449 833 b 190 746 342 833 256 804 b 90 485 123 688 90 600 l 90 349 b 190 88 90 233 123 146 b 449 0 256 29 342 0 l 815 0 l 815 132 l 456 132 b 298 174 382 132 330 146 b 250 329 266 203 250 254 l 250 506 b 298 659 250 580 266 631 b 456 701 330 687 382 701 z m 596 0 l 460 0 l 351 -261 l 499 -261 z "},"è":{"ha":982,"x_min":0,"x_max":0,"o":"m 906 364 l 906 518 b 815 764 906 627 875 709 b 543 846 755 819 664 846 l 467 846 b 187 753 344 846 251 815 b 90 476 122 691 90 599 l 90 331 b 119 181 90 272 100 222 b 200 78 139 139 166 105 b 324 19 234 51 275 31 b 482 0 372 6 425 0 l 879 0 l 879 132 l 461 132 b 302 172 390 132 337 145 b 250 296 267 199 250 240 l 250 364 z m 563 714 b 708 673 635 714 683 700 b 746 539 733 646 746 601 l 746 490 l 250 490 l 250 497 b 295 667 250 579 265 635 b 446 714 325 698 375 714 z m 593 933 l 496 1194 l 349 1194 l 457 933 z "},"é":{"ha":982,"x_min":0,"x_max":0,"o":"m 906 364 l 906 518 b 815 764 906 627 875 709 b 543 846 755 819 664 846 l 467 846 b 187 753 344 846 251 815 b 90 476 122 691 90 599 l 90 331 b 119 181 90 272 100 222 b 200 78 139 139 166 105 b 324 19 234 51 275 31 b 482 0 372 6 425 0 l 879 0 l 879 132 l 461 132 b 302 172 390 132 337 145 b 250 296 267 199 250 240 l 250 364 z m 563 714 b 708 673 635 714 683 700 b 746 539 733 646 746 601 l 746 490 l 250 490 l 250 497 b 295 667 250 579 265 635 b 446 714 325 698 375 714 z m 451 933 l 588 933 l 696 1194 l 549 1194 z "},"ê":{"ha":982,"x_min":0,"x_max":0,"o":"m 906 364 l 906 518 b 815 764 906 627 875 709 b 543 846 755 819 664 846 l 467 846 b 187 753 344 846 251 815 b 90 476 122 691 90 599 l 90 331 b 119 181 90 272 100 222 b 200 78 139 139 166 105 b 324 19 234 51 275 31 b 482 0 372 6 425 0 l 879 0 l 879 132 l 461 132 b 302 172 390 132 337 145 b 250 296 267 199 250 240 l 250 364 z m 563 714 b 708 673 635 714 683 700 b 746 539 733 646 746 601 l 746 490 l 250 490 l 250 497 b 295 667 250 579 265 635 b 446 714 325 698 375 714 z m 611 933 l 754 933 l 603 1150 b 567 1188 592 1165 580 1177 b 513 1203 554 1198 536 1203 b 457 1188 489 1203 471 1198 b 421 1150 443 1177 431 1165 l 269 933 l 413 933 l 513 1085 z "},"ë":{"ha":982,"x_min":0,"x_max":0,"o":"m 906 364 l 906 518 b 815 764 906 627 875 709 b 543 846 755 819 664 846 l 467 846 b 187 753 344 846 251 815 b 90 476 122 691 90 599 l 90 331 b 119 181 90 272 100 222 b 200 78 139 139 166 105 b 324 19 234 51 275 31 b 482 0 372 6 425 0 l 879 0 l 879 132 l 461 132 b 302 172 390 132 337 145 b 250 296 267 199 250 240 l 250 364 z m 563 714 b 708 673 635 714 683 700 b 746 539 733 646 746 601 l 746 490 l 250 490 l 250 497 b 295 667 250 579 265 635 b 446 714 325 698 375 714 z m 457 961 l 457 1108 l 304 1108 l 304 961 z m 721 961 l 721 1108 l 568 1108 l 568 961 z "},"ì":{"ha":403,"x_min":0,"x_max":0,"o":"m 125 0 l 278 0 l 278 833 l 125 833 z m 281 933 l 183 1194 l 36 1194 l 144 933 z "},"í":{"ha":403,"x_min":0,"x_max":0,"o":"m 125 0 l 278 0 l 278 833 l 125 833 z m 140 933 l 276 933 l 385 1194 l 238 1194 z "},"î":{"ha":403,"x_min":0,"x_max":0,"o":"m 125 0 l 278 0 l 278 833 l 125 833 z m 300 933 l 443 933 l 292 1150 b 256 1188 281 1165 269 1177 b 201 1203 243 1198 225 1203 b 146 1188 178 1203 160 1198 b 110 1150 132 1177 120 1165 l -42 933 l 101 933 l 201 1085 z "},"ï":{"ha":403,"x_min":0,"x_max":0,"o":"m 125 0 l 278 0 l 278 833 l 125 833 z m 146 961 l 146 1108 l -7 1108 l -7 961 z m 410 961 l 410 1108 l 257 1108 l 257 961 z "},"ð":{"ha":1028,"x_min":0,"x_max":0,"o":"m 368 664 l 647 783 b 749 692 697 747 731 717 b 778 596 767 668 777 636 l 369 596 b 133 535 266 596 187 576 b 51 314 78 495 51 421 l 51 254 b 151 42 51 152 84 81 b 428 -18 217 2 309 -18 l 515 -18 b 840 77 667 -18 775 14 b 938 385 905 141 938 243 l 938 586 b 910 734 938 647 928 697 b 804 851 891 772 856 811 l 951 914 l 951 1046 l 686 932 l 519 1042 l 278 1042 l 531 865 l 368 796 z m 536 121 l 408 121 b 253 153 333 121 282 131 b 211 246 225 174 211 205 l 211 332 b 242 424 211 371 222 401 b 368 457 263 446 305 457 l 778 457 l 778 347 b 723 167 778 257 759 197 b 536 121 686 136 624 121 z "},"ñ":{"ha":993,"x_min":0,"x_max":0,"o":"m 111 0 l 264 0 l 264 694 l 592 694 b 697 664 641 694 676 684 b 729 551 719 644 729 606 l 729 0 l 882 0 l 882 535 b 810 757 882 632 858 706 b 581 833 762 808 685 833 l 111 833 z m 574 1069 l 526 1118 b 454 1178 500 1145 476 1165 b 374 1197 432 1191 405 1197 b 272 1157 331 1197 297 1184 b 235 1042 247 1130 235 1092 l 235 933 l 356 933 l 356 1046 b 363 1072 356 1058 358 1067 b 382 1081 368 1078 375 1081 b 401 1074 389 1081 396 1078 b 424 1053 407 1069 414 1062 l 471 1004 b 543 944 497 977 521 957 b 624 925 565 931 592 925 b 726 967 668 925 702 939 b 763 1083 750 996 763 1034 l 763 1189 l 642 1189 l 642 1076 b 635 1050 642 1064 639 1056 b 617 1042 630 1044 624 1042 b 596 1049 608 1042 601 1044 b 574 1069 590 1053 583 1060 z "},"ò":{"ha":1038,"x_min":0,"x_max":0,"o":"m 947 485 b 851 755 947 600 915 691 b 571 851 788 819 694 851 l 467 851 b 181 755 337 851 242 819 b 90 485 121 691 90 600 l 90 349 b 181 78 90 233 121 143 b 467 -18 242 14 337 -18 l 571 -18 b 851 78 694 -18 788 14 b 947 349 915 143 947 233 z m 788 506 l 788 328 b 745 165 788 254 773 200 b 590 114 717 131 665 114 l 446 114 b 295 165 375 114 325 131 b 250 328 265 200 250 254 l 250 506 b 295 668 250 580 265 634 b 446 719 325 702 375 719 l 590 719 b 745 668 665 719 717 702 b 788 506 773 634 788 580 z m 600 933 l 503 1194 l 356 1194 l 464 933 z "},"ó":{"ha":1038,"x_min":0,"x_max":0,"o":"m 947 485 b 851 755 947 600 915 691 b 571 851 788 819 694 851 l 467 851 b 181 755 337 851 242 819 b 90 485 121 691 90 600 l 90 349 b 181 78 90 233 121 143 b 467 -18 242 14 337 -18 l 571 -18 b 851 78 694 -18 788 14 b 947 349 915 143 947 233 z m 788 506 l 788 328 b 745 165 788 254 773 200 b 590 114 717 131 665 114 l 446 114 b 295 165 375 114 325 131 b 250 328 265 200 250 254 l 250 506 b 295 668 250 580 265 634 b 446 719 325 702 375 719 l 590 719 b 745 668 665 719 717 702 b 788 506 773 634 788 580 z m 458 933 l 594 933 l 703 1194 l 556 1194 z "},"ô":{"ha":1038,"x_min":0,"x_max":0,"o":"m 947 485 b 851 755 947 600 915 691 b 571 851 788 819 694 851 l 467 851 b 181 755 337 851 242 819 b 90 485 121 691 90 600 l 90 349 b 181 78 90 233 121 143 b 467 -18 242 14 337 -18 l 571 -18 b 851 78 694 -18 788 14 b 947 349 915 143 947 233 z m 788 506 l 788 328 b 745 165 788 254 773 200 b 590 114 717 131 665 114 l 446 114 b 295 165 375 114 325 131 b 250 328 265 200 250 254 l 250 506 b 295 668 250 580 265 634 b 446 719 325 702 375 719 l 590 719 b 745 668 665 719 717 702 b 788 506 773 634 788 580 z m 618 933 l 761 933 l 610 1150 b 574 1188 599 1165 587 1177 b 519 1203 561 1198 543 1203 b 464 1188 496 1203 478 1198 b 428 1150 450 1177 438 1165 l 276 933 l 419 933 l 519 1085 z "},"õ":{"ha":1038,"x_min":0,"x_max":0,"o":"m 947 485 b 851 755 947 600 915 691 b 571 851 788 819 694 851 l 467 851 b 181 755 337 851 242 819 b 90 485 121 691 90 600 l 90 349 b 181 78 90 233 121 143 b 467 -18 242 14 337 -18 l 571 -18 b 851 78 694 -18 788 14 b 947 349 915 143 947 233 z m 788 506 l 788 328 b 745 165 788 254 773 200 b 590 114 717 131 665 114 l 446 114 b 295 165 375 114 325 131 b 250 328 265 200 250 254 l 250 506 b 295 668 250 580 265 634 b 446 719 325 702 375 719 l 590 719 b 745 668 665 719 717 702 b 788 506 773 634 788 580 z m 596 1069 l 549 1118 b 476 1178 523 1145 499 1165 b 396 1197 454 1191 427 1197 b 294 1157 353 1197 319 1184 b 257 1042 269 1130 257 1092 l 257 933 l 378 933 l 378 1046 b 385 1072 378 1058 380 1067 b 404 1081 391 1078 397 1081 b 424 1074 412 1081 418 1078 b 446 1053 429 1069 437 1062 l 493 1004 b 565 944 519 977 543 957 b 646 925 588 931 614 925 b 749 967 690 925 725 939 b 785 1083 773 996 785 1034 l 785 1189 l 664 1189 l 664 1076 b 657 1050 664 1064 662 1056 b 639 1042 652 1044 646 1042 b 618 1049 631 1042 624 1044 b 596 1069 613 1053 605 1060 z "},"ö":{"ha":1038,"x_min":0,"x_max":0,"o":"m 947 485 b 851 755 947 600 915 691 b 571 851 788 819 694 851 l 467 851 b 181 755 337 851 242 819 b 90 485 121 691 90 600 l 90 349 b 181 78 90 233 121 143 b 467 -18 242 14 337 -18 l 571 -18 b 851 78 694 -18 788 14 b 947 349 915 143 947 233 z m 788 506 l 788 328 b 745 165 788 254 773 200 b 590 114 717 131 665 114 l 446 114 b 295 165 375 114 325 131 b 250 328 265 200 250 254 l 250 506 b 295 668 250 580 265 634 b 446 719 325 702 375 719 l 590 719 b 745 668 665 719 717 702 b 788 506 773 634 788 580 z m 464 961 l 464 1108 l 311 1108 l 311 961 z m 728 961 l 728 1108 l 575 1108 l 575 961 z "},"÷":{"ha":703,"x_min":0,"x_max":0,"o":"m 265 715 l 439 715 l 439 889 l 265 889 z m 69 451 l 633 451 l 633 590 l 69 590 z m 265 153 l 439 153 l 439 326 l 265 326 z "},"ø":{"ha":1038,"x_min":0,"x_max":0,"o":"m 90 0 l 211 0 l 240 32 b 340 -5 269 16 302 4 b 467 -18 377 -14 419 -18 l 571 -18 b 851 78 694 -18 788 14 b 947 349 915 143 947 233 l 947 485 b 926 630 947 538 940 587 b 865 742 913 673 892 710 l 946 833 l 821 833 l 792 800 b 693 838 763 817 730 829 b 571 851 656 847 615 851 l 467 851 b 181 755 337 851 242 819 b 90 485 121 691 90 600 l 90 349 b 110 202 90 294 97 245 b 169 90 123 159 143 122 z m 250 328 l 250 506 b 295 668 250 580 265 634 b 446 719 325 702 375 719 l 590 719 b 653 715 613 719 634 718 b 703 700 672 711 689 706 l 269 206 b 255 259 263 220 258 238 b 250 328 252 280 250 303 z m 788 506 l 788 328 b 745 165 788 254 773 200 b 590 114 717 131 665 114 l 446 114 b 383 119 423 114 402 116 b 332 136 364 123 347 129 l 768 632 b 783 576 775 615 779 597 b 788 506 786 555 788 531 z "},"ù":{"ha":993,"x_min":0,"x_max":0,"o":"m 882 833 l 729 833 l 729 139 l 401 139 b 296 169 352 139 317 149 b 264 282 275 190 264 227 l 264 833 l 111 833 l 111 299 b 183 76 111 201 135 127 b 413 0 231 25 308 0 l 882 0 z m 563 933 l 465 1194 l 318 1194 l 426 933 z "},"ú":{"ha":993,"x_min":0,"x_max":0,"o":"m 882 833 l 729 833 l 729 139 l 401 139 b 296 169 352 139 317 149 b 264 282 275 190 264 227 l 264 833 l 111 833 l 111 299 b 183 76 111 201 135 127 b 413 0 231 25 308 0 l 882 0 z m 422 933 l 558 933 l 667 1194 l 519 1194 z "},"û":{"ha":993,"x_min":0,"x_max":0,"o":"m 882 833 l 729 833 l 729 139 l 401 139 b 296 169 352 139 317 149 b 264 282 275 190 264 227 l 264 833 l 111 833 l 111 299 b 183 76 111 201 135 127 b 413 0 231 25 308 0 l 882 0 z m 582 933 l 725 933 l 574 1150 b 538 1188 563 1165 550 1177 b 483 1203 525 1198 506 1203 b 428 1188 460 1203 442 1198 b 392 1150 414 1177 402 1165 l 240 933 l 383 933 l 483 1085 z "},"ü":{"ha":993,"x_min":0,"x_max":0,"o":"m 882 833 l 729 833 l 729 139 l 401 139 b 296 169 352 139 317 149 b 264 282 275 190 264 227 l 264 833 l 111 833 l 111 299 b 183 76 111 201 135 127 b 413 0 231 25 308 0 l 882 0 z m 428 961 l 428 1108 l 275 1108 l 275 961 z m 692 961 l 692 1108 l 539 1108 l 539 961 z "},"ý":{"ha":933,"x_min":0,"x_max":0,"o":"m 457 211 l 182 833 l 7 833 l 308 169 b 369 91 326 131 346 105 b 443 69 393 77 417 69 l 450 69 l 422 1 b 374 -59 411 -25 395 -45 b 275 -81 352 -73 319 -81 l 85 -81 l 85 -208 l 276 -208 b 456 -167 351 -208 411 -195 b 569 -18 501 -140 539 -90 l 926 833 l 758 833 l 508 211 b 497 196 506 205 502 200 b 483 190 493 192 488 190 b 469 196 479 190 474 192 b 457 211 465 200 461 205 z m 406 933 l 542 933 l 650 1194 l 503 1194 z "},"þ":{"ha":1010,"x_min":0,"x_max":0,"o":"m 125 -208 l 278 -208 l 278 0 l 590 0 b 844 93 700 0 785 31 b 933 360 904 155 933 244 l 933 474 b 844 740 933 589 904 678 b 590 833 785 802 700 833 l 278 833 l 278 1042 l 125 1042 z m 576 694 b 729 650 649 694 700 680 b 774 494 759 620 774 569 l 774 340 b 729 183 774 265 759 213 b 576 139 700 154 649 139 l 278 139 l 278 694 z "},"ÿ":{"ha":933,"x_min":0,"x_max":0,"o":"m 457 211 l 182 833 l 7 833 l 308 169 b 369 91 326 131 346 105 b 443 69 393 77 417 69 l 450 69 l 422 1 b 374 -59 411 -25 395 -45 b 275 -81 352 -73 319 -81 l 85 -81 l 85 -208 l 276 -208 b 456 -167 351 -208 411 -195 b 569 -18 501 -140 539 -90 l 926 833 l 758 833 l 508 211 b 497 196 506 205 502 200 b 483 190 493 192 488 190 b 469 196 479 190 474 192 b 457 211 465 200 461 205 z m 411 961 l 411 1108 l 258 1108 l 258 961 z m 675 961 l 675 1108 l 522 1108 l 522 961 z "},"Ā":{"ha":1194,"x_min":0,"x_max":0,"o":"m 1007 0 l 1181 0 l 783 904 b 716 1014 765 947 742 983 b 597 1060 690 1044 650 1060 b 478 1012 544 1060 504 1044 b 407 889 453 980 429 939 l 14 0 l 185 0 l 304 281 l 888 281 z m 554 869 b 574 903 562 887 568 898 b 596 911 580 909 588 911 b 618 902 604 911 612 908 b 638 868 625 896 631 885 l 825 428 l 367 428 z m 764 1156 l 764 1264 l 431 1264 l 431 1156 z "},"ā":{"ha":949,"x_min":0,"x_max":0,"o":"m 838 532 b 759 751 838 624 811 697 b 522 833 707 806 628 833 l 79 833 l 79 701 l 607 701 l 256 436 b 119 319 197 393 152 353 b 69 199 86 284 69 244 b 137 49 69 131 92 81 b 324 0 182 16 244 0 l 838 0 z m 317 139 b 254 154 293 139 272 144 b 228 204 237 164 228 181 b 250 260 228 228 235 247 b 311 310 265 274 285 290 l 685 593 l 685 139 z m 639 947 l 639 1056 l 306 1056 l 306 947 z "},"Ă":{"ha":1194,"x_min":0,"x_max":0,"o":"m 1007 0 l 1181 0 l 783 904 b 716 1014 765 947 742 983 b 597 1060 690 1044 650 1060 b 478 1012 544 1060 504 1044 b 407 889 453 980 429 939 l 14 0 l 185 0 l 304 281 l 888 281 z m 554 869 b 574 903 562 887 568 898 b 596 911 580 909 588 911 b 618 902 604 911 612 908 b 638 868 625 896 631 885 l 825 428 l 367 428 z m 379 1361 l 379 1297 b 419 1193 379 1257 392 1223 b 529 1149 445 1163 482 1149 l 667 1149 b 775 1193 712 1149 748 1163 b 815 1297 802 1223 815 1257 l 815 1361 l 710 1361 l 710 1306 b 695 1258 710 1284 705 1269 b 647 1243 685 1248 669 1243 l 550 1243 b 502 1259 529 1243 513 1248 b 486 1306 491 1270 486 1285 l 486 1361 z "},"ă":{"ha":949,"x_min":0,"x_max":0,"o":"m 838 532 b 759 751 838 624 811 697 b 522 833 707 806 628 833 l 79 833 l 79 701 l 607 701 l 256 436 b 119 319 197 393 152 353 b 69 199 86 284 69 244 b 137 49 69 131 92 81 b 324 0 182 16 244 0 l 838 0 z m 317 139 b 254 154 293 139 272 144 b 228 204 237 164 228 181 b 250 260 228 228 235 247 b 311 310 265 274 285 290 l 685 593 l 685 139 z m 253 1153 l 253 1089 b 292 985 253 1049 266 1014 b 403 940 319 955 356 940 l 540 940 b 649 985 586 940 622 955 b 689 1089 675 1014 689 1049 l 689 1153 l 583 1153 l 583 1097 b 569 1050 583 1076 578 1060 b 521 1035 559 1040 543 1035 l 424 1035 b 376 1051 402 1035 386 1040 b 360 1097 365 1061 360 1077 l 360 1153 z "},"Ą":{"ha":1194,"x_min":0,"x_max":0,"o":"m 1007 0 l 1181 0 l 783 904 b 716 1014 765 947 742 983 b 597 1060 690 1044 650 1060 b 478 1012 544 1060 504 1044 b 407 889 453 980 429 939 l 14 0 l 185 0 l 304 281 l 888 281 z m 554 869 b 574 903 562 887 568 898 b 596 911 580 909 588 911 b 618 902 604 911 612 908 b 638 868 625 896 631 885 l 825 428 l 367 428 z m 1053 0 l 1007 -46 b 959 -108 984 -69 968 -90 b 946 -162 950 -127 946 -145 b 980 -235 946 -191 957 -215 b 1090 -264 1003 -254 1039 -264 l 1181 -264 l 1181 -168 l 1126 -168 b 1093 -158 1112 -168 1100 -165 b 1082 -135 1086 -152 1082 -144 b 1091 -110 1082 -125 1085 -117 b 1114 -81 1097 -102 1105 -93 l 1181 0 z "},"ą":{"ha":949,"x_min":0,"x_max":0,"o":"m 838 532 b 759 751 838 624 811 697 b 522 833 707 806 628 833 l 79 833 l 79 701 l 607 701 l 256 436 b 119 319 197 393 152 353 b 69 199 86 284 69 244 b 137 49 69 131 92 81 b 324 0 182 16 244 0 l 838 0 z m 317 139 b 254 154 293 139 272 144 b 228 204 237 164 228 181 b 250 260 228 228 235 247 b 311 310 265 274 285 290 l 685 593 l 685 139 z m 710 0 l 664 -46 b 616 -108 641 -69 625 -90 b 603 -162 607 -127 603 -145 b 637 -235 603 -191 614 -215 b 747 -264 659 -254 696 -264 l 838 -264 l 838 -168 l 783 -168 b 750 -158 769 -168 757 -165 b 739 -135 743 -152 739 -144 b 748 -110 739 -125 742 -117 b 771 -81 754 -102 762 -93 l 838 0 z "},"Ć":{"ha":1050,"x_min":0,"x_max":0,"o":"m 994 139 l 514 139 b 310 208 418 139 350 162 b 250 417 270 253 250 323 l 250 625 b 310 834 250 719 270 788 b 514 903 350 880 418 903 l 988 903 l 988 1042 l 535 1042 b 325 1010 453 1042 383 1031 b 183 918 267 988 219 958 b 102 774 146 878 119 830 b 76 586 85 718 76 656 l 76 456 b 102 267 76 386 85 323 b 183 124 119 211 146 163 b 325 32 219 84 267 53 b 535 0 383 11 453 0 l 994 0 z m 578 1142 l 714 1142 l 822 1403 l 675 1403 z "},"ć":{"ha":892,"x_min":0,"x_max":0,"o":"m 456 701 l 815 701 l 815 833 l 449 833 b 190 746 342 833 256 804 b 90 485 123 688 90 600 l 90 349 b 190 88 90 233 123 146 b 449 0 256 29 342 0 l 815 0 l 815 132 l 456 132 b 298 174 382 132 330 146 b 250 329 266 203 250 254 l 250 506 b 298 659 250 580 266 631 b 456 701 330 687 382 701 z m 465 933 l 601 933 l 710 1194 l 563 1194 z "},"Ċ":{"ha":1050,"x_min":0,"x_max":0,"o":"m 994 139 l 514 139 b 310 208 418 139 350 162 b 250 417 270 253 250 323 l 250 625 b 310 834 250 719 270 788 b 514 903 350 880 418 903 l 988 903 l 988 1042 l 535 1042 b 325 1010 453 1042 383 1031 b 183 918 267 988 219 958 b 102 774 146 878 119 830 b 76 586 85 718 76 656 l 76 456 b 102 267 76 386 85 323 b 183 124 119 211 146 163 b 325 32 219 84 267 53 b 535 0 383 11 453 0 l 994 0 z m 715 1142 l 715 1278 l 563 1278 l 563 1142 z "},"ċ":{"ha":892,"x_min":0,"x_max":0,"o":"m 456 701 l 815 701 l 815 833 l 449 833 b 190 746 342 833 256 804 b 90 485 123 688 90 600 l 90 349 b 190 88 90 233 123 146 b 449 0 256 29 342 0 l 815 0 l 815 132 l 456 132 b 298 174 382 132 330 146 b 250 329 266 203 250 254 l 250 506 b 298 659 250 580 266 631 b 456 701 330 687 382 701 z m 603 933 l 603 1069 l 450 1069 l 450 933 z "},"Č":{"ha":1050,"x_min":0,"x_max":0,"o":"m 994 139 l 514 139 b 310 208 418 139 350 162 b 250 417 270 253 250 323 l 250 625 b 310 834 250 719 270 788 b 514 903 350 880 418 903 l 988 903 l 988 1042 l 535 1042 b 325 1010 453 1042 383 1031 b 183 918 267 988 219 958 b 102 774 146 878 119 830 b 76 586 85 718 76 656 l 76 456 b 102 267 76 386 85 323 b 183 124 119 211 146 163 b 325 32 219 84 267 53 b 535 0 383 11 453 0 l 994 0 z m 731 1172 l 882 1389 l 739 1389 l 640 1238 l 540 1389 l 397 1389 l 549 1172 b 585 1135 559 1157 571 1145 b 640 1119 599 1125 617 1119 b 694 1135 663 1119 681 1125 b 731 1172 707 1145 719 1157 z "},"č":{"ha":892,"x_min":0,"x_max":0,"o":"m 456 701 l 815 701 l 815 833 l 449 833 b 190 746 342 833 256 804 b 90 485 123 688 90 600 l 90 349 b 190 88 90 233 123 146 b 449 0 256 29 342 0 l 815 0 l 815 132 l 456 132 b 298 174 382 132 330 146 b 250 329 266 203 250 254 l 250 506 b 298 659 250 580 266 631 b 456 701 330 687 382 701 z m 618 964 l 769 1181 l 626 1181 l 528 1029 l 428 1181 l 285 1181 l 436 964 b 472 926 446 949 458 937 b 528 911 486 916 505 911 b 582 926 551 911 569 916 b 618 964 595 937 607 949 z "},"Ď":{"ha":1132,"x_min":0,"x_max":0,"o":"m 597 1042 l 125 1042 l 125 0 l 590 0 b 959 115 753 0 876 38 b 1083 438 1042 192 1083 300 l 1083 604 b 957 926 1083 742 1041 850 b 597 1042 873 1003 753 1042 z m 618 903 b 834 843 712 903 784 883 b 910 643 884 803 910 737 l 910 400 b 833 199 910 306 884 240 b 611 139 781 159 707 139 l 285 139 l 285 903 z m 658 1172 l 810 1389 l 667 1389 l 568 1238 l 468 1389 l 325 1389 l 476 1172 b 513 1135 487 1157 499 1145 b 568 1119 526 1125 545 1119 b 622 1135 591 1119 609 1125 b 658 1172 635 1145 647 1157 z "},"ď":{"ha":1139,"x_min":0,"x_max":0,"o":"m 899 1042 l 746 1042 l 746 833 l 433 833 b 178 740 322 833 237 802 b 90 474 120 678 90 589 l 90 360 b 178 93 90 244 120 155 b 433 0 237 31 322 0 l 899 0 z m 447 132 b 294 180 375 132 324 148 b 250 340 265 212 250 265 l 250 494 b 294 653 250 569 265 622 b 447 701 324 685 375 701 l 746 701 l 746 132 z m 949 722 l 1081 722 l 1125 1042 l 993 1042 z "},"Đ":{"ha":1132,"x_min":0,"x_max":0,"o":"m 21 464 l 125 464 l 125 0 l 590 0 b 959 115 753 0 876 38 b 1083 438 1042 192 1083 300 l 1083 604 b 957 926 1083 742 1041 850 b 597 1042 873 1003 753 1042 l 125 1042 l 125 596 l 21 596 z m 618 903 b 834 843 712 903 784 883 b 910 643 884 803 910 737 l 910 400 b 833 199 910 306 884 240 b 611 139 781 159 707 139 l 285 139 l 285 464 l 625 464 l 625 596 l 285 596 l 285 903 z "},"đ":{"ha":1024,"x_min":0,"x_max":0,"o":"m 517 896 l 746 896 l 746 833 l 433 833 b 178 740 322 833 237 802 b 90 474 120 678 90 589 l 90 360 b 178 93 90 244 120 155 b 433 0 237 31 322 0 l 899 0 l 899 896 l 989 896 l 989 972 l 899 972 l 899 1042 l 746 1042 l 746 972 l 517 972 z m 447 132 b 294 180 375 132 324 148 b 250 340 265 212 250 265 l 250 494 b 294 653 250 569 265 622 b 447 701 324 685 375 701 l 746 701 l 746 132 z "},"Ē":{"ha":1053,"x_min":0,"x_max":0,"o":"m 125 0 l 960 0 l 960 139 l 285 139 l 285 460 l 960 460 l 960 599 l 285 599 l 285 903 l 960 903 l 960 1042 l 125 1042 z m 728 1156 l 728 1264 l 394 1264 l 394 1156 z "},"ē":{"ha":982,"x_min":0,"x_max":0,"o":"m 906 364 l 906 518 b 815 764 906 627 875 709 b 543 846 755 819 664 846 l 467 846 b 187 753 344 846 251 815 b 90 476 122 691 90 599 l 90 331 b 119 181 90 272 100 222 b 200 78 139 139 166 105 b 324 19 234 51 275 31 b 482 0 372 6 425 0 l 879 0 l 879 132 l 461 132 b 302 172 390 132 337 145 b 250 296 267 199 250 240 l 250 364 z m 563 714 b 708 673 635 714 683 700 b 746 539 733 646 746 601 l 746 490 l 250 490 l 250 497 b 295 667 250 579 265 635 b 446 714 325 698 375 714 z m 679 947 l 679 1056 l 346 1056 l 346 947 z "},"Ĕ":{"ha":1053,"x_min":0,"x_max":0,"o":"m 125 0 l 960 0 l 960 139 l 285 139 l 285 460 l 960 460 l 960 599 l 285 599 l 285 903 l 960 903 l 960 1042 l 125 1042 z m 343 1361 l 343 1297 b 383 1193 343 1257 356 1223 b 493 1149 409 1163 446 1149 l 631 1149 b 739 1193 676 1149 712 1163 b 779 1297 766 1223 779 1257 l 779 1361 l 674 1361 l 674 1306 b 659 1258 674 1284 669 1269 b 611 1243 649 1248 633 1243 l 514 1243 b 466 1259 493 1243 477 1248 b 450 1306 455 1270 450 1285 l 450 1361 z "},"ĕ":{"ha":982,"x_min":0,"x_max":0,"o":"m 906 364 l 906 518 b 815 764 906 627 875 709 b 543 846 755 819 664 846 l 467 846 b 187 753 344 846 251 815 b 90 476 122 691 90 599 l 90 331 b 119 181 90 272 100 222 b 200 78 139 139 166 105 b 324 19 234 51 275 31 b 482 0 372 6 425 0 l 879 0 l 879 132 l 461 132 b 302 172 390 132 337 145 b 250 296 267 199 250 240 l 250 364 z m 563 714 b 708 673 635 714 683 700 b 746 539 733 646 746 601 l 746 490 l 250 490 l 250 497 b 295 667 250 579 265 635 b 446 714 325 698 375 714 z m 294 1153 l 294 1089 b 334 985 294 1049 308 1014 b 444 940 360 955 397 940 l 582 940 b 690 985 627 940 663 955 b 731 1089 717 1014 731 1049 l 731 1153 l 625 1153 l 625 1097 b 610 1050 625 1076 620 1060 b 563 1035 601 1040 585 1035 l 465 1035 b 417 1051 444 1035 428 1040 b 401 1097 407 1061 401 1077 l 401 1153 z "},"Ė":{"ha":1053,"x_min":0,"x_max":0,"o":"m 125 0 l 960 0 l 960 139 l 285 139 l 285 460 l 960 460 l 960 599 l 285 599 l 285 903 l 960 903 l 960 1042 l 125 1042 z m 638 1142 l 638 1278 l 485 1278 l 485 1142 z "},"ė":{"ha":982,"x_min":0,"x_max":0,"o":"m 906 364 l 906 518 b 815 764 906 627 875 709 b 543 846 755 819 664 846 l 467 846 b 187 753 344 846 251 815 b 90 476 122 691 90 599 l 90 331 b 119 181 90 272 100 222 b 200 78 139 139 166 105 b 324 19 234 51 275 31 b 482 0 372 6 425 0 l 879 0 l 879 132 l 461 132 b 302 172 390 132 337 145 b 250 296 267 199 250 240 l 250 364 z m 563 714 b 708 673 635 714 683 700 b 746 539 733 646 746 601 l 746 490 l 250 490 l 250 497 b 295 667 250 579 265 635 b 446 714 325 698 375 714 z m 589 933 l 589 1069 l 436 1069 l 436 933 z "},"Ę":{"ha":1053,"x_min":0,"x_max":0,"o":"m 125 0 l 960 0 l 960 139 l 285 139 l 285 460 l 960 460 l 960 599 l 285 599 l 285 903 l 960 903 l 960 1042 l 125 1042 z m 832 0 l 786 -46 b 738 -108 763 -69 747 -90 b 725 -162 729 -127 725 -145 b 759 -235 725 -191 736 -215 b 869 -264 782 -254 819 -264 l 960 -264 l 960 -168 l 906 -168 b 872 -158 891 -168 880 -165 b 861 -135 865 -152 861 -144 b 870 -110 861 -125 864 -117 b 893 -81 876 -102 884 -93 l 960 0 z "},"ę":{"ha":982,"x_min":0,"x_max":0,"o":"m 906 364 l 906 518 b 815 764 906 627 875 709 b 543 846 755 819 664 846 l 467 846 b 187 753 344 846 251 815 b 90 476 122 691 90 599 l 90 331 b 119 181 90 272 100 222 b 200 78 139 139 166 105 b 324 19 234 51 275 31 b 482 0 372 6 425 0 l 879 0 l 879 132 l 461 132 b 302 172 390 132 337 145 b 250 296 267 199 250 240 l 250 364 z m 563 714 b 708 673 635 714 683 700 b 746 539 733 646 746 601 l 746 490 l 250 490 l 250 497 b 295 667 250 579 265 635 b 446 714 325 698 375 714 z m 751 0 l 706 -46 b 658 -108 682 -69 666 -90 b 644 -162 649 -127 644 -145 b 678 -235 644 -191 656 -215 b 789 -264 701 -254 738 -264 l 879 -264 l 879 -168 l 825 -168 b 792 -158 810 -168 799 -165 b 781 -135 784 -152 781 -144 b 790 -110 781 -125 784 -117 b 813 -81 796 -102 803 -93 l 879 0 z "},"Ě":{"ha":1053,"x_min":0,"x_max":0,"o":"m 125 0 l 960 0 l 960 139 l 285 139 l 285 460 l 960 460 l 960 599 l 285 599 l 285 903 l 960 903 l 960 1042 l 125 1042 z m 653 1172 l 804 1389 l 661 1389 l 563 1238 l 463 1389 l 319 1389 l 471 1172 b 507 1135 481 1157 493 1145 b 563 1119 521 1125 539 1119 b 617 1135 586 1119 604 1125 b 653 1172 630 1145 642 1157 z "},"ě":{"ha":982,"x_min":0,"x_max":0,"o":"m 906 364 l 906 518 b 815 764 906 627 875 709 b 543 846 755 819 664 846 l 467 846 b 187 753 344 846 251 815 b 90 476 122 691 90 599 l 90 331 b 119 181 90 272 100 222 b 200 78 139 139 166 105 b 324 19 234 51 275 31 b 482 0 372 6 425 0 l 879 0 l 879 132 l 461 132 b 302 172 390 132 337 145 b 250 296 267 199 250 240 l 250 364 z m 563 714 b 708 673 635 714 683 700 b 746 539 733 646 746 601 l 746 490 l 250 490 l 250 497 b 295 667 250 579 265 635 b 446 714 325 698 375 714 z m 604 964 l 756 1181 l 613 1181 l 514 1029 l 414 1181 l 271 1181 l 422 964 b 458 926 432 949 444 937 b 514 911 472 916 491 911 b 568 926 537 911 555 916 b 604 964 581 937 593 949 z "},"Ğ":{"ha":1153,"x_min":0,"x_max":0,"o":"m 1033 1042 l 535 1042 b 325 1010 453 1042 383 1031 b 183 918 267 988 219 958 b 102 774 146 878 119 830 b 76 586 85 718 76 656 l 76 438 b 103 249 76 368 85 305 b 185 106 120 193 148 145 b 326 14 222 66 269 35 b 528 -18 383 -7 450 -18 l 639 -18 b 839 -5 717 -18 783 -14 b 974 43 894 4 940 20 b 1051 140 1009 66 1035 99 b 1076 301 1068 182 1076 236 l 1076 585 l 594 585 l 594 446 l 917 446 l 917 276 b 863 153 917 216 899 175 b 660 121 826 132 759 121 l 507 121 b 308 190 413 121 347 144 b 250 400 269 237 250 306 l 250 625 b 310 834 250 719 270 788 b 514 903 350 880 418 903 l 1033 903 z m 400 1361 l 400 1297 b 440 1193 400 1257 413 1223 b 550 1149 466 1163 503 1149 l 688 1149 b 796 1193 733 1149 769 1163 b 836 1297 823 1223 836 1257 l 836 1361 l 731 1361 l 731 1306 b 716 1258 731 1284 726 1269 b 668 1243 706 1248 690 1243 l 571 1243 b 523 1259 550 1243 534 1248 b 507 1306 512 1270 507 1285 l 507 1361 z "},"ğ":{"ha":982,"x_min":0,"x_max":0,"o":"m 515 -208 b 783 -140 635 -208 724 -186 b 871 82 841 -95 871 -21 l 871 833 l 419 833 b 165 744 308 833 223 804 b 76 488 106 685 76 600 l 76 415 b 165 158 76 303 106 218 b 419 69 223 99 308 69 l 718 69 l 718 44 b 682 -49 718 1 706 -30 b 540 -76 658 -67 611 -76 l 135 -76 l 135 -208 z m 433 208 b 281 249 361 208 310 222 b 236 394 251 277 236 325 l 236 507 b 281 653 236 576 251 625 b 433 694 310 681 361 694 l 718 694 l 718 208 z m 294 1153 l 294 1089 b 334 985 294 1049 308 1014 b 444 940 360 955 397 940 l 582 940 b 690 985 627 940 663 955 b 731 1089 717 1014 731 1049 l 731 1153 l 625 1153 l 625 1097 b 610 1050 625 1076 620 1060 b 563 1035 601 1040 585 1035 l 465 1035 b 417 1051 444 1035 428 1040 b 401 1097 407 1061 401 1077 l 401 1153 z "},"Ġ":{"ha":1153,"x_min":0,"x_max":0,"o":"m 1033 1042 l 535 1042 b 325 1010 453 1042 383 1031 b 183 918 267 988 219 958 b 102 774 146 878 119 830 b 76 586 85 718 76 656 l 76 438 b 103 249 76 368 85 305 b 185 106 120 193 148 145 b 326 14 222 66 269 35 b 528 -18 383 -7 450 -18 l 639 -18 b 839 -5 717 -18 783 -14 b 974 43 894 4 940 20 b 1051 140 1009 66 1035 99 b 1076 301 1068 182 1076 236 l 1076 585 l 594 585 l 594 446 l 917 446 l 917 276 b 863 153 917 216 899 175 b 660 121 826 132 759 121 l 507 121 b 308 190 413 121 347 144 b 250 400 269 237 250 306 l 250 625 b 310 834 250 719 270 788 b 514 903 350 880 418 903 l 1033 903 z m 694 1142 l 694 1278 l 542 1278 l 542 1142 z "},"ġ":{"ha":982,"x_min":0,"x_max":0,"o":"m 515 -208 b 783 -140 635 -208 724 -186 b 871 82 841 -95 871 -21 l 871 833 l 419 833 b 165 744 308 833 223 804 b 76 488 106 685 76 600 l 76 415 b 165 158 76 303 106 218 b 419 69 223 99 308 69 l 718 69 l 718 44 b 682 -49 718 1 706 -30 b 540 -76 658 -67 611 -76 l 135 -76 l 135 -208 z m 433 208 b 281 249 361 208 310 222 b 236 394 251 277 236 325 l 236 507 b 281 653 236 576 251 625 b 433 694 310 681 361 694 l 718 694 l 718 208 z m 589 933 l 589 1069 l 436 1069 l 436 933 z "},"Ģ":{"ha":1111,"x_min":0,"x_max":0,"o":"m 1033 1042 l 535 1042 b 325 1010 453 1042 383 1031 b 183 918 267 988 219 958 b 102 774 146 878 119 830 b 76 586 85 718 76 656 l 76 438 b 103 249 76 368 85 305 b 185 106 120 193 148 145 b 326 14 222 66 269 35 b 528 -18 383 -7 450 -18 l 639 -18 b 839 -5 717 -18 783 -14 b 974 43 894 4 940 20 b 1051 140 1009 66 1035 99 b 1076 301 1068 182 1076 236 l 1076 585 l 594 585 l 594 446 l 917 446 l 917 276 b 863 153 917 216 899 175 b 660 121 826 132 759 121 l 507 121 b 308 190 413 121 347 144 b 250 400 269 237 250 306 l 250 625 b 310 834 250 719 270 788 b 514 903 350 880 418 903 l 1033 903 z m 513 -261 l 636 -261 b 669 -164 654 -217 665 -184 b 676 -90 674 -144 676 -119 l 676 -56 l 549 -56 l 549 -90 b 542 -164 549 -119 546 -144 b 513 -261 537 -184 527 -217 z "},"ģ":{"ha":982,"x_min":0,"x_max":0,"o":"m 515 -208 b 783 -140 635 -208 724 -186 b 871 82 841 -95 871 -21 l 871 833 l 419 833 b 165 744 308 833 223 804 b 76 488 106 685 76 600 l 76 415 b 165 158 76 303 106 218 b 419 69 223 99 308 69 l 718 69 l 718 44 b 682 -49 718 1 706 -30 b 540 -76 658 -67 611 -76 l 135 -76 l 135 -208 z m 433 208 b 281 249 361 208 310 222 b 236 394 251 277 236 325 l 236 507 b 281 653 236 576 251 625 b 433 694 310 681 361 694 l 718 694 l 718 208 z "},"Ħ":{"ha":1174,"x_min":0,"x_max":0,"o":"m 97 0 l 257 0 l 257 458 l 917 458 l 917 0 l 1076 0 l 1076 771 l 1153 771 l 1153 889 l 1076 889 l 1076 1042 l 917 1042 l 917 889 l 257 889 l 257 1042 l 97 1042 l 97 889 l 21 889 l 21 771 l 97 771 z m 257 604 l 257 771 l 917 771 l 917 604 z "},"ħ":{"ha":1021,"x_min":0,"x_max":0,"o":"m 111 0 l 264 0 l 264 694 l 592 694 b 697 664 641 694 676 684 b 729 551 719 644 729 606 l 729 0 l 882 0 l 882 535 b 810 757 882 632 858 706 b 581 833 763 808 686 833 l 264 833 l 264 896 l 493 896 l 493 972 l 264 972 l 264 1042 l 111 1042 l 111 972 l 21 972 l 21 896 l 111 896 z "},"Ĩ":{"ha":438,"x_min":0,"x_max":0,"o":"m 139 0 l 299 0 l 299 1042 l 139 1042 z m 294 1278 l 247 1326 b 175 1386 221 1353 197 1373 b 94 1406 153 1399 126 1406 b -7 1365 52 1406 18 1392 b -44 1250 -32 1338 -44 1300 l -44 1142 l 76 1142 l 76 1254 b 84 1281 76 1266 79 1275 b 103 1289 89 1286 95 1289 b 122 1282 110 1289 117 1287 b 144 1261 128 1277 135 1270 l 192 1213 b 264 1153 218 1186 242 1166 b 344 1133 286 1140 313 1133 b 447 1176 389 1133 423 1147 b 483 1292 471 1204 483 1243 l 483 1397 l 363 1397 l 363 1285 b 356 1258 363 1273 360 1264 b 338 1250 351 1253 345 1250 b 317 1257 329 1250 322 1252 b 294 1278 311 1262 304 1269 z "},"ĩ":{"ha":403,"x_min":0,"x_max":0,"o":"m 125 0 l 278 0 l 278 833 l 125 833 z m 278 1069 l 231 1118 b 158 1178 205 1145 181 1165 b 78 1197 136 1191 109 1197 b -24 1157 35 1197 1 1184 b -61 1042 -49 1130 -61 1092 l -61 933 l 60 933 l 60 1046 b 67 1072 60 1058 62 1067 b 86 1081 72 1078 79 1081 b 106 1074 94 1081 100 1078 b 128 1053 111 1069 119 1062 l 175 1004 b 247 944 201 977 225 957 b 328 925 269 931 296 925 b 431 967 372 925 406 939 b 467 1083 455 996 467 1034 l 467 1189 l 346 1189 l 346 1076 b 339 1050 346 1064 344 1056 b 321 1042 334 1044 328 1042 b 300 1049 313 1042 306 1044 b 278 1069 294 1053 287 1060 z "},"Ī":{"ha":438,"x_min":0,"x_max":0,"o":"m 139 0 l 299 0 l 299 1042 l 139 1042 z m 385 1156 l 385 1264 l 51 1264 l 51 1156 z "},"ī":{"ha":403,"x_min":0,"x_max":0,"o":"m 125 0 l 278 0 l 278 833 l 125 833 z m 368 947 l 368 1056 l 35 1056 l 35 947 z "},"Ĭ":{"ha":438,"x_min":0,"x_max":0,"o":"m 139 0 l 299 0 l 299 1042 l 139 1042 z m 0 1361 l 0 1297 b 40 1193 0 1257 13 1223 b 150 1149 66 1163 103 1149 l 288 1149 b 396 1193 333 1149 369 1163 b 436 1297 423 1223 436 1257 l 436 1361 l 331 1361 l 331 1306 b 316 1258 331 1284 326 1269 b 268 1243 306 1248 290 1243 l 171 1243 b 123 1259 150 1243 134 1248 b 107 1306 112 1270 107 1285 l 107 1361 z "},"ĭ":{"ha":403,"x_min":0,"x_max":0,"o":"m 125 0 l 278 0 l 278 833 l 125 833 z m -18 1153 l -18 1089 b 22 985 -18 1049 -5 1014 b 132 940 48 955 85 940 l 269 940 b 378 985 315 940 351 955 b 418 1089 405 1014 418 1049 l 418 1153 l 313 1153 l 313 1097 b 298 1050 313 1076 308 1060 b 250 1035 288 1040 272 1035 l 153 1035 b 105 1051 131 1035 116 1040 b 89 1097 94 1061 89 1077 l 89 1153 z "},"Į":{"ha":438,"x_min":0,"x_max":0,"o":"m 139 0 l 299 0 l 299 1042 l 139 1042 z m 150 0 l 104 -46 b 56 -108 81 -69 65 -90 b 43 -162 47 -127 43 -145 b 77 -235 43 -191 54 -215 b 188 -264 100 -254 137 -264 l 278 -264 l 278 -168 l 224 -168 b 190 -158 209 -168 198 -165 b 179 -135 183 -152 179 -144 b 188 -110 179 -125 182 -117 b 211 -81 194 -102 202 -93 l 278 0 z "},"į":{"ha":403,"x_min":0,"x_max":0,"o":"m 278 906 l 278 1042 l 125 1042 l 125 906 z m 125 0 l 278 0 l 278 833 l 125 833 z m 150 0 l 104 -46 b 56 -108 81 -69 65 -90 b 43 -162 47 -127 43 -145 b 77 -235 43 -191 54 -215 b 188 -264 100 -254 137 -264 l 278 -264 l 278 -168 l 224 -168 b 190 -158 209 -168 198 -165 b 179 -135 183 -152 179 -144 b 188 -110 179 -125 182 -117 b 211 -81 194 -102 202 -93 l 278 0 z "},"İ":{"ha":438,"x_min":0,"x_max":0,"o":"m 139 0 l 299 0 l 299 1042 l 139 1042 z m 294 1142 l 294 1278 l 142 1278 l 142 1142 z "},"ı":{"ha":403,"x_min":0,"x_max":0,"o":"m 125 0 l 278 0 l 278 833 l 125 833 z "},"Ķ":{"ha":1090,"x_min":0,"x_max":0,"o":"m 125 0 l 285 0 l 285 446 l 360 446 b 460 431 405 446 438 441 b 532 374 481 422 505 402 l 871 0 l 1076 0 l 601 532 l 1058 1042 l 863 1042 l 532 671 b 460 613 506 641 482 622 b 360 599 439 603 405 599 l 285 599 l 285 1042 l 125 1042 z m 440 -261 l 564 -261 b 597 -164 581 -217 593 -184 b 604 -90 602 -144 604 -119 l 604 -56 l 476 -56 l 476 -90 b 469 -164 476 -119 474 -144 b 440 -261 465 -184 455 -217 z "},"ķ":{"ha":988,"x_min":0,"x_max":0,"o":"m 97 0 l 250 0 l 250 353 l 339 353 b 410 342 370 353 394 349 b 467 297 427 335 445 320 l 738 0 l 932 0 l 535 424 l 921 833 l 738 833 l 467 544 b 410 499 445 521 427 506 b 339 489 394 492 370 489 l 250 489 l 250 1042 l 97 1042 z m 388 -261 l 511 -261 b 544 -164 529 -217 540 -184 b 551 -90 549 -144 551 -119 l 551 -56 l 424 -56 l 424 -90 b 417 -164 424 -119 421 -144 b 388 -261 412 -184 402 -217 z "},"ĸ":{"ha":974,"x_min":0,"x_max":0,"o":"m 111 0 l 264 0 l 264 353 l 353 353 b 424 342 384 353 408 349 b 481 297 441 335 459 320 l 751 0 l 946 0 l 549 424 l 935 833 l 751 833 l 481 544 b 424 499 459 521 441 506 b 353 489 408 492 384 489 l 264 489 l 264 833 l 111 833 z "},"Ĺ":{"ha":932,"x_min":0,"x_max":0,"o":"m 125 0 l 904 0 l 904 139 l 285 139 l 285 1042 l 125 1042 z m 147 1142 l 283 1142 l 392 1403 l 244 1403 z "},"ĺ":{"ha":403,"x_min":0,"x_max":0,"o":"m 125 1042 l 125 0 l 278 0 l 278 1042 z m 140 1142 l 276 1142 l 385 1403 l 238 1403 z "},"Ļ":{"ha":932,"x_min":0,"x_max":0,"o":"m 125 0 l 904 0 l 904 139 l 285 139 l 285 1042 l 125 1042 z m 424 -261 l 547 -261 b 581 -164 565 -217 576 -184 b 588 -90 585 -144 588 -119 l 588 -56 l 460 -56 l 460 -90 b 453 -164 460 -119 457 -144 b 424 -261 448 -184 438 -217 z "},"ļ":{"ha":403,"x_min":0,"x_max":0,"o":"m 125 1042 l 125 0 l 278 0 l 278 1042 z m 101 -261 l 225 -261 b 258 -164 243 -217 254 -184 b 265 -90 263 -144 265 -119 l 265 -56 l 138 -56 l 138 -90 b 131 -164 138 -119 135 -144 b 101 -261 126 -184 116 -217 z "},"Ľ":{"ha":932,"x_min":0,"x_max":0,"o":"m 125 0 l 904 0 l 904 139 l 285 139 l 285 1042 l 125 1042 z m 515 722 l 647 722 l 692 1042 l 560 1042 z "},"ľ":{"ha":525,"x_min":0,"x_max":0,"o":"m 125 1042 l 125 0 l 278 0 l 278 1042 z m 349 722 l 481 722 l 525 1042 l 393 1042 z "},"Ŀ":{"ha":932,"x_min":0,"x_max":0,"o":"m 125 0 l 904 0 l 904 139 l 285 139 l 285 1042 l 125 1042 z m 557 497 l 731 497 l 731 671 l 557 671 z "},"ŀ":{"ha":528,"x_min":0,"x_max":0,"o":"m 125 1042 l 125 0 l 278 0 l 278 1042 z m 514 453 l 514 589 l 361 589 l 361 453 z "},"Ł":{"ha":932,"x_min":0,"x_max":0,"o":"m 125 0 l 904 0 l 904 139 l 285 139 l 285 449 l 646 636 l 646 754 l 285 567 l 285 1042 l 125 1042 l 125 483 l -21 407 l -21 289 l 125 365 z "},"ł":{"ha":431,"x_min":0,"x_max":0,"o":"m 35 344 l 139 417 l 139 0 l 292 0 l 292 522 l 396 594 l 396 699 l 292 626 l 292 1042 l 139 1042 l 139 521 l 35 449 z "},"Ń":{"ha":1347,"x_min":0,"x_max":0,"o":"m 125 0 l 285 0 l 285 856 b 294 893 285 871 288 884 b 324 907 300 902 310 907 b 350 894 335 907 344 903 b 374 858 356 885 364 873 l 828 129 b 916 22 856 85 885 49 b 1039 -18 947 -5 988 -18 b 1176 38 1099 -18 1145 0 b 1222 185 1207 75 1222 124 l 1222 1042 l 1063 1042 l 1063 181 b 1053 147 1063 166 1059 154 b 1026 135 1046 139 1038 135 b 1001 147 1018 135 1010 139 b 976 179 993 156 985 166 l 532 897 b 436 1018 500 950 468 990 b 317 1060 405 1046 365 1060 b 169 998 248 1060 199 1039 b 125 847 140 957 125 906 z m 613 1142 l 749 1142 l 857 1403 l 710 1403 z "},"ń":{"ha":993,"x_min":0,"x_max":0,"o":"m 111 0 l 264 0 l 264 694 l 592 694 b 697 664 641 694 676 684 b 729 551 719 644 729 606 l 729 0 l 882 0 l 882 535 b 810 757 882 632 858 706 b 581 833 762 808 685 833 l 111 833 z m 436 933 l 572 933 l 681 1194 l 533 1194 z "},"Ņ":{"ha":1347,"x_min":0,"x_max":0,"o":"m 125 0 l 285 0 l 285 856 b 294 893 285 871 288 884 b 324 907 300 902 310 907 b 350 894 335 907 344 903 b 374 858 356 885 364 873 l 828 129 b 916 22 856 85 885 49 b 1039 -18 947 -5 988 -18 b 1176 38 1099 -18 1145 0 b 1222 185 1207 75 1222 124 l 1222 1042 l 1063 1042 l 1063 181 b 1053 147 1063 166 1059 154 b 1026 135 1046 139 1038 135 b 1001 147 1018 135 1010 139 b 976 179 993 156 985 166 l 532 897 b 436 1018 500 950 468 990 b 317 1060 405 1046 365 1060 b 169 998 248 1060 199 1039 b 125 847 140 957 125 906 z m 575 -261 l 699 -261 b 732 -164 716 -217 727 -184 b 739 -90 737 -144 739 -119 l 739 -56 l 611 -56 l 611 -90 b 604 -164 611 -119 609 -144 b 575 -261 600 -184 590 -217 z "},"ņ":{"ha":993,"x_min":0,"x_max":0,"o":"m 111 0 l 264 0 l 264 694 l 592 694 b 697 664 641 694 676 684 b 729 551 719 644 729 606 l 729 0 l 882 0 l 882 535 b 810 757 882 632 858 706 b 581 833 762 808 685 833 l 111 833 z m 399 -261 l 522 -261 b 556 -164 540 -217 551 -184 b 563 -90 560 -144 563 -119 l 563 -56 l 435 -56 l 435 -90 b 428 -164 435 -119 432 -144 b 399 -261 423 -184 413 -217 z "},"Ň":{"ha":1347,"x_min":0,"x_max":0,"o":"m 125 0 l 285 0 l 285 856 b 294 893 285 871 288 884 b 324 907 300 902 310 907 b 350 894 335 907 344 903 b 374 858 356 885 364 873 l 828 129 b 916 22 856 85 885 49 b 1039 -18 947 -5 988 -18 b 1176 38 1099 -18 1145 0 b 1222 185 1207 75 1222 124 l 1222 1042 l 1063 1042 l 1063 181 b 1053 147 1063 166 1059 154 b 1026 135 1046 139 1038 135 b 1001 147 1018 135 1010 139 b 976 179 993 156 985 166 l 532 897 b 436 1018 500 950 468 990 b 317 1060 405 1046 365 1060 b 169 998 248 1060 199 1039 b 125 847 140 957 125 906 z m 765 1172 l 917 1389 l 774 1389 l 675 1238 l 575 1389 l 432 1389 l 583 1172 b 619 1135 594 1157 606 1145 b 675 1119 633 1125 652 1119 b 729 1135 698 1119 716 1125 b 765 1172 742 1145 754 1157 z "},"ň":{"ha":993,"x_min":0,"x_max":0,"o":"m 111 0 l 264 0 l 264 694 l 592 694 b 697 664 641 694 676 684 b 729 551 719 644 729 606 l 729 0 l 882 0 l 882 535 b 810 757 882 632 858 706 b 581 833 762 808 685 833 l 111 833 z m 589 964 l 740 1181 l 597 1181 l 499 1029 l 399 1181 l 256 1181 l 407 964 b 443 926 417 949 429 937 b 499 911 457 916 475 911 b 553 926 522 911 540 916 b 589 964 566 937 578 949 z "},"Ŋ":{"ha":1347,"x_min":0,"x_max":0,"o":"m 549 -208 l 833 -208 b 1129 -107 969 -208 1067 -175 b 1222 160 1191 -39 1222 50 l 1222 1042 l 1063 1042 l 1063 213 l 532 897 b 478 967 512 923 494 946 b 431 1017 462 987 446 1004 b 380 1049 415 1031 398 1041 b 317 1060 362 1056 341 1060 b 169 998 248 1060 199 1039 b 125 847 140 957 125 906 l 125 0 l 285 0 l 285 856 b 294 893 285 871 288 884 b 324 907 300 902 310 907 b 349 893 335 907 343 902 b 374 858 355 884 363 872 l 1032 14 b 969 -40 1017 -9 996 -27 b 868 -60 941 -53 908 -60 l 549 -60 z "},"ŋ":{"ha":993,"x_min":0,"x_max":0,"o":"m 111 0 l 264 0 l 264 694 l 592 694 b 697 664 641 694 676 684 b 729 551 719 644 729 606 l 729 3 b 712 -58 729 -26 723 -46 b 656 -76 700 -70 681 -76 l 558 -76 l 558 -208 l 638 -208 b 819 -158 716 -208 777 -192 b 882 0 861 -125 882 -72 l 882 535 b 810 757 882 632 858 706 b 581 833 762 808 685 833 l 111 833 z "},"Ō":{"ha":1208,"x_min":0,"x_max":0,"o":"m 1132 438 l 1132 604 b 1105 792 1132 674 1123 736 b 1022 936 1087 848 1059 896 b 880 1028 985 976 938 1006 b 674 1060 822 1049 753 1060 l 535 1060 b 328 1028 455 1060 386 1049 b 185 936 269 1006 222 976 b 103 792 148 896 120 848 b 76 604 85 736 76 674 l 76 438 b 103 251 76 369 85 307 b 185 108 120 195 148 147 b 328 16 222 68 269 38 b 535 -17 386 -6 455 -17 l 674 -17 b 880 16 753 -17 822 -6 b 1022 108 938 38 985 68 b 1105 251 1059 147 1087 195 b 1132 438 1123 307 1132 369 z m 250 400 l 250 643 b 311 852 250 737 270 806 b 514 921 352 898 419 921 l 694 921 b 898 852 790 921 858 898 b 958 643 938 806 958 737 l 958 400 b 898 192 958 307 938 238 b 694 122 858 145 790 122 l 514 122 b 311 192 419 122 352 145 b 250 400 270 238 250 307 z m 771 1156 l 771 1264 l 438 1264 l 438 1156 z "},"ō":{"ha":1038,"x_min":0,"x_max":0,"o":"m 947 485 b 851 755 947 600 915 691 b 571 851 788 819 694 851 l 467 851 b 181 755 337 851 242 819 b 90 485 121 691 90 600 l 90 349 b 181 78 90 233 121 143 b 467 -18 242 14 337 -18 l 571 -18 b 851 78 694 -18 788 14 b 947 349 915 143 947 233 z m 788 506 l 788 328 b 745 165 788 254 773 200 b 590 114 717 131 665 114 l 446 114 b 295 165 375 114 325 131 b 250 328 265 200 250 254 l 250 506 b 295 668 250 580 265 634 b 446 719 325 702 375 719 l 590 719 b 745 668 665 719 717 702 b 788 506 773 634 788 580 z m 686 947 l 686 1056 l 353 1056 l 353 947 z "},"Ŏ":{"ha":1208,"x_min":0,"x_max":0,"o":"m 1132 438 l 1132 604 b 1105 792 1132 674 1123 736 b 1022 936 1087 848 1059 896 b 880 1028 985 976 938 1006 b 674 1060 822 1049 753 1060 l 535 1060 b 328 1028 455 1060 386 1049 b 185 936 269 1006 222 976 b 103 792 148 896 120 848 b 76 604 85 736 76 674 l 76 438 b 103 251 76 369 85 307 b 185 108 120 195 148 147 b 328 16 222 68 269 38 b 535 -17 386 -6 455 -17 l 674 -17 b 880 16 753 -17 822 -6 b 1022 108 938 38 985 68 b 1105 251 1059 147 1087 195 b 1132 438 1123 307 1132 369 z m 250 400 l 250 643 b 311 852 250 737 270 806 b 514 921 352 898 419 921 l 694 921 b 898 852 790 921 858 898 b 958 643 938 806 958 737 l 958 400 b 898 192 958 307 938 238 b 694 122 858 145 790 122 l 514 122 b 311 192 419 122 352 145 b 250 400 270 238 250 307 z m 386 1361 l 386 1297 b 426 1193 386 1257 399 1223 b 536 1149 452 1163 489 1149 l 674 1149 b 782 1193 719 1149 755 1163 b 822 1297 809 1223 822 1257 l 822 1361 l 717 1361 l 717 1306 b 702 1258 717 1284 712 1269 b 654 1243 692 1248 676 1243 l 557 1243 b 509 1259 536 1243 520 1248 b 493 1306 498 1270 493 1285 l 493 1361 z "},"ŏ":{"ha":1038,"x_min":0,"x_max":0,"o":"m 947 485 b 851 755 947 600 915 691 b 571 851 788 819 694 851 l 467 851 b 181 755 337 851 242 819 b 90 485 121 691 90 600 l 90 349 b 181 78 90 233 121 143 b 467 -18 242 14 337 -18 l 571 -18 b 851 78 694 -18 788 14 b 947 349 915 143 947 233 z m 788 506 l 788 328 b 745 165 788 254 773 200 b 590 114 717 131 665 114 l 446 114 b 295 165 375 114 325 131 b 250 328 265 200 250 254 l 250 506 b 295 668 250 580 265 634 b 446 719 325 702 375 719 l 590 719 b 745 668 665 719 717 702 b 788 506 773 634 788 580 z m 301 1153 l 301 1089 b 341 985 301 1049 315 1014 b 451 940 367 955 404 940 l 589 940 b 697 985 634 940 670 955 b 738 1089 724 1014 738 1049 l 738 1153 l 632 1153 l 632 1097 b 617 1050 632 1076 627 1060 b 569 1035 608 1040 592 1035 l 472 1035 b 424 1051 451 1035 435 1040 b 408 1097 414 1061 408 1077 l 408 1153 z "},"Ő":{"ha":1208,"x_min":0,"x_max":0,"o":"m 1132 438 l 1132 604 b 1105 792 1132 674 1123 736 b 1022 936 1087 848 1059 896 b 880 1028 985 976 938 1006 b 674 1060 822 1049 753 1060 l 535 1060 b 328 1028 455 1060 386 1049 b 185 936 269 1006 222 976 b 103 792 148 896 120 848 b 76 604 85 736 76 674 l 76 438 b 103 251 76 369 85 307 b 185 108 120 195 148 147 b 328 16 222 68 269 38 b 535 -17 386 -6 455 -17 l 674 -17 b 880 16 753 -17 822 -6 b 1022 108 938 38 985 68 b 1105 251 1059 147 1087 195 b 1132 438 1123 307 1132 369 z m 250 400 l 250 643 b 311 852 250 737 270 806 b 514 921 352 898 419 921 l 694 921 b 898 852 790 921 858 898 b 958 643 938 806 958 737 l 958 400 b 898 192 958 307 938 238 b 694 122 858 145 790 122 l 514 122 b 311 192 419 122 352 145 b 250 400 270 238 250 307 z m 438 1142 l 574 1142 l 682 1403 l 535 1403 z m 663 1142 l 799 1142 l 907 1403 l 760 1403 z "},"ő":{"ha":1038,"x_min":0,"x_max":0,"o":"m 947 485 b 851 755 947 600 915 691 b 571 851 788 819 694 851 l 467 851 b 181 755 337 851 242 819 b 90 485 121 691 90 600 l 90 349 b 181 78 90 233 121 143 b 467 -18 242 14 337 -18 l 571 -18 b 851 78 694 -18 788 14 b 947 349 915 143 947 233 z m 788 506 l 788 328 b 745 165 788 254 773 200 b 590 114 717 131 665 114 l 446 114 b 295 165 375 114 325 131 b 250 328 265 200 250 254 l 250 506 b 295 668 250 580 265 634 b 446 719 325 702 375 719 l 590 719 b 745 668 665 719 717 702 b 788 506 773 634 788 580 z m 353 933 l 489 933 l 597 1194 l 450 1194 z m 578 933 l 714 933 l 822 1194 l 675 1194 z "},"Œ":{"ha":1747,"x_min":0,"x_max":0,"o":"m 76 586 l 76 456 b 103 267 76 386 85 323 b 185 124 120 211 148 163 b 326 32 222 84 269 53 b 528 0 383 11 450 0 l 1654 0 l 1654 139 l 1007 139 l 1007 460 l 1654 460 l 1654 599 l 1007 599 l 1007 903 l 1654 903 l 1654 1042 l 535 1042 b 325 1010 453 1042 383 1031 b 183 918 267 988 219 958 b 102 774 146 878 119 830 b 76 586 85 718 76 656 z m 507 139 b 308 208 413 139 347 162 b 250 418 269 255 250 325 l 250 625 b 310 834 250 719 270 788 b 514 903 350 880 418 903 l 847 903 l 847 139 z "},"œ":{"ha":1664,"x_min":0,"x_max":0,"o":"m 947 485 b 851 755 947 600 915 691 b 571 851 788 819 694 851 l 467 851 b 181 755 337 851 242 819 b 90 485 121 691 90 600 l 90 349 b 181 78 90 233 121 143 b 467 -18 242 14 337 -18 l 571 -18 b 851 78 694 -18 788 14 b 947 349 915 143 947 233 z m 788 506 l 788 328 b 745 165 788 254 773 200 b 590 114 717 131 665 114 l 446 114 b 295 165 375 114 325 131 b 250 328 265 200 250 254 l 250 506 b 295 668 250 580 265 634 b 446 719 325 702 375 719 l 590 719 b 745 668 665 719 717 702 b 788 506 773 634 788 580 z m 1601 364 l 1601 518 b 1511 764 1601 627 1571 709 b 1239 846 1451 819 1360 846 l 1163 846 b 883 753 1040 846 947 815 b 786 476 818 691 786 599 l 786 331 b 815 181 786 272 796 222 b 896 78 835 139 862 105 b 1019 19 930 51 971 31 b 1178 0 1068 6 1120 0 l 1575 0 l 1575 132 l 1157 132 b 998 172 1086 132 1033 145 b 946 296 963 199 946 240 l 946 364 z m 1258 714 b 1404 673 1331 714 1379 700 b 1442 539 1429 646 1442 601 l 1442 490 l 946 490 l 946 497 b 991 667 946 579 961 635 b 1142 714 1021 698 1071 714 z "},"Ŕ":{"ha":1115,"x_min":0,"x_max":0,"o":"m 1028 0 l 611 465 l 679 465 b 949 521 795 465 885 484 b 1046 735 1014 558 1046 629 l 1046 772 b 1019 903 1046 825 1037 869 b 943 986 1001 938 975 966 b 828 1029 911 1006 872 1021 b 686 1042 784 1038 737 1042 l 125 1042 l 125 0 l 285 0 l 285 903 l 721 903 b 847 876 781 903 823 894 b 882 775 870 859 882 825 l 882 732 b 847 629 882 682 870 648 b 721 601 823 611 781 601 l 481 601 b 423 585 457 601 438 596 b 393 547 408 575 398 562 b 394 496 388 531 389 514 b 422 446 399 477 408 461 l 833 0 z m 497 1142 l 633 1142 l 742 1403 l 594 1403 z "},"ŕ":{"ha":663,"x_min":0,"x_max":0,"o":"m 111 576 l 111 0 l 264 0 l 264 589 b 292 677 264 631 273 661 b 386 701 311 693 343 701 l 635 701 l 635 833 l 393 833 b 191 768 312 833 244 812 b 111 576 138 725 111 661 z m 347 933 l 483 933 l 592 1194 l 444 1194 z "},"Ŗ":{"ha":1115,"x_min":0,"x_max":0,"o":"m 1028 0 l 611 465 l 679 465 b 949 521 795 465 885 484 b 1046 735 1014 558 1046 629 l 1046 772 b 1019 903 1046 825 1037 869 b 943 986 1001 938 975 966 b 828 1029 911 1006 872 1021 b 686 1042 784 1038 737 1042 l 125 1042 l 125 0 l 285 0 l 285 903 l 721 903 b 847 876 781 903 823 894 b 882 775 870 859 882 825 l 882 732 b 847 629 882 682 870 648 b 721 601 823 611 781 601 l 481 601 b 423 585 457 601 438 596 b 393 547 408 575 398 562 b 394 496 388 531 389 514 b 422 446 399 477 408 461 l 833 0 z m 458 -261 l 582 -261 b 615 -164 600 -217 611 -184 b 622 -90 620 -144 622 -119 l 622 -56 l 494 -56 l 494 -90 b 488 -164 494 -119 492 -144 b 458 -261 483 -184 473 -217 z "},"ŗ":{"ha":663,"x_min":0,"x_max":0,"o":"m 111 576 l 111 0 l 264 0 l 264 589 b 292 677 264 631 273 661 b 386 701 311 693 343 701 l 635 701 l 635 833 l 393 833 b 191 768 312 833 244 812 b 111 576 138 725 111 661 z m 93 -261 l 217 -261 b 250 -164 234 -217 245 -184 b 257 -90 255 -144 257 -119 l 257 -56 l 129 -56 l 129 -90 b 122 -164 129 -119 127 -144 b 93 -261 118 -184 108 -217 z "},"Ř":{"ha":1115,"x_min":0,"x_max":0,"o":"m 1028 0 l 611 465 l 679 465 b 949 521 795 465 885 484 b 1046 735 1014 558 1046 629 l 1046 772 b 1019 903 1046 825 1037 869 b 943 986 1001 938 975 966 b 828 1029 911 1006 872 1021 b 686 1042 784 1038 737 1042 l 125 1042 l 125 0 l 285 0 l 285 903 l 721 903 b 847 876 781 903 823 894 b 882 775 870 859 882 825 l 882 732 b 847 629 882 682 870 648 b 721 601 823 611 781 601 l 481 601 b 423 585 457 601 438 596 b 393 547 408 575 398 562 b 394 496 388 531 389 514 b 422 446 399 477 408 461 l 833 0 z m 649 1172 l 800 1389 l 657 1389 l 558 1238 l 458 1389 l 315 1389 l 467 1172 b 503 1135 477 1157 489 1145 b 558 1119 517 1125 535 1119 b 613 1135 581 1119 600 1125 b 649 1172 625 1145 638 1157 z "},"ř":{"ha":663,"x_min":0,"x_max":0,"o":"m 111 576 l 111 0 l 264 0 l 264 589 b 292 677 264 631 273 661 b 386 701 311 693 343 701 l 635 701 l 635 833 l 393 833 b 191 768 312 833 244 812 b 111 576 138 725 111 661 z m 499 964 l 650 1181 l 507 1181 l 408 1029 l 308 1181 l 165 1181 l 317 964 b 353 926 327 949 339 937 b 408 911 367 916 385 911 b 463 926 431 911 450 916 b 499 964 475 937 488 949 z "},"Ś":{"ha":979,"x_min":0,"x_max":0,"o":"m 611 428 b 745 369 677 410 722 391 b 781 272 769 347 781 315 b 738 175 781 231 766 199 b 604 139 710 151 665 139 l 90 139 l 90 0 l 589 0 b 853 78 707 0 796 26 b 940 286 911 131 940 200 b 866 466 940 363 916 423 b 654 569 816 509 746 544 l 390 644 b 260 701 327 662 284 681 b 225 786 237 722 225 750 b 263 868 225 818 238 845 b 401 903 289 891 335 903 l 906 903 l 906 1042 l 419 1042 b 151 969 299 1042 209 1017 b 63 779 92 920 63 857 b 137 600 63 701 87 642 b 347 500 186 558 256 525 z m 471 1142 l 607 1142 l 715 1403 l 568 1403 z "},"ś":{"ha":871,"x_min":0,"x_max":0,"o":"m 515 332 b 631 292 571 320 609 307 b 663 229 652 278 663 257 b 632 159 663 200 652 177 b 514 132 612 141 572 132 l 76 132 l 76 0 l 478 0 b 736 66 597 0 683 22 b 815 240 789 110 815 168 b 744 395 815 310 791 361 b 543 472 696 429 629 455 l 342 514 b 246 551 295 523 263 535 b 219 613 228 566 219 587 b 244 675 219 637 228 657 b 340 701 261 693 293 701 l 788 701 l 788 833 l 368 833 b 139 770 266 833 190 812 b 63 604 88 728 63 673 b 128 453 63 539 84 489 b 311 375 172 418 233 392 z m 389 933 l 525 933 l 633 1194 l 486 1194 z "},"Ş":{"ha":979,"x_min":0,"x_max":0,"o":"m 611 428 b 745 369 677 410 722 391 b 781 272 769 347 781 315 b 738 175 781 231 766 199 b 604 139 710 151 665 139 l 90 139 l 90 0 l 589 0 b 853 78 707 0 796 26 b 940 286 911 131 940 200 b 866 466 940 363 916 423 b 654 569 816 509 746 544 l 390 644 b 260 701 327 662 284 681 b 225 786 237 722 225 750 b 263 868 225 818 238 845 b 401 903 289 891 335 903 l 906 903 l 906 1042 l 419 1042 b 151 969 299 1042 209 1017 b 63 779 92 920 63 857 b 137 600 63 701 87 642 b 347 500 186 558 256 525 z m 558 0 l 422 0 l 314 -261 l 461 -261 z "},"ş":{"ha":871,"x_min":0,"x_max":0,"o":"m 515 332 b 631 292 571 320 609 307 b 663 229 652 278 663 257 b 632 159 663 200 652 177 b 514 132 612 141 572 132 l 76 132 l 76 0 l 478 0 b 736 66 597 0 683 22 b 815 240 789 110 815 168 b 744 395 815 310 791 361 b 543 472 696 429 629 455 l 342 514 b 246 551 295 523 263 535 b 219 613 228 566 219 587 b 244 675 219 637 228 657 b 340 701 261 693 293 701 l 788 701 l 788 833 l 368 833 b 139 770 266 833 190 812 b 63 604 88 728 63 673 b 128 453 63 539 84 489 b 311 375 172 418 233 392 z m 476 0 l 340 0 l 232 -261 l 379 -261 z "},"Š":{"ha":979,"x_min":0,"x_max":0,"o":"m 611 428 b 745 369 677 410 722 391 b 781 272 769 347 781 315 b 738 175 781 231 766 199 b 604 139 710 151 665 139 l 90 139 l 90 0 l 589 0 b 853 78 707 0 796 26 b 940 286 911 131 940 200 b 866 466 940 363 916 423 b 654 569 816 509 746 544 l 390 644 b 260 701 327 662 284 681 b 225 786 237 722 225 750 b 263 868 225 818 238 845 b 401 903 289 891 335 903 l 906 903 l 906 1042 l 419 1042 b 151 969 299 1042 209 1017 b 63 779 92 920 63 857 b 137 600 63 701 87 642 b 347 500 186 558 256 525 z m 624 1172 l 775 1389 l 632 1389 l 533 1238 l 433 1389 l 290 1389 l 442 1172 b 478 1135 452 1157 464 1145 b 533 1119 492 1125 510 1119 b 588 1135 556 1119 575 1125 b 624 1172 600 1145 613 1157 z "},"š":{"ha":871,"x_min":0,"x_max":0,"o":"m 515 332 b 631 292 571 320 609 307 b 663 229 652 278 663 257 b 632 159 663 200 652 177 b 514 132 612 141 572 132 l 76 132 l 76 0 l 478 0 b 736 66 597 0 683 22 b 815 240 789 110 815 168 b 744 395 815 310 791 361 b 543 472 696 429 629 455 l 342 514 b 246 551 295 523 263 535 b 219 613 228 566 219 587 b 244 675 219 637 228 657 b 340 701 261 693 293 701 l 788 701 l 788 833 l 368 833 b 139 770 266 833 190 812 b 63 604 88 728 63 673 b 128 453 63 539 84 489 b 311 375 172 418 233 392 z m 540 964 l 692 1181 l 549 1181 l 450 1029 l 350 1181 l 207 1181 l 358 964 b 394 926 369 949 381 937 b 450 911 408 916 427 911 b 504 926 473 911 491 916 b 540 964 517 937 529 949 z "},"Ţ":{"ha":1035,"x_min":0,"x_max":0,"o":"m 438 0 l 597 0 l 597 903 l 1014 903 l 1014 1042 l 21 1042 l 21 903 l 438 903 z m 588 0 l 451 0 l 343 -261 l 490 -261 z "},"ţ":{"ha":681,"x_min":0,"x_max":0,"o":"m 21 701 l 156 701 l 156 233 b 222 58 156 156 178 97 b 404 0 266 19 326 0 l 618 0 l 618 132 l 403 132 b 331 152 369 132 345 139 b 308 225 316 166 308 190 l 308 701 l 618 701 l 618 833 l 308 833 l 308 996 l 160 996 l 160 833 l 21 833 z m 506 0 l 369 0 l 261 -261 l 408 -261 z "},"Ť":{"ha":1035,"x_min":0,"x_max":0,"o":"m 438 0 l 597 0 l 597 903 l 1014 903 l 1014 1042 l 21 1042 l 21 903 l 438 903 z m 610 1172 l 761 1389 l 618 1389 l 519 1238 l 419 1389 l 276 1389 l 428 1172 b 464 1135 438 1157 450 1145 b 519 1119 478 1125 496 1119 b 574 1135 543 1119 561 1125 b 610 1172 587 1145 599 1157 z "},"ť":{"ha":681,"x_min":0,"x_max":0,"o":"m 379 901 l 511 901 l 569 1138 l 438 1138 z m 21 701 l 156 701 l 156 233 b 222 58 156 156 178 97 b 404 0 266 19 326 0 l 618 0 l 618 132 l 403 132 b 331 152 369 132 345 139 b 308 225 316 166 308 190 l 308 701 l 618 701 l 618 833 l 308 833 l 308 996 l 160 996 l 160 833 l 21 833 z "},"Ŧ":{"ha":979,"x_min":0,"x_max":0,"o":"m 438 0 l 597 0 l 597 451 l 833 451 l 833 569 l 597 569 l 597 903 l 1014 903 l 1014 1042 l 21 1042 l 21 903 l 438 903 l 438 569 l 201 569 l 201 451 l 438 451 z "},"ŧ":{"ha":681,"x_min":0,"x_max":0,"o":"m 21 396 l 156 396 l 156 233 b 222 58 156 156 178 97 b 404 0 266 19 326 0 l 618 0 l 618 132 l 403 132 b 331 152 369 132 345 139 b 308 225 316 166 308 190 l 308 396 l 493 396 l 493 472 l 308 472 l 308 701 l 618 701 l 618 833 l 308 833 l 308 996 l 160 996 l 160 833 l 21 833 l 21 701 l 156 701 l 156 472 l 21 472 z "},"Ũ":{"ha":1222,"x_min":0,"x_max":0,"o":"m 514 -18 l 694 -18 b 1003 64 837 -18 940 9 b 1097 324 1066 119 1097 205 l 1097 1042 l 938 1042 l 938 313 b 887 168 938 248 921 200 b 738 121 853 137 803 121 l 488 121 b 334 168 418 121 367 137 b 285 313 301 200 285 248 l 285 1042 l 125 1042 l 125 324 b 218 64 125 205 156 119 b 514 -18 280 9 379 -18 z m 688 1278 l 640 1326 b 568 1386 614 1353 590 1373 b 488 1406 546 1399 519 1406 b 386 1365 445 1406 411 1392 b 349 1250 361 1338 349 1300 l 349 1142 l 469 1142 l 469 1254 b 477 1281 469 1266 472 1275 b 496 1289 482 1286 488 1289 b 515 1282 503 1289 510 1287 b 538 1261 521 1277 528 1270 l 585 1213 b 657 1153 611 1186 635 1166 b 738 1133 679 1140 706 1133 b 840 1176 782 1133 816 1147 b 876 1292 864 1204 876 1243 l 876 1397 l 756 1397 l 756 1285 b 749 1258 756 1273 753 1264 b 731 1250 744 1253 738 1250 b 710 1257 722 1250 715 1252 b 688 1278 704 1262 697 1269 z "},"ũ":{"ha":993,"x_min":0,"x_max":0,"o":"m 882 833 l 729 833 l 729 139 l 401 139 b 296 169 352 139 317 149 b 264 282 275 190 264 227 l 264 833 l 111 833 l 111 299 b 183 76 111 201 135 127 b 413 0 231 25 308 0 l 882 0 z m 560 1069 l 513 1118 b 440 1178 487 1145 463 1165 b 360 1197 418 1191 391 1197 b 258 1157 317 1197 283 1184 b 221 1042 233 1130 221 1092 l 221 933 l 342 933 l 342 1046 b 349 1072 342 1058 344 1067 b 368 1081 354 1078 361 1081 b 388 1074 375 1081 382 1078 b 410 1053 393 1069 400 1062 l 457 1004 b 529 944 483 977 507 957 b 610 925 551 931 578 925 b 713 967 654 925 688 939 b 749 1083 737 996 749 1034 l 749 1189 l 628 1189 l 628 1076 b 621 1050 628 1064 625 1056 b 603 1042 616 1044 610 1042 b 582 1049 594 1042 588 1044 b 560 1069 576 1053 569 1060 z "},"Ū":{"ha":1222,"x_min":0,"x_max":0,"o":"m 514 -18 l 694 -18 b 1003 64 837 -18 940 9 b 1097 324 1066 119 1097 205 l 1097 1042 l 938 1042 l 938 313 b 887 168 938 248 921 200 b 738 121 853 137 803 121 l 488 121 b 334 168 418 121 367 137 b 285 313 301 200 285 248 l 285 1042 l 125 1042 l 125 324 b 218 64 125 205 156 119 b 514 -18 280 9 379 -18 z m 778 1156 l 778 1264 l 444 1264 l 444 1156 z "},"ū":{"ha":993,"x_min":0,"x_max":0,"o":"m 882 833 l 729 833 l 729 139 l 401 139 b 296 169 352 139 317 149 b 264 282 275 190 264 227 l 264 833 l 111 833 l 111 299 b 183 76 111 201 135 127 b 413 0 231 25 308 0 l 882 0 z m 650 947 l 650 1056 l 317 1056 l 317 947 z "},"Ŭ":{"ha":1222,"x_min":0,"x_max":0,"o":"m 514 -18 l 694 -18 b 1003 64 837 -18 940 9 b 1097 324 1066 119 1097 205 l 1097 1042 l 938 1042 l 938 313 b 887 168 938 248 921 200 b 738 121 853 137 803 121 l 488 121 b 334 168 418 121 367 137 b 285 313 301 200 285 248 l 285 1042 l 125 1042 l 125 324 b 218 64 125 205 156 119 b 514 -18 280 9 379 -18 z m 393 1361 l 393 1297 b 433 1193 393 1257 406 1223 b 543 1149 459 1163 496 1149 l 681 1149 b 789 1193 726 1149 762 1163 b 829 1297 816 1223 829 1257 l 829 1361 l 724 1361 l 724 1306 b 709 1258 724 1284 719 1269 b 661 1243 699 1248 683 1243 l 564 1243 b 516 1259 543 1243 527 1248 b 500 1306 505 1270 500 1285 l 500 1361 z "},"ŭ":{"ha":993,"x_min":0,"x_max":0,"o":"m 882 833 l 729 833 l 729 139 l 401 139 b 296 169 352 139 317 149 b 264 282 275 190 264 227 l 264 833 l 111 833 l 111 299 b 183 76 111 201 135 127 b 413 0 231 25 308 0 l 882 0 z m 264 1153 l 264 1089 b 303 985 264 1049 277 1014 b 414 940 330 955 367 940 l 551 940 b 660 985 597 940 633 955 b 700 1089 687 1014 700 1049 l 700 1153 l 594 1153 l 594 1097 b 580 1050 594 1076 590 1060 b 532 1035 570 1040 554 1035 l 435 1035 b 387 1051 413 1035 397 1040 b 371 1097 376 1061 371 1077 l 371 1153 z "},"Ů":{"ha":1222,"x_min":0,"x_max":0,"o":"m 514 -18 l 694 -18 b 1003 64 837 -18 940 9 b 1097 324 1066 119 1097 205 l 1097 1042 l 938 1042 l 938 313 b 887 168 938 248 921 200 b 738 121 853 137 803 121 l 488 121 b 334 168 418 121 367 137 b 285 313 301 200 285 248 l 285 1042 l 125 1042 l 125 324 b 218 64 125 205 156 119 b 514 -18 280 9 379 -18 z m 463 1256 b 498 1168 463 1219 474 1190 b 585 1135 522 1146 550 1135 l 639 1135 b 726 1168 673 1135 702 1146 b 761 1256 749 1190 761 1219 l 761 1289 b 726 1376 761 1325 749 1354 b 639 1410 702 1399 673 1410 l 585 1410 b 498 1376 550 1410 522 1399 b 463 1289 474 1354 463 1325 z m 546 1286 b 560 1324 546 1302 550 1315 b 594 1339 569 1334 581 1339 l 629 1339 b 665 1324 643 1339 655 1334 b 679 1286 674 1315 679 1302 l 679 1258 b 665 1220 679 1243 674 1230 b 629 1206 655 1210 643 1206 l 594 1206 b 560 1220 581 1206 569 1210 b 546 1258 550 1230 546 1243 z "},"ů":{"ha":993,"x_min":0,"x_max":0,"o":"m 882 833 l 729 833 l 729 139 l 401 139 b 296 169 352 139 317 149 b 264 282 275 190 264 227 l 264 833 l 111 833 l 111 299 b 183 76 111 201 135 127 b 413 0 231 25 308 0 l 882 0 z m 333 1047 b 369 960 333 1011 345 982 b 456 926 392 938 421 926 l 510 926 b 597 960 544 926 573 938 b 632 1047 620 982 632 1011 l 632 1081 b 597 1168 632 1117 620 1146 b 510 1201 573 1190 544 1201 l 456 1201 b 369 1168 421 1201 392 1190 b 333 1081 345 1146 333 1117 z m 417 1078 b 431 1116 417 1094 421 1106 b 465 1131 440 1126 451 1131 l 500 1131 b 535 1116 514 1131 526 1126 b 550 1078 545 1106 550 1094 l 550 1050 b 535 1012 550 1034 545 1022 b 500 997 526 1002 514 997 l 465 997 b 431 1012 451 997 440 1002 b 417 1050 421 1022 417 1034 z "},"Ű":{"ha":1222,"x_min":0,"x_max":0,"o":"m 514 -18 l 694 -18 b 1003 64 837 -18 940 9 b 1097 324 1066 119 1097 205 l 1097 1042 l 938 1042 l 938 313 b 887 168 938 248 921 200 b 738 121 853 137 803 121 l 488 121 b 334 168 418 121 367 137 b 285 313 301 200 285 248 l 285 1042 l 125 1042 l 125 324 b 218 64 125 205 156 119 b 514 -18 280 9 379 -18 z m 444 1142 l 581 1142 l 689 1403 l 542 1403 z m 669 1142 l 806 1142 l 914 1403 l 767 1403 z "},"ű":{"ha":993,"x_min":0,"x_max":0,"o":"m 882 833 l 729 833 l 729 139 l 401 139 b 296 169 352 139 317 149 b 264 282 275 190 264 227 l 264 833 l 111 833 l 111 299 b 183 76 111 201 135 127 b 413 0 231 25 308 0 l 882 0 z m 317 933 l 453 933 l 561 1194 l 414 1194 z m 542 933 l 678 933 l 786 1194 l 639 1194 z "},"Ų":{"ha":1222,"x_min":0,"x_max":0,"o":"m 514 -18 l 694 -18 b 1003 64 837 -18 940 9 b 1097 324 1066 119 1097 205 l 1097 1042 l 938 1042 l 938 313 b 887 168 938 248 921 200 b 738 121 853 137 803 121 l 488 121 b 334 168 418 121 367 137 b 285 313 301 200 285 248 l 285 1042 l 125 1042 l 125 324 b 218 64 125 205 156 119 b 514 -18 280 9 379 -18 z m 622 0 l 576 -46 b 528 -108 553 -69 537 -90 b 515 -162 520 -127 515 -145 b 549 -235 515 -191 527 -215 b 660 -264 572 -254 609 -264 l 750 -264 l 750 -168 l 696 -168 b 663 -158 681 -168 670 -165 b 651 -135 655 -152 651 -144 b 660 -110 651 -125 654 -117 b 683 -81 666 -102 674 -93 l 750 0 z "},"ų":{"ha":993,"x_min":0,"x_max":0,"o":"m 882 833 l 729 833 l 729 139 l 401 139 b 296 169 352 139 317 149 b 264 282 275 190 264 227 l 264 833 l 111 833 l 111 299 b 183 76 111 201 135 127 b 413 0 231 25 308 0 l 882 0 z m 740 0 l 694 -46 b 647 -108 671 -69 655 -90 b 633 -162 638 -127 633 -145 b 667 -235 633 -191 645 -215 b 778 -264 690 -254 727 -264 l 868 -264 l 868 -168 l 814 -168 b 781 -158 799 -168 788 -165 b 769 -135 773 -152 769 -144 b 778 -110 769 -125 772 -117 b 801 -81 784 -102 792 -93 l 868 0 z "},"Ŵ":{"ha":1711,"x_min":0,"x_max":0,"o":"m 215 1042 l 49 1042 l 294 167 b 360 30 311 107 333 62 b 486 -18 388 -2 430 -18 b 616 33 546 -18 590 -1 b 674 168 642 68 662 113 l 832 861 b 840 889 835 873 838 882 b 857 899 843 895 849 899 b 873 888 864 899 870 895 b 882 860 876 881 879 872 l 1038 168 b 1096 33 1050 113 1069 68 b 1228 -18 1123 -1 1167 -18 b 1351 31 1283 -18 1325 -2 b 1417 167 1378 63 1400 108 l 1663 1042 l 1497 1042 l 1258 178 b 1247 149 1255 165 1251 155 b 1229 140 1242 143 1237 140 b 1209 148 1220 140 1213 143 b 1197 179 1205 153 1201 163 l 1040 858 b 983 1002 1027 916 1008 964 b 857 1060 958 1041 916 1060 b 733 1005 800 1060 758 1041 b 675 861 708 968 689 920 l 515 176 b 504 147 512 162 508 152 b 486 140 500 143 494 140 b 467 149 478 140 471 143 b 454 178 462 155 458 165 z m 954 1142 l 1097 1142 l 946 1358 b 910 1396 935 1373 923 1386 b 856 1411 897 1406 879 1411 b 800 1396 832 1411 814 1406 b 764 1358 786 1386 774 1373 l 613 1142 l 756 1142 l 856 1293 z "},"ŵ":{"ha":1403,"x_min":0,"x_max":0,"o":"m 703 851 b 588 808 653 851 615 837 b 529 682 562 780 542 738 l 406 153 b 397 132 404 144 401 138 b 382 124 394 126 388 124 b 365 132 375 124 369 126 b 357 153 362 138 359 144 l 201 833 l 35 833 l 221 125 b 276 19 233 80 251 44 b 379 -18 301 -6 336 -18 b 490 22 429 -18 466 -5 b 543 132 514 48 532 85 l 674 685 b 683 708 675 694 678 702 b 703 717 687 714 694 717 b 719 708 709 717 715 714 b 729 685 723 703 726 695 l 860 132 b 912 22 871 85 888 48 b 1026 -18 935 -5 974 -18 b 1127 22 1068 -18 1102 -5 b 1182 125 1153 48 1171 82 l 1368 833 l 1206 833 l 1046 151 b 1038 131 1044 142 1041 135 b 1022 124 1035 126 1030 124 b 1006 132 1015 124 1009 126 b 997 151 1002 138 999 144 l 875 682 b 813 808 862 738 841 780 b 703 851 785 837 748 851 z m 801 933 l 944 933 l 793 1150 b 757 1188 782 1165 770 1177 b 703 1203 744 1198 726 1203 b 647 1188 680 1203 661 1198 b 611 1150 633 1177 621 1165 l 460 933 l 603 933 l 703 1085 z "},"Ŷ":{"ha":1083,"x_min":0,"x_max":0,"o":"m 463 0 l 622 0 l 622 374 l 1069 1042 l 889 1042 l 568 550 b 542 536 563 541 554 536 b 517 550 531 536 522 541 l 204 1042 l 14 1042 l 463 372 z m 640 1142 l 783 1142 l 632 1358 b 596 1396 621 1373 609 1386 b 542 1411 583 1406 565 1411 b 486 1396 519 1411 500 1406 b 450 1358 472 1386 460 1373 l 299 1142 l 442 1142 l 542 1293 z "},"ŷ":{"ha":933,"x_min":0,"x_max":0,"o":"m 457 211 l 182 833 l 7 833 l 308 169 b 369 91 326 131 346 105 b 443 69 393 77 417 69 l 450 69 l 422 1 b 374 -59 411 -25 395 -45 b 275 -81 352 -73 319 -81 l 85 -81 l 85 -208 l 276 -208 b 456 -167 351 -208 411 -195 b 569 -18 501 -140 539 -90 l 926 833 l 758 833 l 508 211 b 497 196 506 205 502 200 b 483 190 493 192 488 190 b 469 196 479 190 474 192 b 457 211 465 200 461 205 z m 565 933 l 708 933 l 557 1150 b 521 1188 546 1165 534 1177 b 467 1203 508 1198 490 1203 b 411 1188 444 1203 425 1198 b 375 1150 397 1177 385 1165 l 224 933 l 367 933 l 467 1085 z "},"Ÿ":{"ha":1083,"x_min":0,"x_max":0,"o":"m 463 0 l 622 0 l 622 374 l 1069 1042 l 889 1042 l 568 550 b 542 536 563 541 554 536 b 517 550 531 536 522 541 l 204 1042 l 14 1042 l 463 372 z m 486 1169 l 486 1317 l 333 1317 l 333 1169 z m 750 1169 l 750 1317 l 597 1317 l 597 1169 z "},"Ź":{"ha":979,"x_min":0,"x_max":0,"o":"m 913 0 l 913 139 l 283 139 b 240 151 266 139 251 143 b 222 190 228 160 222 173 b 236 231 222 206 227 219 b 282 271 245 242 261 255 l 792 651 b 892 746 837 685 870 716 b 924 854 913 775 924 812 b 867 992 924 913 905 958 b 683 1042 830 1025 769 1042 l 81 1042 l 81 903 l 683 903 b 738 890 707 903 726 899 b 757 851 751 882 757 869 b 744 810 757 835 753 821 b 703 772 736 800 722 787 l 226 408 b 100 293 172 367 130 328 b 56 176 70 258 56 219 b 108 50 56 125 73 83 b 278 0 142 17 199 0 z m 429 1142 l 565 1142 l 674 1403 l 526 1403 z "},"ź":{"ha":900,"x_min":0,"x_max":0,"o":"m 825 0 l 825 132 l 260 132 b 235 138 250 132 241 134 b 225 157 228 141 225 148 b 231 174 225 163 227 169 b 246 189 234 178 239 183 l 681 517 b 778 609 726 551 759 582 b 808 693 798 636 808 664 b 753 802 808 745 790 781 b 604 833 716 823 666 833 l 86 833 l 86 701 l 606 701 b 633 694 618 701 627 699 b 642 674 639 690 642 683 b 637 655 642 666 640 660 b 622 640 634 650 629 645 l 165 300 b 82 219 125 270 98 244 b 58 136 66 195 58 168 b 103 39 58 97 73 65 b 242 0 134 13 180 0 z m 389 933 l 525 933 l 633 1194 l 486 1194 z "},"Ż":{"ha":979,"x_min":0,"x_max":0,"o":"m 913 0 l 913 139 l 283 139 b 240 151 266 139 251 143 b 222 190 228 160 222 173 b 236 231 222 206 227 219 b 282 271 245 242 261 255 l 792 651 b 892 746 837 685 870 716 b 924 854 913 775 924 812 b 867 992 924 913 905 958 b 683 1042 830 1025 769 1042 l 81 1042 l 81 903 l 683 903 b 738 890 707 903 726 899 b 757 851 751 882 757 869 b 744 810 757 835 753 821 b 703 772 736 800 722 787 l 226 408 b 100 293 172 367 130 328 b 56 176 70 258 56 219 b 108 50 56 125 73 83 b 278 0 142 17 199 0 z m 567 1142 l 567 1278 l 414 1278 l 414 1142 z "},"ż":{"ha":900,"x_min":0,"x_max":0,"o":"m 825 0 l 825 132 l 260 132 b 235 138 250 132 241 134 b 225 157 228 141 225 148 b 231 174 225 163 227 169 b 246 189 234 178 239 183 l 681 517 b 778 609 726 551 759 582 b 808 693 798 636 808 664 b 753 802 808 745 790 781 b 604 833 716 823 666 833 l 86 833 l 86 701 l 606 701 b 633 694 618 701 627 699 b 642 674 639 690 642 683 b 637 655 642 666 640 660 b 622 640 634 650 629 645 l 165 300 b 82 219 125 270 98 244 b 58 136 66 195 58 168 b 103 39 58 97 73 65 b 242 0 134 13 180 0 z m 526 933 l 526 1069 l 374 1069 l 374 933 z "},"Ž":{"ha":979,"x_min":0,"x_max":0,"o":"m 913 0 l 913 139 l 283 139 b 240 151 266 139 251 143 b 222 190 228 160 222 173 b 236 231 222 206 227 219 b 282 271 245 242 261 255 l 792 651 b 892 746 837 685 870 716 b 924 854 913 775 924 812 b 867 992 924 913 905 958 b 683 1042 830 1025 769 1042 l 81 1042 l 81 903 l 683 903 b 738 890 707 903 726 899 b 757 851 751 882 757 869 b 744 810 757 835 753 821 b 703 772 736 800 722 787 l 226 408 b 100 293 172 367 130 328 b 56 176 70 258 56 219 b 108 50 56 125 73 83 b 278 0 142 17 199 0 z m 581 1172 l 732 1389 l 589 1389 l 490 1238 l 390 1389 l 247 1389 l 399 1172 b 435 1135 409 1157 421 1145 b 490 1119 449 1125 467 1119 b 544 1135 513 1119 531 1125 b 581 1172 557 1145 569 1157 z "},"ž":{"ha":900,"x_min":0,"x_max":0,"o":"m 825 0 l 825 132 l 260 132 b 235 138 250 132 241 134 b 225 157 228 141 225 148 b 231 174 225 163 227 169 b 246 189 234 178 239 183 l 681 517 b 778 609 726 551 759 582 b 808 693 798 636 808 664 b 753 802 808 745 790 781 b 604 833 716 823 666 833 l 86 833 l 86 701 l 606 701 b 633 694 618 701 627 699 b 642 674 639 690 642 683 b 637 655 642 666 640 660 b 622 640 634 650 629 645 l 165 300 b 82 219 125 270 98 244 b 58 136 66 195 58 168 b 103 39 58 97 73 65 b 242 0 134 13 180 0 z m 540 964 l 692 1181 l 549 1181 l 450 1029 l 350 1181 l 207 1181 l 358 964 b 394 926 369 949 381 937 b 450 911 408 916 427 911 b 504 926 473 911 491 916 b 540 964 517 937 529 949 z "},"Ə":{"ha":1107,"x_min":0,"x_max":0,"o":"m 76 593 l 76 328 b 174 82 76 219 109 137 b 453 0 238 27 331 0 l 668 0 b 941 86 790 0 881 29 b 1031 342 1001 144 1031 229 l 1031 710 b 1001 860 1031 768 1021 818 b 921 963 982 903 955 937 b 797 1022 887 990 845 1009 b 639 1042 749 1035 696 1042 l 103 1042 l 103 910 l 646 910 b 805 869 717 910 770 896 b 857 744 840 841 857 800 l 857 593 z m 447 132 b 294 173 375 132 324 146 b 250 307 265 200 250 245 l 250 467 l 857 467 l 857 321 b 819 178 857 257 844 209 b 675 132 793 147 745 132 z "},"Ș":{"ha":979,"x_min":0,"x_max":0,"o":"m 611 428 b 745 369 677 410 722 391 b 781 272 769 347 781 315 b 738 175 781 231 766 199 b 604 139 710 151 665 139 l 90 139 l 90 0 l 589 0 b 853 78 707 0 796 26 b 940 286 911 131 940 200 b 866 466 940 363 916 423 b 654 569 816 509 746 544 l 390 644 b 260 701 327 662 284 681 b 225 786 237 722 225 750 b 263 868 225 818 238 845 b 401 903 289 891 335 903 l 906 903 l 906 1042 l 419 1042 b 151 969 299 1042 209 1017 b 63 779 92 920 63 857 b 137 600 63 701 87 642 b 347 500 186 558 256 525 z m 390 -261 l 514 -261 b 547 -164 531 -217 543 -184 b 554 -90 552 -144 554 -119 l 554 -56 l 426 -56 l 426 -90 b 419 -164 426 -119 424 -144 b 390 -261 415 -184 405 -217 z "},"ș":{"ha":871,"x_min":0,"x_max":0,"o":"m 515 332 b 631 292 571 320 609 307 b 663 229 652 278 663 257 b 632 159 663 200 652 177 b 514 132 612 141 572 132 l 76 132 l 76 0 l 478 0 b 736 66 597 0 683 22 b 815 240 789 110 815 168 b 744 395 815 310 791 361 b 543 472 696 429 629 455 l 342 514 b 246 551 295 523 263 535 b 219 613 228 566 219 587 b 244 675 219 637 228 657 b 340 701 261 693 293 701 l 788 701 l 788 833 l 368 833 b 139 770 266 833 190 812 b 63 604 88 728 63 673 b 128 453 63 539 84 489 b 311 375 172 418 233 392 z m 308 -261 l 432 -261 b 465 -164 450 -217 461 -184 b 472 -90 470 -144 472 -119 l 472 -56 l 344 -56 l 344 -90 b 338 -164 344 -119 342 -144 b 308 -261 333 -184 323 -217 z "},"Ț":{"ha":1035,"x_min":0,"x_max":0,"o":"m 438 0 l 597 0 l 597 903 l 1014 903 l 1014 1042 l 21 1042 l 21 903 l 438 903 z m 419 -261 l 543 -261 b 576 -164 561 -217 572 -184 b 583 -90 581 -144 583 -119 l 583 -56 l 456 -56 l 456 -90 b 449 -164 456 -119 453 -144 b 419 -261 444 -184 434 -217 z "},"ț":{"ha":681,"x_min":0,"x_max":0,"o":"m 21 701 l 156 701 l 156 233 b 222 58 156 156 178 97 b 404 0 266 19 326 0 l 618 0 l 618 132 l 403 132 b 331 152 369 132 345 139 b 308 225 316 166 308 190 l 308 701 l 618 701 l 618 833 l 308 833 l 308 996 l 160 996 l 160 833 l 21 833 z m 338 -261 l 461 -261 b 494 -164 479 -217 490 -184 b 501 -90 499 -144 501 -119 l 501 -56 l 374 -56 l 374 -90 b 367 -164 374 -119 371 -144 b 338 -261 362 -184 352 -217 z "},"ə":{"ha":982,"x_min":0,"x_max":0,"o":"m 76 469 l 76 315 b 167 69 76 206 106 124 b 439 -12 227 15 318 -12 l 515 -12 b 795 81 638 -12 731 19 b 892 357 859 143 892 235 l 892 503 b 863 653 892 561 882 611 b 782 756 843 694 816 729 b 658 815 748 782 706 802 b 500 833 610 827 557 833 l 103 833 l 103 701 l 521 701 b 680 661 592 701 645 688 b 732 538 715 634 732 593 l 732 469 z m 419 119 b 274 160 347 119 299 133 b 236 294 249 188 236 232 l 236 343 l 732 343 l 732 336 b 687 167 732 255 717 198 b 536 119 657 135 606 119 z "},"ˆ":{"ha":982,"x_min":0,"x_max":0,"o":"m 590 933 l 733 933 l 582 1150 b 546 1188 571 1165 559 1177 b 492 1203 533 1198 515 1203 b 436 1188 469 1203 450 1198 b 400 1150 422 1177 410 1165 l 249 933 l 392 933 l 492 1085 z "},"ˇ":{"ha":982,"x_min":0,"x_max":0,"o":"m 582 964 l 733 1181 l 590 1181 l 492 1029 l 392 1181 l 249 1181 l 400 964 b 436 926 410 949 422 937 b 492 911 450 916 469 911 b 546 926 515 911 533 916 b 582 964 559 937 571 949 z "},"˘":{"ha":1010,"x_min":0,"x_max":0,"o":"m 286 1153 l 286 1089 b 326 985 286 1049 299 1014 b 436 940 352 955 389 940 l 574 940 b 682 985 619 940 655 955 b 722 1089 709 1014 722 1049 l 722 1153 l 617 1153 l 617 1097 b 602 1050 617 1076 612 1060 b 554 1035 592 1040 576 1035 l 457 1035 b 409 1051 436 1035 420 1040 b 393 1097 398 1061 393 1077 l 393 1153 z "},"˙":{"ha":708,"x_min":0,"x_max":0,"o":"m 431 933 l 431 1069 l 278 1069 l 278 933 z "},"˚":{"ha":1010,"x_min":0,"x_max":0,"o":"m 356 1047 b 391 960 356 1011 367 982 b 478 926 415 938 444 926 l 532 926 b 619 960 566 926 595 938 b 654 1047 642 982 654 1011 l 654 1081 b 619 1168 654 1117 642 1146 b 532 1201 595 1190 566 1201 l 478 1201 b 391 1168 444 1201 415 1190 b 356 1081 367 1146 356 1117 z m 439 1078 b 453 1116 439 1094 444 1106 b 488 1131 462 1126 474 1131 l 522 1131 b 558 1116 536 1131 548 1126 b 572 1078 567 1106 572 1094 l 572 1050 b 558 1012 572 1034 567 1022 b 522 997 548 1002 536 997 l 488 997 b 453 1012 474 997 462 1002 b 439 1050 444 1022 439 1034 z "},"˛":{"ha":453,"x_min":0,"x_max":0,"o":"m 186 0 l 140 -46 b 92 -108 117 -69 101 -90 b 79 -162 84 -127 79 -145 b 113 -235 79 -191 91 -215 b 224 -264 136 -254 173 -264 l 314 -264 l 314 -168 l 260 -168 b 226 -158 245 -168 234 -165 b 215 -135 219 -152 215 -144 b 224 -110 215 -125 218 -117 b 247 -81 230 -102 238 -93 l 314 0 z "},"˜":{"ha":1194,"x_min":0,"x_max":0,"o":"m 674 1069 l 626 1118 b 554 1178 600 1145 576 1165 b 474 1197 532 1191 505 1197 b 372 1157 431 1197 397 1184 b 335 1042 347 1130 335 1092 l 335 933 l 456 933 l 456 1046 b 463 1072 456 1058 458 1067 b 482 1081 468 1078 475 1081 b 501 1074 489 1081 496 1078 b 524 1053 507 1069 514 1062 l 571 1004 b 643 944 597 977 621 957 b 724 925 665 931 692 925 b 826 967 768 925 802 939 b 863 1083 850 996 863 1034 l 863 1189 l 742 1189 l 742 1076 b 735 1050 742 1064 739 1056 b 717 1042 730 1044 724 1042 b 696 1049 708 1042 701 1044 b 674 1069 690 1053 683 1060 z "},"˝":{"ha":708,"x_min":0,"x_max":0,"o":"m 188 933 l 324 933 l 432 1194 l 285 1194 z m 413 933 l 549 933 l 657 1194 l 510 1194 z "}," ":{"ha":181,"x_min":0,"x_max":0,"o":""},"–":{"ha":675,"x_min":0,"x_max":0,"o":"m 69 350 l 606 350 l 606 489 l 69 489 z "},"—":{"ha":953,"x_min":0,"x_max":0,"o":"m 69 350 l 883 350 l 883 489 l 69 489 z "},"‘":{"ha":356,"x_min":0,"x_max":0,"o":"m 296 1043 l 157 1043 b 117 962 140 1010 127 983 b 96 903 108 941 100 922 b 87 845 91 885 88 866 b 85 765 85 824 85 798 l 85 654 l 238 654 l 238 767 b 239 844 238 798 238 824 b 247 900 240 864 242 882 b 265 959 251 918 257 937 b 296 1043 272 981 283 1009 z "},"’":{"ha":356,"x_min":0,"x_max":0,"o":"m 57 653 l 196 653 b 235 734 213 686 226 713 b 257 792 245 755 252 774 b 266 851 262 810 265 830 b 268 931 267 872 268 898 l 268 1042 l 115 1042 l 115 929 b 114 852 115 898 115 872 b 106 796 113 832 110 813 b 88 737 102 778 96 759 b 57 653 80 715 70 687 z "},"‚":{"ha":356,"x_min":0,"x_max":0,"o":"m 57 -194 l 196 -194 b 235 -113 213 -161 226 -134 b 257 -55 245 -92 252 -73 b 266 3 262 -37 265 -17 b 268 83 267 24 268 51 l 268 194 l 115 194 l 115 82 b 114 5 115 50 115 25 b 106 -51 113 -15 110 -34 b 88 -110 102 -69 96 -89 b 57 -194 80 -132 70 -160 z "},"“":{"ha":560,"x_min":0,"x_max":0,"o":"m 297 1042 l 158 1042 b 119 960 142 1008 128 981 b 97 902 109 940 102 920 b 88 844 93 884 90 865 b 86 764 87 823 86 796 l 86 653 l 239 653 l 239 765 b 240 842 239 797 239 822 b 248 899 241 862 244 881 b 266 958 252 916 258 936 b 297 1042 274 979 284 1007 z m 518 1042 l 379 1042 b 340 960 363 1008 349 981 b 318 902 330 940 323 920 b 309 844 313 884 310 865 b 307 764 308 823 307 796 l 307 653 l 460 653 l 460 765 b 461 842 460 797 460 822 b 469 899 462 862 465 881 b 487 958 473 916 479 936 b 518 1042 495 979 505 1007 z "},"”":{"ha":560,"x_min":0,"x_max":0,"o":"m 263 653 l 401 653 b 441 734 418 686 431 713 b 463 792 451 755 458 774 b 472 851 467 810 470 830 b 474 931 473 872 474 898 l 474 1042 l 321 1042 l 321 929 b 319 852 321 898 320 872 b 312 796 319 832 316 813 b 294 737 308 778 302 759 b 263 653 286 715 275 687 z m 42 653 l 181 653 b 220 734 197 686 210 713 b 242 792 230 755 237 774 b 251 851 246 810 249 830 b 253 931 252 872 253 898 l 253 1042 l 100 1042 l 100 929 b 99 852 100 898 100 872 b 91 796 98 832 95 813 b 73 737 87 778 81 759 b 42 653 65 715 55 687 z "},"„":{"ha":560,"x_min":0,"x_max":0,"o":"m 263 -194 l 401 -194 b 441 -113 418 -161 431 -134 b 463 -55 451 -92 458 -73 b 472 3 467 -37 470 -17 b 474 83 473 24 474 51 l 474 194 l 321 194 l 321 82 b 319 5 321 50 320 25 b 312 -51 319 -15 316 -34 b 294 -110 308 -69 302 -89 b 263 -194 286 -132 275 -160 z m 42 -194 l 181 -194 b 220 -113 197 -161 210 -134 b 242 -55 230 -92 237 -73 b 251 3 246 -37 249 -17 b 253 83 252 24 253 51 l 253 194 l 100 194 l 100 82 b 99 5 100 50 100 25 b 91 -51 98 -15 95 -34 b 73 -110 87 -69 81 -89 b 42 -194 65 -132 55 -160 z "},"†":{"ha":814,"x_min":0,"x_max":0,"o":"m 69 653 l 317 653 l 317 0 l 469 0 l 469 653 l 744 653 l 744 792 l 469 792 l 469 1042 l 317 1042 l 317 792 l 69 792 z "},"‡":{"ha":814,"x_min":0,"x_max":0,"o":"m 69 250 l 317 250 l 317 0 l 469 0 l 469 250 l 744 250 l 744 389 l 469 389 l 469 653 l 744 653 l 744 792 l 469 792 l 469 1042 l 317 1042 l 317 792 l 69 792 l 69 653 l 317 653 l 317 389 l 69 389 z "},"•":{"ha":647,"x_min":0,"x_max":0,"o":"m 139 392 b 178 274 139 343 152 303 b 293 229 205 244 243 229 l 354 229 b 469 274 404 229 442 244 b 508 392 495 303 508 343 l 508 442 b 469 559 508 491 495 530 b 354 603 442 588 404 603 l 293 603 b 178 559 243 603 205 588 b 139 442 152 530 139 491 z "},"…":{"ha":924,"x_min":0,"x_max":0,"o":"m 653 0 l 826 0 l 826 174 l 653 174 z m 97 0 l 271 0 l 271 174 l 97 174 z m 375 0 l 549 0 l 549 174 l 375 174 z "},"‰":{"ha":1803,"x_min":0,"x_max":0,"o":"m 56 769 b 117 616 56 706 76 654 b 272 558 159 578 210 558 l 369 558 b 522 616 428 558 478 578 b 586 769 565 654 586 706 l 586 849 b 522 1002 586 913 565 964 b 369 1060 478 1041 428 1060 l 272 1060 b 117 1002 210 1060 159 1041 b 56 849 76 964 56 913 z m 781 582 l 1053 1042 l 894 1042 l 624 582 z m 200 838 b 221 914 200 869 207 894 b 286 943 235 933 256 943 l 354 943 b 422 914 387 943 409 933 b 442 838 435 894 442 869 l 442 775 b 422 703 442 745 435 721 b 354 675 409 684 387 675 l 286 675 b 221 703 256 675 235 684 b 200 775 207 721 200 745 z m 1217 194 b 1278 41 1217 131 1237 79 b 1433 -17 1320 3 1371 -17 l 1531 -17 b 1683 41 1589 -17 1640 3 b 1747 194 1726 79 1747 131 l 1747 274 b 1683 427 1747 338 1726 389 b 1531 485 1640 466 1589 485 l 1433 485 b 1278 427 1371 485 1320 466 b 1217 274 1237 389 1217 338 z m 606 194 b 667 41 606 131 626 79 b 822 -17 709 3 760 -17 l 919 -17 b 1072 41 978 -17 1028 3 b 1136 194 1115 79 1136 131 l 1136 274 b 1072 427 1136 338 1115 389 b 919 485 1028 466 978 485 l 822 485 b 667 427 760 485 709 466 b 606 274 626 389 606 338 z m 415 460 l 143 0 l 301 0 l 572 460 z m 1361 263 b 1382 339 1361 294 1368 319 b 1447 368 1396 358 1418 368 l 1515 368 b 1583 339 1548 368 1570 358 b 1603 263 1596 319 1603 294 l 1603 200 b 1583 128 1603 170 1596 146 b 1515 100 1570 109 1548 100 l 1447 100 b 1382 128 1418 100 1396 109 b 1361 200 1368 146 1361 170 z m 750 263 b 771 339 750 294 757 319 b 836 368 785 358 806 368 l 904 368 b 972 339 937 368 959 358 b 992 263 985 319 992 294 l 992 200 b 972 128 992 170 985 146 b 904 100 959 109 937 100 l 836 100 b 771 128 806 100 785 109 b 750 200 757 146 750 170 z "},"‹":{"ha":640,"x_min":0,"x_max":0,"o":"m 515 358 l 250 522 l 515 685 l 515 856 l 163 622 b 113 575 139 607 123 592 b 97 528 102 558 97 543 l 97 515 b 113 468 97 500 102 485 b 163 421 123 451 139 436 l 515 188 z "},"›":{"ha":640,"x_min":0,"x_max":0,"o":"m 478 421 b 528 468 501 436 518 451 b 543 515 538 485 543 500 l 543 528 b 528 575 543 543 538 558 b 478 622 518 592 501 607 l 125 856 l 125 685 l 390 522 l 125 358 l 125 188 z "},"€":{"ha":1189,"x_min":0,"x_max":0,"o":"m 69 340 l 224 340 b 358 92 241 236 286 153 b 674 0 429 31 535 0 l 1133 0 l 1133 139 l 653 139 b 468 189 570 139 509 156 b 393 340 427 222 402 273 l 982 340 l 982 479 l 389 479 l 389 576 l 982 576 l 982 715 l 396 715 b 472 856 406 778 431 825 b 653 903 513 887 573 903 l 1126 903 l 1126 1042 l 674 1042 b 362 954 538 1042 434 1013 b 226 715 290 896 245 816 l 69 715 l 69 576 l 215 576 l 215 479 l 69 479 z "},"₼":{"ha":1289,"x_min":0,"x_max":0,"o":"m 874 694 b 979 664 923 694 958 684 b 1011 551 1000 644 1011 606 l 1011 0 l 1164 0 l 1164 535 b 1092 757 1164 632 1140 706 b 863 833 1044 808 967 833 l 721 833 l 721 1042 l 568 1042 l 568 833 l 426 833 b 197 757 322 833 245 808 b 125 535 149 706 125 632 l 125 0 l 278 0 l 278 551 b 310 664 278 606 288 644 b 415 694 331 684 366 694 l 568 694 l 568 139 l 721 139 l 721 694 z "},"₽":{"ha":1189,"x_min":0,"x_max":0,"o":"m 21 313 l 21 174 l 222 174 l 222 0 l 382 0 l 382 174 l 778 174 l 778 313 l 382 313 l 382 424 l 753 424 b 897 437 803 424 851 428 b 1018 483 942 446 983 461 b 1102 572 1053 504 1081 534 b 1133 713 1123 609 1133 656 l 1133 753 b 1102 894 1133 809 1123 856 b 1018 983 1081 931 1053 961 b 897 1028 983 1004 942 1020 b 753 1042 851 1037 803 1042 l 222 1042 l 222 563 l 21 563 l 21 424 l 222 424 l 222 313 z m 382 903 l 778 903 b 926 867 849 903 898 891 b 967 756 953 843 967 806 l 967 710 b 926 599 967 660 953 623 b 778 563 898 575 849 563 l 382 563 z "},"№":{"ha":2115,"x_min":0,"x_max":0,"o":"m 125 0 l 285 0 l 285 856 b 294 893 285 871 288 884 b 324 907 300 902 310 907 b 350 894 335 907 344 903 b 374 858 356 885 364 873 l 828 129 b 916 22 856 85 885 49 b 1039 -18 947 -5 988 -18 b 1176 38 1099 -18 1145 0 b 1222 185 1207 75 1222 124 l 1222 1042 l 1063 1042 l 1063 181 b 1053 147 1063 166 1059 154 b 1026 135 1046 139 1038 135 b 1001 147 1018 135 1010 139 b 976 179 993 156 985 166 l 532 897 b 436 1018 500 950 468 990 b 317 1060 405 1046 365 1060 b 169 998 248 1060 199 1039 b 125 847 140 957 125 906 z m 2046 719 b 1960 963 2046 824 2017 905 b 1707 1050 1902 1021 1818 1050 l 1676 1050 b 1420 963 1561 1050 1475 1021 b 1338 719 1365 905 1338 824 l 1338 685 b 1420 442 1338 580 1365 499 b 1676 356 1475 384 1561 356 l 1707 356 b 1960 442 1818 356 1902 384 b 2046 685 2017 499 2046 580 z m 1894 738 l 1894 669 b 1858 526 1894 604 1882 556 b 1725 482 1833 497 1789 482 l 1660 482 b 1529 526 1599 482 1555 497 b 1490 669 1503 556 1490 604 l 1490 738 b 1529 878 1490 801 1503 848 b 1660 924 1555 909 1599 924 l 1725 924 b 1858 878 1789 924 1833 909 b 1894 738 1882 848 1894 801 z m 1403 128 l 1981 128 l 1981 261 l 1403 261 z "},"™":{"ha":1001,"x_min":0,"x_max":0,"o":"m 693 722 b 683 726 689 722 686 723 b 678 738 681 728 679 732 l 639 976 b 603 1041 634 1007 622 1028 b 535 1060 584 1053 562 1060 b 460 1035 503 1060 478 1051 b 432 964 441 1018 432 994 l 432 642 l 524 642 l 524 949 b 527 966 524 956 525 962 b 538 972 529 970 533 972 b 549 966 543 972 547 970 b 554 950 552 962 553 956 l 596 719 b 633 652 602 686 615 664 b 692 635 651 641 670 635 b 753 652 715 635 735 641 b 789 719 770 664 782 686 l 831 950 b 835 966 831 956 833 962 b 847 972 838 970 842 972 b 859 966 854 972 858 970 b 861 949 860 962 861 956 l 861 642 l 953 642 l 953 964 b 926 1035 953 994 944 1018 b 850 1060 908 1051 882 1060 b 782 1041 824 1060 801 1053 b 746 976 763 1028 750 1007 l 707 738 b 702 726 706 733 704 729 b 693 722 700 724 697 722 z m 143 642 l 233 642 l 233 969 l 363 969 l 363 1049 l 14 1049 l 14 969 l 143 969 z "},"⅓":{"ha":1167,"x_min":0,"x_max":0,"o":"m 797 582 l 1014 1042 l 863 1042 l 647 582 z m 139 582 l 493 582 l 493 679 l 381 679 l 381 926 b 347 1008 381 959 369 986 b 263 1042 325 1031 297 1042 l 139 1042 l 139 938 l 235 938 b 248 932 240 938 245 936 b 253 917 251 928 253 923 l 253 679 l 139 679 z m 749 281 b 719 257 737 272 727 264 b 708 228 712 250 708 240 b 721 195 708 215 713 204 b 758 182 729 186 742 182 l 867 182 b 890 176 876 182 884 180 b 899 151 896 173 899 164 l 899 138 b 890 110 899 124 896 115 b 865 104 885 106 876 104 l 653 104 l 653 1 l 850 1 b 983 32 908 1 953 12 b 1028 122 1013 52 1028 82 l 1028 167 b 995 236 1028 193 1017 216 b 875 267 973 256 933 267 l 1028 378 l 1028 461 l 643 461 l 643 358 l 851 358 z m 390 460 l 174 0 l 325 0 l 540 460 z "},"←":{"ha":1019,"x_min":0,"x_max":0,"o":"m 964 590 l 232 590 l 715 1042 l 510 1042 l 150 703 b 68 608 113 668 86 636 b 42 519 50 581 42 551 b 67 433 42 488 50 459 b 149 339 83 406 111 375 l 510 -1 l 715 -1 l 231 451 l 964 451 z "},"↑":{"ha":1210,"x_min":0,"x_max":0,"o":"m 685 0 l 685 857 l 1154 389 l 1154 589 l 788 949 b 692 1030 750 985 719 1012 b 604 1057 665 1048 636 1057 b 518 1031 573 1057 544 1048 b 424 950 492 1014 461 987 l 56 589 l 56 389 l 525 856 l 525 0 z "},"→":{"ha":1019,"x_min":0,"x_max":0,"o":"m 304 -1 l 510 -1 l 869 338 b 951 432 906 373 934 404 b 978 521 969 460 978 489 b 953 608 978 552 969 581 b 871 701 936 634 909 665 l 510 1042 l 304 1042 l 789 589 l 56 589 l 56 450 l 788 450 z "},"↓":{"ha":1210,"x_min":0,"x_max":0,"o":"m 685 1042 l 525 1042 l 525 186 l 56 653 l 56 453 l 424 92 b 518 10 461 55 492 28 b 604 -15 544 -7 573 -15 b 692 12 636 -15 665 -6 b 788 93 719 30 750 57 l 1154 453 l 1154 653 l 685 185 z "},"↖":{"ha":1150,"x_min":0,"x_max":0,"o":"m 1067 179 l 394 850 l 1067 850 l 1067 996 l 390 996 b 269 987 340 996 300 993 b 190 944 238 981 212 967 b 149 867 169 923 155 897 b 139 747 142 837 139 797 l 139 69 l 285 69 l 285 742 l 956 69 z "},"↗":{"ha":1150,"x_min":0,"x_max":0,"o":"m 83 179 l 194 69 l 865 742 l 865 69 l 1011 69 l 1011 747 b 1001 867 1011 797 1008 837 b 960 944 995 897 981 923 b 881 987 938 967 912 981 b 760 996 850 993 810 996 l 83 996 l 83 850 l 756 850 z "},"↘":{"ha":1150,"x_min":0,"x_max":0,"o":"m 83 192 l 83 46 l 760 46 b 881 55 810 46 850 49 b 960 97 912 61 938 75 b 1001 174 981 119 995 144 b 1011 294 1008 204 1011 244 l 1011 972 l 865 972 l 865 300 l 194 972 l 83 863 l 756 192 z "},"↙":{"ha":1150,"x_min":0,"x_max":0,"o":"m 1067 192 l 394 192 l 1067 863 l 956 972 l 285 300 l 285 972 l 139 972 l 139 294 b 149 174 139 244 142 204 b 190 97 155 144 169 119 b 269 55 212 75 238 61 b 390 46 300 49 340 46 l 1067 46 z "},"−":{"ha":675,"x_min":0,"x_max":0,"o":"m 69 451 l 606 451 l 606 590 l 69 590 z "},"■":{"ha":931,"x_min":0,"x_max":0,"o":"m 804 183 l 804 860 l 128 860 l 128 183 z "},"▲":{"ha":960,"x_min":0,"x_max":0,"o":"m 119 258 l 840 258 l 479 882 z "},"▶":{"ha":847,"x_min":0,"x_max":0,"o":"m 119 882 l 119 161 l 743 522 z "},"▼":{"ha":960,"x_min":0,"x_max":0,"o":"m 119 811 l 479 188 l 840 811 z "},"◀":{"ha":847,"x_min":0,"x_max":0,"o":"m 728 882 l 104 522 l 728 161 z "},"●":{"ha":1004,"x_min":0,"x_max":0,"o":"m 501 158 b 648 185 553 158 602 167 b 768 260 694 203 734 228 b 849 375 802 292 829 331 b 879 519 869 419 879 468 b 849 665 879 571 869 620 b 768 781 829 709 802 748 b 648 857 734 813 694 838 b 501 885 602 875 553 885 b 355 857 450 885 401 875 b 235 781 309 838 269 813 b 155 665 202 748 175 709 b 125 519 135 620 125 571 b 155 375 125 468 135 419 b 235 260 175 331 202 292 b 355 185 269 228 309 203 b 501 158 401 167 450 158 z "},"":{"ha":885,"x_min":0,"x_max":0,"o":"m 343 -261 l 467 -261 b 500 -164 484 -217 495 -184 b 507 -90 505 -144 507 -119 l 507 -56 l 379 -56 l 379 -90 b 372 -164 379 -119 377 -144 b 343 -261 368 -184 358 -217 z "}}}
